<svg xmlns="http://www.w3.org/2000/svg" display="block" viewBox="0 0 3438 2292"><path fill="#c553c8" d="m2118 164-39 2-41 4-46 6-32 6-30 7-27 8-29 10-26 11-24 11-20 10-23 13-21 12-21 13-24 15-21 13-25 15-21 12-21 11-4-12-4-1-1 4 3 12-25 11-6 2-2-9-8-22-1-1h-27l-2-5-12-13-7-7 1-27-27-13-5 1-13 13-2 3-15-1h-20l-12-14-4-5-7 1-25 9-1 27-13 10-10 10-1 2-15-1-11-1-5 8-10 21-21-16-17-12-19-13-19-12-16-9-21-11-21-9-21-8-19-12-28-16-28-14-27-11-28-9-24-6-27-4-12-1h-48l-32 4-29 6-31 9-31 11-34 15-32 16-23 13-24 14-15 8-22 10-21 8-25 7-20 4-13 2-12 1h-54l-37-2h-26l-19 2-18 4-16 6-17 9-17 12-7 5-12-19-14-22-22-33-14-20-13-18-14-19-16-21-8-7-9-3h-7l-11 4-6 5-4 7-2 8 1 10 15 66 16 80 9 53 8 55-1 5-10 18-8 16-9 21-7 19-7 26-4 22-2 19v28l2 21 4 22 6 23 9 24 8 18 8 16 9 17-1 15-5 44-4 48-1 18-7 1-27 9-23 11-19 13-17 16-11 15-8 14-7 19-4 19-1 12v25l3 25 6 24 9 27 11 25 10 20 3 5v9l-5 45-4 52-1 21-1 74 3 57 6 54 10 56 10 41 1 5-7 9-9 14-11 23-6 23-1 13v23l2 19 8 32 12 31 13 28 10 18 9 14 10 14 11 13 12 13 11 10 13 10 18 12 16 9 16 8 26 11 5 1v-13l2-11 4-11 7-11 7-7 9-6 8-4 10-3 8-1 103-1-5-6-4-4-6-12-2-10-5-342-1-18 12 1h47v39l4 266 1 18 4 11 7 10 8 6 12 5 7 1 1579 1 20 45 20 45 1 5-20 45-20 45-20 45-20 45-10 23 3 2 13 5 19-42 18-41 18-40 18-41 11-25 6 12 18 41 18 40 18 41 18 40 6 14 2 1 14-6-1-5-20-45-20-45-20-45-20-45-8-18 1-7 18-40 18-41 3-9h323l-1 2v12l3 7 5 6 12 6 14 3 28 3h38l2 6 20 45 1 7-20 45-20 45-20 45-20 45-9 20v3l15 6 7-14 8-18 3-1 3-6 2-1h6l3 3 1 4 122-1 1 5 13 29 16-6-2-6-10-22 16 1 1-6 9-1 3 2 2 5h6l1-1v-12l-3-3-2-1h-41l-1-5-18-40-18-41-1-2-1-70 4-2 2-3v-56l22-1 35-3h28l16-2 10-4 7-5-4 6-1 3-4 2-1 2 150 1 14 3 10 4 8 5 5 3 16-9 25-17 17-13 13-11 8-7 10-9 30-30 9-11 7-8 13-17 13-18 12-19 12-21 12-23 14-32 12-34 8-27 7-29 6-32 5-38 3-39 1-28v-28l-2-48-4-45-6-45-8-47-10-48-10-42-4-13-6-4-3-1 6-9 5-10 3-10 1-7v-15l-2-10-4-12-6-10-9-11-12-9-10-5-15-4h-22l-12 3-16 8-12 11-6 7-8 16-3 11-1 8v9l2 12 5 14 6 10 4 5 2 11v6l-11-10-18-11-22-7-7-1h-23l-14 3-16 6-16 10-11 10-2 1v-14l-2-31-1-3h21l15-3 16-6 12-7 13-11 9-11 10-18 5-17 1-7v-22l-3-14-6-16-8-13-9-11-11-9-14-8-9-4-15-4-7-1h-10l10-48 8-28 7-21 9-21 1-6-3 1-11 23-9 24-8 25-8 33-3 13v5l-17 3-16 6-14 9-14 13-10 14-6 12-5 19-1 8v14l2 13 5 16 7 13 8 11 10 10 11 8 14 7 8 3h4l2 46 1 21-6 13-4 13-2 12v18l3 16 4 12 8 15 8 11 2 21 3 51v72l-4 50-6 42-22-14-10-5-7 3-2 2-1 15-3 5-4 5 9 12 6 10-20-9-10-4 3-6v-8l-4-6-7-4-8 1-11 6-4-15 1-4 18-14 5-4v-12l-4-10-4-5-9-6-5-5-4-4-4 1-4 2-17-8-28-11h-3l1-11 7-279 1-5h19l12-4 9-5 10-9 7-11 4-12 1-7v-9l-2-10-5-12-7-9-7-7-13-7-14-3h-10l-3 1 1-11 11-438v-41l-4-17-8-16-9-11-9-8-16-9-13-4-12-2-47 1-560 15h-30l8-9 11-17 8-16 3-9h33l541-14h52l21 5 16 7 13 8 13 11 9 11 7 11 8 17 5 18 1 9v39l-9 381v23l2-3 18-46 17-41 12-28 20-45 18-37 11-23 15-29 14-26 13-23 12-21 15-24 14-23 23-34 7-9 7-4 9-1 10 3 4 3h2l2 4 3 10-1 11-11 64v6l2-3 7-23 5-21 4-23 2-19v-34l-3-24-4-16-5-16-8-18-12-19-9-11-9-10-8-8-11-9-20-14-27-14-31-12-31-9-30-6-33-4-33-2h-36l-36 2-55 6-59 9-96 17-44 7-43 5-15 1h-45l-24-3-22-5-19-7-17-9-11-8-13-11-20-20-7-8-10-10-7-8-15-16-11-12-23-23-11-9-14-10-23-12-21-7-25-5-19-2-21-1h-14zm1029 454 1 3-1-3zm102 501 1 3-15 47-4-2-31-31-2-2 17-1 16-4 14-7 4-3zm-532 848 3 3 16 36v101h-80l1-5 18-40 18-41 18-40 6-14zm42 93 2 3 19 42v2h-21v-47z" display="inline"/><path fill="#eaa068" d="M2118 164h14l32 2 25 4 21 6 16 7 15 8 14 10 14 12 28 28 7 8 15 16 11 12 8 8 7 8 18 18 14 11 13 8 15 7 18 6 18 4 24 3h45l25-2 47-6 70-12 68-12 54-8 48-5 36-2h36l33 2 33 4 34 7 33 10 29 12 23 12 17 12 9 7 13 12 7 7 11 14 10 16 7 14 6 15 5 18 3 19 1 11v34l-3 27-6 28-7 25-3 9h-1l1-12 11-64-1-10-3-6-1-3-4-2-7-3-9-1-9 3-6 5-22 33-10 15-12 20-13 21-12 21-15 27-12 22-10 20-10 19-16 33-13 28-18 41-18 43-11 27-15 39h-1v-23l9-381v-39l-2-13-6-19-10-19-11-14-10-9-9-6-14-8-17-6-14-3h-52l-541 14h-33l7-26 2-17v-28l-4-24-5-17-7-16-7-13-9-13-8-10-7-8-8-7-13-10-20-12-17-7-16-5-15-3-20-2h-12l-19 2-25 6-24 10-19 12-11 9-12 11-9 10-9 13-9 15-8 18-4 14-4 20-1 9v26l3 21 7 24 2 6-14 1-270 7-32 1 2 4-13 28-4 1-23-2-15 15-9 7h-2l1 26-8 4-20 7h-5l-14-17-1-2h-21l-14-1-17 17-5-1-24-11-2-2 1-15 1-11-8-7-10-11-4-5v-2h-27l-5-13v-3l-39 1-1 4-4-1v-3l-64 2-50 1v9l-1 9-4 6-6 3h-93l-7-3-3-4-1-3v-14l-67 2h-9v7l-3 8-5 5-6 3-32 2-104 5-9-3-5-4-4-8v-11l-17 1-274 7-14 3-12 5-11 7-10 9-8 11-6 12-3 8-1 6v32l7 483v20l12-1 426-13h8l12 3 8 6 5 6 4 9 1 6-1 294-1 117-3 8-4 6-5 5-6 4-6 2h-75l-357-5-12-1 1 18 5 342 2 10 6 12 5 5 4 5-103 1-12 2-10 4-9 5-11 10-8 13-4 12-1 8v13l-10-3-23-10-16-8-16-9-20-14-13-11-13-12-10-11-13-17-10-15-14-25-13-28-12-32-7-29-2-19v-23l1-13 7-26 12-24 12-17 2-4-6-23-7-31-9-53-5-47-3-57 1-74 3-49 4-43 3-26v-9l-14-27-10-23-10-30-5-21-3-25v-25l2-17 4-17 7-18 9-15 11-14 7-7 8-7 21-14 24-11 27-9h4l3-44 5-50 3-24v-7l-14-26-9-20-10-26-6-21-4-20-2-14-1-14v-28l3-25 5-24 6-21 10-26 10-22 13-23 1-5-8-55-10-58-16-80-14-61-1-10 2-8 4-7 8-6 9-3h7l9 3 10 9 14 19 15 20 12 17 12 17 28 42 15 24 7 11 8-6 21-14 19-9 21-6 13-2 12-1h26l37 2h54l18-2 22-4 16-4 19-6 25-10 19-9 23-13 21-12 22-12 28-14 36-15 36-12 27-7 26-5 26-3h48l19 2 24 4 27 7 29 10 25 11 26 13 24 14 21 13 27 10 31 15 21 12 17 11 19 13 18 13 20 15 13-27 4-2 19 2h5l7-8 11-10 6-4 1-27 27-10h5l12 14 5 5h19l15 1 9-10 7-7 6 1 25 12v10l-1 17 15 15 6 8v2h27l5 12 6 17 1 3 23-10 7-3-3-12 1-4 4 1 4 12 25-13 24-14 28-17 19-12 21-13 28-17 27-15 27-14 26-12 28-11 36-12 30-8 34-7 49-7 37-4 28-2Zm1029 454Z"/><path fill="#d4429b" d="m2043 189-19 2-25 6-24 10-19 12-8 6-12 11-7 8-9 10-8 12-9 16-7 17-5 19-3 21v26l1 9 4 20 7 21-13 1-77 2-226 6 2 5-9 19-3 9-27-2-13 13-13 10v26l-24 9-8 1-2-3-13-16h-21l-14-1-16 16-4 1-11-5-16-8v-6l2-20-3-2-9-9-11-14h-27v-2l-5-14h-31l-8 1-1 3h-3l-1-3h-26l-77 2-11 1-2 18-2 4-7 4h-93l-7-3-3-6-1-14h-29l-38 1-9 1-1 7-2 6-2 5-3 1-6 3-12 1-122 6-7-1-8-5-4-8-1-11h-17l-274 7-11 2-11 4-11 6-12 10-9 11-6 10-4 10-2 9v32l7 483 1 20 45-1 13-1v-43l-6-399 1-18 4-17 6-15 10-15 10-10 10-8 14-8 15-6 19-4 23-1 335-9 4-1 6-7 6-3h18l115 6 7 1 5 2 2 4 3 8v11h12l149-4 47-1 2 4 3 1 10 8 1 4-4-1-11-9-23 1-186 5-1 25v27h17l74-2 355-9 8-7 1-16-5-5-2-4 5-11h12l11-10v-12l8-2 7-1 6 7 16 1 5-6 4-1 11 5v12l10 11h12l2 8 1 7-7 6-1 15h18l6-1 1-5h3l1 5h30l701-17 228-6 36-1 7 1 16 5 12 8 7 7 10 14 8 16 8 23 6 24 6 36 4 38 3 52 1 38v77l-1 53-13 423v32h-5l-13 5-16 9-13 9-12 11-10 13-8 16-3 13v20l1 6 4 14 8 17 8 13 7 10 9 10 1 5-10 18-14 26-16 28-16 26-14 20-11 14-7 8-5 4-1 5 3 12 7 19 9 17 7 10h140l10-7 17-14 11-9 14-13 8-7 9-9 7-8 8-8 12-14 8-10 21 2h32l15-1-2 3-7 8-7 7-7 8-7 7-8 7-9 9-12 11-16 15-8 7-8 8-10 8-16 10-21 9-1 8v13l7 2 24 7 17 8 8 7 5 8v11l-2 5-10 13-10 8-7 9-2 4h-2l-3 4 150 1 14 3 10 4 8 5 5 3 14-8 27-18 20-15 13-11 8-7 31-31 7-8 9-10 8-10 11-14 10-14 12-18 13-22 12-23 9-20 10-24 11-32 10-37 6-28 6-38 4-39 2-45v-28l-1-30-2-31-4-40-6-44-8-45-10-48-11-45-3-6-8-4 3-4 6-11 4-11 2-10v-15l-1-7-3-10-6-12-9-12-11-9-11-6-17-5h-22l-9 2-10 4-13 8-11 11-7 11-5 12-3 16v9l1 8 3 11 5 11 7 10 2 5 1 13-10-9-19-12-15-5-14-3h-23l-7 1-19 6-14 8-11 8-8 7v-14l-2-31-1-3h21l7-1 20-6 16-9 11-9 11-13 9-16 4-12 3-14v-22l-1-7-5-16-5-10-6-10-8-10-12-10-17-10-13-4-15-3h-10l7-34 5-21 8-28 7-19 7-16 1-6h-2l-5 9-9 20-8 22-8 26-9 38-1 9-13 2-20 7-13 8-11 10-11 13-8 15-4 13-3 16v14l1 9 3 12 6 14 10 16 9 9 11 9 13 7 9 4 7 1 2 46 1 21-3 6-6 15-3 17v18l1 8 4 15 8 17 10 14 1 7 4 65v72l-3 41-7 51-17-11-14-8-7 2-3 3-1 15-1 3-6 6 5 7 10 16-9-4-21-9 3-6v-8l-4-6-7-4-8 1-11 6-2-8-2-10 13-10 11-9v-12l-1-4-4-8-5-4-10-7-6-7-4 1-4 2-8-4-34-14-6-1 1-11 7-279 1-5h19l7-2 13-6 9-8 8-11 4-11 2-10v-9l-1-7-3-9-7-12-10-10-13-7-14-3h-10l-3 1 1-11 11-438v-41l-4-17-7-14-7-10-11-10-13-8-13-5-16-3h-10l-597 16h-30l6-7 8-11 9-15 9-21 6-23 2-17v-28l-1-8-4-20-6-18-6-13-9-16-12-16-7-8-10-9-13-10-12-8-14-7-12-5-16-5-15-3-20-2h-12zm1206 930 1 3-15 47-4-2-31-31-2-2 17-1 16-4 14-7 4-3z"/><path fill="#e5c7fb" d="M2118 164h14l32 2 25 4 21 6 16 7 15 8 14 10 14 12 28 28 7 8 15 16 11 12 8 8 7 8 18 18 14 11 13 8 15 7 18 6 18 4 24 3h45l25-2 47-6 70-12 68-12 54-8 48-5 36-2h36l33 2 33 4 34 7 33 10 29 12 23 12 17 12 9 7 13 12 7 7 11 14 10 16 7 14 6 15 5 18 3 19 1 11v34l-3 27-6 28-7 25-3 9h-1l1-12 11-64-1-10-3-6-1-3-4-2-7-3-9-1-9 3-6 5-22 33-10 15-12 20-13 21-12 21-15 27-12 22-10 20-10 19-16 33-13 28-18 41-18 43-11 27-15 39h-1v-23l9-381v-39l-2-13-6-19-10-19-11-14-10-9-9-6-14-8-17-6-14-3h-52l-541 14h-33l7-26 2-17v-28l-4-24-5-17-7-16-7-13-9-13-8-10-7-8-8-7-13-10-20-12-17-7-16-5-15-3-20-2h-12l-19 2-25 6-24 10-19 12-11 9-12 11-9 10-9 13-9 15-8 18-4 14-4 20-1 9v26l3 21 7 24 2 6-14 1-270 7-32 1 2 4-13 28-4 1-23-2-15 15-9 7h-2l1 26-8 4-20 7h-5l-14-17-1-2h-21l-14-1-17 17-5-1-24-11-2-2 1-15 1-11-8-7-10-11-4-5v-2h-27l-5-13v-3l-39 1-1 4-4-1v-3l-64 2-50 1v9l-1 9-4 6-6 3h-93l-7-3-3-4-1-3v-14l-67 2h-9v7l-3 8-5 5-6 3-32 2-104 5-9-3-5-4-4-8v-11l-17 1-274 7-14 3-12 5-11 7-10 9-8 11-6 12-3 8-1 6-1 17-3-4-28-56-12-22-14-26-13-23-14-24-11-19-5-9 12-10 17-11 19-9 21-6 13-2 12-1h26l37 2h54l18-2 22-4 16-4 19-6 25-10 19-9 23-13 21-12 22-12 28-14 36-15 36-12 27-7 26-5 26-3h48l19 2 24 4 27 7 29 10 25 11 26 13 24 14 21 13 27 10 31 15 21 12 17 11 19 13 18 13 20 15 13-27 4-2 19 2h5l7-8 11-10 6-4 1-27 27-10h5l12 14 5 5h19l15 1 9-10 7-7 6 1 25 12v10l-1 17 15 15 6 8v2h27l5 12 6 17 1 3 23-10 7-3-3-12 1-4 4 1 4 12 25-13 24-14 28-17 19-12 21-13 28-17 27-15 27-14 26-12 28-11 36-12 30-8 34-7 49-7 37-4 28-2Zm1029 454Z"/><path fill="#da4393" d="m3056 775-5 9-9 20-8 22-8 26-9 38-1 9-13 2-20 7-13 8-11 10-11 13-8 15-4 13-3 16v14l1 9 3 12 6 14 10 16 9 9 11 9 13 7 9 4 7 1 2 46 1 21-3 6-6 15-3 17v18l1 8 4 15 8 17 10 14 1 7 4 65v72l-3 41-7 51-17-11-14-8-7 2-3 3-1 15-1 3-6 6 5 7 10 16-9-4-21-9 3-6v-8l-4-6-7-4-8 1-11 6-2-8-2-10 13-10 11-9v-12l-1-4-4-8-5-4-10-7-5-6-4-1-8 7-15 13-11 9-10 9-11 9-13 12-3 8 1 10 4 6 11 9 4 2-7 9-8-5-23-14-26-14-5-7-4-11 1-11 3-6v-6l-9-48-3-13h-2l-10 4-16 9-13 9-12 11-10 13-8 16-3 13v20l1 6 4 14 8 17 8 13 7 10 9 10 1 5-10 18-14 26-16 28-16 26-14 20-11 14-7 8-5 4-1 5 3 12 7 19 9 17 7 10h140l10-7 17-14 11-9 14-13 8-7 9-9 7-8 8-8 12-14 8-10 21 2h32l15-1-2 3-7 8-7 7-7 8-7 7-8 7-9 9-12 11-16 15-8 7-8 8-10 8-16 10-21 9-1 8v13l7 2 24 7 17 8 8 7 5 8v11l-2 5-10 13-10 8-7 9-2 4h-2l-3 4 150 1 14 3 10 4 8 5 5 3 14-8 27-18 20-15 13-11 8-7 31-31 7-8 9-10 8-10 11-14 10-14 12-18 13-22 12-23 9-20 10-24 11-32 10-37 6-28 6-38 4-39 2-45v-28l-1-30-2-31-4-40-6-44-8-45-10-48-11-45-3-6-8-4 3-4 6-11 4-11 2-10v-15l-1-7-3-10-6-12-9-12-11-9-11-6-17-5h-22l-9 2-10 4-13 8-11 11-7 11-5 12-3 16v9l1 8 3 11 5 11 7 10 2 5 1 13-10-9-19-12-15-5-14-3h-23l-7 1-19 6-14 8-11 8-8 7v-14l-2-31-1-3h21l7-1 20-6 16-9 11-9 11-13 9-16 4-12 3-14v-22l-1-7-5-16-5-10-6-10-8-10-12-10-17-10-13-4-15-3h-10l7-34 5-21 8-28 7-19 7-16 1-6h-2zm193 344 1 3-15 47-4-2-31-31-2-2 17-1 16-4 14-7 4-3z"/><path fill="#212465" d="m479 1494 59 1 1 39 4 266 1 18 4 11 6 8v2l4 2 8 5 8 3 7 1 1579 1 6 12 18 41 18 40-1 5-18 41-7 15-105 1-131 4-122 3-161 3-162 2-166 1h-137l-152-1-78-1-95-2-92-3-83-4-33-2-261-1-14-3-9-4-8-5-10-9-6-9-4-8-3-9-1-8v-9l2-11 4-11 7-11 8-8 9-6 8-4 10-3 8-1 102-1-7-6-7-12-2-6-1-7-5-342Z"/><path fill="#fdfefe" d="M895 1055h15l10 3 9 6 6 9 2 7v101l-1 275-3 10-4 6-5 5-10 5-4 1h-36l-518-7-56-1-12-4-8-7-5-9-2-14-26-334v-9l4-11 4-5 9-6 10-3 238-7Z"/><path fill="#4797fa" d="m1113 707 7 1 5 4 6 13 10-3 18-5 16-2h45l154 1 100 1 19 3 16 5 8 3 8-15 6-3 9 1 2 1-2 6v7l4 4 6 1h2l2-11 6 2 4 5 1 3v40l6 9 8 16 6 20 2 13v121l-1 14-5 13-7 9-8 7-10 5-6 2h-23l1 2v13l14 3 16 8 4 3 15 2 11 4 8 4 10 8 6 7 6 10 4 10 2 12-1 17-5 15-7 11-10 10-10 6-13-1-19-3v-10l-1-3-13-2-10-1-2-9-2-1-22-3 3-8v-8l-3-6-8-5-7-1-7 2-2 3-1 20-1 5-22-1-1 6h-3l1-7 3-3h15l-6-1h-12l-2 2-1 8h-27l-2 5-30-4h-15l-6 5-3 17-18 152-1 2-4-2-17-12-18-13-5-4-1-2 1-9-8-2-16-5 12 9-5 9-11 16 2 3 1 14-3 4h-6l-3-3-1-3-10 16-2 3-6-2-18-9-2-16-4-8-5-6-10-5-4-1h-16l-4-9h-6l-16 6 1 11-16 6 1 9-18 6-51 15-1-2 32-153 3-14v-3l-9 6-12 5-12 2h-10l-14-3-9-4-8-5-10-9-8-11-5-14-2-13 1-14 4-13 7-12 9-10 11-7 12-5 15-3 11-8 10-5 10-3h3v-13l1-2h-13l-12-3-10-5-9-8-6-9-4-11-1-5v-71l1-60 4-20 6-16 9-17 3-4 1-14 1-29 5-6 5-2 2 7 2 4 7-1 3-3 1-6-2-5v-3Zm169 535Z"/><path fill="#a837d2" d="M538 1495v39l4 266 1 18 4 11 7 10 5 4 12 6 10 2 1579 1 4 9 18 41 18 40 1 5-12 27-18 41-18 40-18 41-19 42-5 13 16 6 5-11 20-45 20-45 20-45 19-43 1 1 6 14 18 40 18 41 18 40 18 41 6 12 15-6v-3l-8-18-20-45-20-45-20-45-20-45-1-7 17-38 20-45 3-9h323l-1 2v12l1 4 6 8 10 6 17 4 28 3h38v2l4 9 18 40 1 7-16 36-18 41-18 40-18 41-18 40-1 5 14 6 2-1 14-31 3-1 1-3 4-4h6l2 2 2 5 122-1v3l14 31 16-6v-2l-12-26 16 1 1-6 3-1h6l2 1 3 6h6l1-1v-12l-1-2-4-2h-41v-3l-2-4-18-41-18-40-1-70h2l4-5v-56h7l50-4h28l12-1 8-2 9-5 17-13 10-12 4-8v-11l-3-6-8-8-15-8-21-7-15-3 1-21 5-1 16-7 15-9 11-9 12-11 16-15 8-7 8-8 16-15 14-15 15-16 3-5-16 1h-32l-21-2-11 14-9 10-15 16-17 16-8 7-11 10-16 13-13 10-4 4 9 1 5 5v6l-4 23-2 5-5 1-67 1-13 7-6 1-13-8-632-1-4-1-4-2v-2l-6-13h-228l-534 2h-204l-13 1-170 1-109 1h-91l-14-1-22-3-16-4-10-4-9-6-7-8-4-10v-21l-1-7-3-16v-10l1-8 3-12v-50l1-131-9-1-71-1h-25zm2179 472 3 3 16 36v101h-80l1-5 18-40 18-41 18-40 6-14zm42 93 2 3 19 42v2h-21v-47z"/><path fill="#e5eefd" d="M2615 969h144l9 4 5 4 5 8 1 3v37l-9 296-1 11-4 8-4 5-9 5-3 1h-20l-488-20-12-1-7-3-6-4-5-7-2-6-3-57-11-235v-28l5-10 7-6 8-3 124-1Z"/><path fill="#f6dcf9" d="M2118 164h14l32 2 25 4 21 6 16 7 15 8 14 10 14 12 28 28 7 8 15 16 11 12 8 8 7 8 18 18 14 11 13 8 15 7 18 6 18 4 24 3h45l25-2 47-6 70-12 68-12 54-8 48-5 36-2h36l33 2 33 4 34 7 33 10 29 12 23 12 17 12 9 7 13 12 7 7 11 14 10 16 7 14 6 15 5 18 3 19 1 11v34l-3 27-6 28-7 25-3 9h-1l1-12 11-64-1-10-3-6-1-3-4-2-7-3-9-1-9 3-6 5-22 33-10 15-12 20-13 21-12 21-15 27-12 22-10 20-10 19-16 33-13 28-18 41-18 43-11 27-15 39h-1v-23l9-381v-39l-2-13-6-19-10-19-11-14-10-9-9-6-14-8-17-6-14-3h-52l-541 14h-33l7-26 2-17v-28l-4-24-5-17-7-16-7-13-9-13-8-10-7-8-8-7-13-10-20-12-17-7-16-5-15-3-20-2h-12l-19 2-25 6-24 10-19 12-11 9-12 11-9 10-9 13-9 15-8 18-4 14-4 20-1 9v26l3 21 7 24 2 6-14 1-270 7h-34l-14-14 1-35 9-8 9-7 24-10 9-4-3-12 1-4 4 1 4 12 25-13 24-14 28-17 19-12 21-13 28-17 27-15 27-14 26-12 28-11 36-12 30-8 34-7 49-7 37-4 28-2Zm1029 454Z"/><path fill="#65236d" d="M2776 393h52l21 5 16 7 13 8 13 11 7 8 9 13 9 19 5 18 1 9v39l-9 381v20l18-46 17-41 12-28 20-45 18-37 11-23 15-29 14-26 13-23 12-21 15-24 14-23 23-34 7-9 8-5 9-1 10 3 6 4 4 6 2 8-1 11-12 70-9 64-6 53-4 46-2 33-1 25v67l2 36 3 31 6 37 6 29-4 14-1 8v9l2 12 5 14 6 10 4 5 2 11v8l-7-6-8-7-15-9-22-7-7-1h-23l-14 3-16 6-16 10-11 10h-2l-3-48 21-1 15-3 16-6 12-7 12-10 9-11 10-18 5-17 1-7v-22l-3-14-6-16-8-13-8-10-11-9-14-8-9-4-15-4-17-2 1-9 8-39 8-28 7-21 9-21 2-6-3 3-10 21-9 24-8 25-8 33-4 18-13 3-20 7-14 9-13 12-10 14-6 12-5 19-1 8v14l2 13 5 16 7 13 8 11 9 9 11 8 14 7 12 4 1 5 2 41 1 21-6 13-4 13-2 12v18l3 16 4 12 8 15 8 11 2 21 3 51v72l-4 50-6 40-1 2-5-2-17-11-10-5-7 3-1 1-1 15-3 5-4 5 9 12 6 11-6-2-15-7-12-5 2-1 2-5v-8l-4-6-6-3-8 1-11 6-3-9-2-10 12-10 12-9v-12l-4-10-5-5-11-8-5-6-4 1-4 2-17-8-31-12 1-51 6-239 1-6h20l12-4 9-5 9-8 7-11 4-12 1-7v-9l-2-10-5-12-7-9-9-8-10-5-14-3h-13l1-51 10-398v-41l-4-17-8-16-9-11-11-9-16-8-15-4-7-1-47 1-560 15h-31l6-8 8-11 10-17 7-16 227-6Zm381 737Z"/><path fill="#fcf5e6" d="M2112 565h142l9 4 7 8 2 5v35l-8 262-2 9-6 8-6 4-4 1h-24l-415-17-18-1-9-4-5-5-4-7-1-3-12-257v-23l5-10 9-6 3-1 60-1Z"/><path fill="#af3880" d="M188 1102h8l5 3 4 9 15 37 15 36 10 23 18 244 2 15 4 9 4 5 10 6 8 2 188 3 1 18 5 342 2 10 6 12 5 5 4 5-103 1-12 2-10 4-9 5-11 10-8 13-4 12-1 8v13l-10-3-23-10-16-8-16-9-20-14-13-11-13-12-10-11-13-17-10-15-14-25-13-28-12-32-7-29-2-19v-23l1-13 7-26 12-24 12-17 2-4-6-23-7-31-9-53-5-47-3-57 1-74 3-49 4-43 6-48 8-51 4-20 5-5Z"/><path fill="#e5effe" d="m2233 1360 10 1 8 4 6 7 3 7 1 109h6l5 5-1 7-9 6h-2v78l-12-5-5-1h-104l-8 5-4 2-7-1-3-3v-4l-50 1-8 4-3 6v8l23 58 17 43 6 15v3l-294-3-50-1-8-3-6-5-4-6-3-14-3-44-18-233v-8l4-10 5-6 8-4 4-1Z"/><path fill="#f8e042" d="M3056 775h2l-1 6-7 16-7 19-8 28-5 21-7 34h10l15 3 13 4 17 10 12 10 8 10 6 10 5 10 5 16 1 7v22l-3 14-4 12-9 16-11 13-11 9-16 9-20 6-7 1h-21l1 3 2 31v14l8-7 11-8 14-8 19-6 7-1h23l14 3 15 5 19 12 10 9-1-16 7 6 10 7 15 6 11 3 8 7 28 28-2 9-18 52-19 51-20 51-8 19h-1l1-42v-38l-1-28-9 12-9 9-14 10-13 6-13 4-12 2h-18l-16-3-14-5-10-5-6-4 1 25 2 37v66l-2 30-3 28-6 38-2 7 4 2 11 9 11 11 5 8 5 19 2 13v29l-4 18-5 12-6 9-9 10-12 9-16 7-19 5-17 2h-32l-21-2-8 10-12 14-8 8-7 8-9 9-8 7-14 13-11 9-17 14-10 7h-140l-7-10-9-17-7-19-3-12 1-5 5-4 7-8 11-14 14-20 16-26 16-28 14-26 10-18-1-5-9-10-7-10-8-13-8-17-4-14-1-6v-20l3-13 8-16 10-13 12-11 13-9 16-9 10-4h2l3 13 9 48v6l-3 6-1 11 4 11 5 7 26 14 23 14 8 5 7-9-4-2-11-9-4-6-1-10 3-8 13-12 11-9 10-9 11-9 15-13 8-7 4 1 5 6 10 7 5 4 4 8 1 4v12l-11 9-13 10 2 10 2 8 11-6 8-1 7 4 4 6v8l-3 6 21 9 9 4-10-16-5-7 6-6 1-3 1-15 3-3 7-2 14 8 17 11 7-51 3-41v-72l-4-65-1-7-10-14-8-17-4-15-1-8v-18l3-17 6-15 3-6-1-21-2-46-7-1-9-4-13-7-11-9-9-9-10-16-6-14-3-12-1-9v-14l3-16 4-13 8-15 11-13 11-10 13-8 20-7 13-2 1-9 9-38 8-26 8-22 9-20Zm101 355Z"/><path fill="#4eb2fb" d="M1117 1010h56l309 2 48 1 15 4 13 7 4 3 15 2 11 4 8 4 10 8 6 7 6 10 4 10 2 12-1 17-5 15-7 11-10 10-10 6-13-1-19-3v-10l-1-3-13-2-10-1-2-9-2-1-22-3 3-8v-8l-3-6-8-5-7-1-7 2-2 3-1 20-1 5-22-1-1 6h-3l1-7 3-3h15l-6-1h-12l-2 2-1 8h-27l-2 5-30-4h-15l-6 5-3 17-18 152-1 2-4-2-17-12-18-13-5-4-1-2 1-9-8-2-16-5 12 9-5 9-11 16 2 3 1 14-3 4h-6l-3-3-1-3-10 16-2 3-6-2-18-9-2-16-4-8-5-6-10-5-4-1h-16l-4-9h-6l-16 6 1 11-16 6 1 9-18 6-51 15-1-2 32-153 3-14v-3l-9 6-12 5-12 2h-10l-14-3-9-4-8-5-10-9-8-11-5-14-2-13 1-14 4-13 7-12 9-10 11-7 12-5 15-3 11-8 10-5 10-3Zm165 232Z"/><path fill="#fdf4d5" d="M729 570h33l24 4 14 4 16 6 16 8 13 8 13 10 13 12 12 13 11 16 9 16 7 16 5 15 3 12 3 24v23l-3 23-6 22-6 15-8 16-9 14-10 13-11 12-8 7-17 13-19 11-19 8-21 6-17 3-12 1h-20l-24-3-22-6-20-8-15-8-13-9-10-8-15-14-9-11-10-14-9-16-6-13-6-18-3-11-3-21v-31l4-25 4-15 10-24 8-14 9-13 11-13 14-14 17-13 19-11 16-7 15-5 18-4Z"/><path fill="#ebd7fd" d="M940 182h48l19 2 24 4 27 7 29 10 25 11 26 13 24 14 18 11-4 1-25-6-28-4-16-1h-19l-25 2-21 3-23 5-25 7-26 9-26 11-25 12-16 8-14 7-38-2h-15l-7 3-5 5-3 8 3 113v9l-17 1-274 7-14 3-12 5-11 7-10 9-8 11-6 12-3 8-1 6-1 17-3-4-28-56-12-22-14-26-13-23-14-24-11-19-5-9 12-10 17-11 19-9 21-6 13-2 12-1h26l37 2h54l18-2 22-4 16-4 19-6 25-10 19-9 23-13 21-12 22-12 28-14 36-15 36-12 27-7 26-5Zm240 73Z"/><path fill="#2a3481" d="m479 1494 59 1 1 39 4 266 1 18 4 11 6 8v2l4 2 8 5 8 3 7 1 1579 1 6 12 9 21v2H502l-8-7-7-12-2-6-1-7-5-342Z"/><path fill="#fcf4d6" d="M2036 195h28l20 3 15 4 15 6 16 8 12 8 10 8 13 12 9 11 8 11 9 16 5 11 6 18 3 14 2 18v18l-3 23-6 21-7 16-8 15-12 16-12 13-11 10-13 9-16 9-14 6-20 6-18 3h-34l-22-4-24-8-19-10-14-10-14-12-7-7-11-14-10-16-8-17-6-18-3-15-2-18v-15l2-18 3-14 5-16 5-12 8-15 10-14 9-10 7-8 11-9 11-8 11-7 18-8 15-5 20-4Z"/><path fill="#1d1d5c" d="m2493 1567 9 1 10 3 15 8 11 7 14 10 14 12 12 11 10 9 7 8 10 10 7 8 12 14 11 14 12 16 2 1 7 24 8 18 10 17 1 2h-552l-6-7-16-41-23-58-17-43-6-15v-8l3-6 6-4 3-1h50l2 5 3 2 7-1 9-5 1-1h104l10 3 8 5 8 9 17 36 16 34 17 36 17 36 3 9 11-2 59-16 44-11 30-6 20-2 35-1 29 2-10-10-8-7-14-12-19-14-14-8-12-3h-11l-17 4-12 5-15 9-19 14-15 14-10 9-9 10-9 10-4 5-6-2-14-9-11-11-3-5 2-5 13-19 14-19 13-16 11-13 11-12 8-8 5-5 10-10 10-8 14-10 14-8 10-4 10-3Z"/><path fill="#aa236d" d="m1494 1081 9 2 6 4 3 4 1 3v8l-3 7 21 3 4 4v7h10l9 1 4 2 2 3v9l26 4 7-1 9-6 9-9 3-5h2l25 188v6l-11-5-9-2h-15l-12 3 1-12 1-5 9 3 8-1 5-4 3-6v-9l-11-77-1-2-13 76-2 1-64-8-3-1v16l10 1 30 5 3 1-1 16-5 44h-40l-8-1-1 16-1 2 47 6 15 2 2 1-1 10-8 47-4 8-6 5-5 2h-12l-185-22-10-6-5-8-2-10 10-85v-4l-44-29-7-5 8-15h4l18 13 18 13 6 4 6-53 13-109 2-9 7-6h15l30 4 2-4 2-1h15l10 1v-8l3-3h12l9 1-3 2h-17l-2 9h3l1-6 2-1 13 1 7 1-1-5h2v-20l5-5Z"/><path fill="#fdf5d5" d="M1934 1002h26l20 3 18 5 21 9 18 11 11 9 13 12 9 11 9 13 8 14 8 20 5 20 2 15v27l-4 24-5 16-7 16-10 18-13 16-16 16-17 12-16 9-15 6-13 4-15 3-19 2h-11l-19-2-18-4-18-6-21-11-14-10-14-12-11-12-10-14-9-16-5-11-5-15-4-18-2-20v-10l2-19 3-15 5-16 9-20 9-14 11-14 16-16 18-13 21-11 21-7 13-3Z"/><path fill="#fcf4d6" d="M2533 608h14l18 2 15 3 21 7 21 11 14 10 10 9 5 5 9 9 10 14 9 16 5 11 6 18 3 14 2 18v16l-3 24-6 21-7 16-10 18-11 14-9 10-8 7-16 12-16 9-11 5-18 6-14 3-18 2h-16l-24-3-21-6-16-7-16-9-16-12-7-7-5-5-7-7-12-17-11-21-6-18-3-11-2-13-1-12v-14l2-18 3-14 5-16 5-12 7-13 9-13 7-9 7-8 8-7 11-9 18-11 15-7 18-6 15-3Z"/><path fill="#dd565f" d="M3056 775h2l-1 6-7 16-7 19-8 28-5 21-7 34h10l15 3 13 4 17 10 12 10 8 10 6 10 5 10 5 16 1 7v22l-3 14-4 12-9 16-11 13-11 9-16 9-20 6-7 1h-21l1 3 2 31v14l8-7 11-8 14-8 19-6 7-1h23l14 3 15 5 19 12 10 9-1-16 7 6 10 7 15 6 11 3 8 7 28 28-2 9-18 52-19 51-20 51-8 19h-1l1-42v-38l-1-28-9 12-9 9-14 10-13 6-13 4-12 2h-18l-16-3-14-5-10-5-6-4 1 25 2 37v66l-2 30-3 28-6 38-2 7 4 2 11 9 11 11 5 8v2l-11 6-24 14-27 16-9 8-8 4-8 2h-15l-17-4-16-7-11-6-5-5-3-3 3-9 15-33 5 1h10l11-4 4-1 21 9 9 4-10-16-5-7 6-6 1-3 1-15 3-3 7-2 14 8 17 11 7-51 3-41v-72l-4-65-1-7-10-14-8-17-4-15-1-8v-18l3-17 6-15 3-6-1-21-2-46-7-1-9-4-13-7-11-9-9-9-10-16-6-14-3-12-1-9v-14l3-16 4-13 8-15 11-13 11-10 13-8 20-7 13-2 1-9 9-38 8-26 8-22 9-20Zm101 355Z"/><path fill="#1f2060" d="M1308 431h31l5 14v2h27l11 14 9 9 3 2-1 9-11 1-223 6h-38l-115-6h-18l-6 3-6 7-4 1-335 9-23 1-19 4-15 6-14 8-10 8-10 10-10 15-6 15-4 17-1 18 6 399v43l-13 1-45 1-1-20-7-483v-32l2-9 4-10 6-10 9-11 12-10 11-6 11-4 11-2 274-7h17l1 11 4 8 8 5 7 1 122-6 12-1 6-3 3-1 2-5 2-6 1-7 9-1 38-1h29l1 14 3 6 7 3h93l7-4 2-4 2-18 11-1 77-2h26l1 3h3l1-3Z"/><path fill="#c83ea9" d="M972 492h4l-1 26-12 1-298 8-28 1-18 3-13 4-16 8-9 6-6 5-8 11-8 17-3 11-1 8v60l4 272 1 59 7-1v-35l-3-196-2-151 3-19 4-11 7-13 9-10 14-9 11-5 18-5 7-1 18-1 298-8h25l1 32v20l-83 4-58 4 18 12 15 13 5 4 7 8 10 12 12 18 11 23 7 20 5 26 1 11v23l-3 24-6 22-7 18-10 19-9 13-8 10-11 12-13 12-17 12-16 9-13 6-21 7-19 4-18 2h-22l-18-2-28-7-25-10-20-12-3-2 1 76v73l-90 3h-20l-1-43-6-399 1-18 4-17 6-15 8-12 9-10 7-7 15-10 13-6 16-5 11-2 60-2Zm-243 78-24 4-15 4-20 8-15 8-12 8-10 8-10 9-11 11-13 17-11 19-8 19-5 16-3 14-2 15v31l3 21 7 24 7 16 8 15 9 13 8 10 12 13 10 9 14 10 15 9 15 7 21 7 12 3 24 3h20l18-2 15-3 17-5 21-9 17-10 17-13 12-11 7-8 13-17 11-19 8-19 6-21 3-17 1-10v-23l-3-24-6-22-8-19-8-15-11-16-12-14-10-10-14-11-10-7-12-7-21-9-16-5-20-4-8-1Z"/><path fill="#4890fa" d="m1029 1121 4 4 7 8 9 7 10 5 10 3 7 1h10l15-3 16-8 3-2-1 9-27 129-7 34 67-20v-9l12-5 5-1-2-6v-5l9-4 8-3h6l3 5 1 5 3-1h13l11 4 7 6 5 8 2 7v12l6 2 18 9 2-5 10-15 2 4v2h8l2-3-1-14-2-3 16-24-4-4-9-6 3-1 23 8v11l-9 15 5 4 43 29 3 2-2 21-8 68 2 10 4 7 10 6 109 13-2 5-12 13-10 11-8 7-9 8-17 13-20 12-6 3-4-1-6-7h-9l-1 7 3 6v2l-19 5-11 2h-31l-19-4-18-6-17-8-19-12-13-10-15-13-16-16-7-8-11-13-13-18-14-21-9-15-10-18-4-7v-2l-41 16h-1v-20l-3-12-6-10-7-8-15-8-9-2h-14l-11 3-9 4 1-13 24-180Zm253 121Z"/><path fill="#1c1c59" d="M2262 1851h323v14l3 7 4 5 12 6 14 3 28 3 38 1 12 26 12 27-1 7-18 41-7 14h-435l-7-14-18-41-1-7 19-42 18-41Z"/><path fill="#a2236d" d="M3166 1242h1l1 29v38l-1 35-3 42-5 44-7 42-8 37-10 38-12 36-12 32-15 33-17 33-13 21-11 17-13 18-8 11-12 14-9 11-9 10-29 29-11 9-13 12-19 14-16 12-25 16-10 6-2-1 9-11 10-8 10-13 2-5v-11l-5-8-8-7-17-8-24-7-7-2v-13l1-8 21-9 16-10 10-8 8-8 8-7 16-15 12-11 9-9 8-7 7-7 7-8 7-7 7-8 4-5 19-5 16-7 12-9 10-11 8-16 4-15 1-6v-29l-4-22-4-12-7-9-10-10-12-9 6-38 3-25 2-22 1-18v-66l-3-55v-8l12 7 15 6 12 3 8 1h18l16-3 16-6 12-7 11-9 7-7Z"/><path fill="#f8cdf4" d="M2873 389h40l31 3 29 5 29 8 34 13 23 12 23 16 7 7 8 7 9 10 9 12 10 17 7 17-4 3-6 4-11 15-21 32-14 23-13 21-12 21-15 27-12 22-10 20-10 19-16 33-13 28-18 41-18 43-11 27-15 39h-1v-23l9-381v-39l-2-13-6-19-10-19-11-14-10-9-9-6-14-8-17-6-14-3v-1l29-3Z"/><path fill="#161147" d="M2776 393h52l21 5 16 7 13 8 13 11 7 8 9 13 9 19 5 18 1 9v39l-11 465-1 16-15-8-14-3h-13l1-51 10-398v-41l-4-17-8-16-9-11-11-9-16-8-15-4-7-1-47 1-560 15h-31l6-8 8-11 10-17 7-16 227-6Z"/><path fill="#b03980" d="M276 1538h2l9 29 10 30 7 19-4 16-1 11v17l3 24 7 25 8 21 14 29 8 15 9 14 16 21 10 10 7 8 16 13 13 9 20 12 27 13 28 10 1 2-87 1-12 2-10 4-9 5-11 10-8 13-4 12-1 8v13l-10-3-23-10-16-8-16-9-20-14-13-11-13-12-10-11-13-17-10-15-14-25-13-28-12-32-7-29-2-19v-23l1-13 7-26 12-24 12-17 14-15 12-11 10-8 12-9 12-8 16-10Z"/><path fill="#4cb5fc" d="m2919 1660-11 14-9 10-15 16-17 16-8 7-11 10-16 13-13 10-4 4 9 1 5 5v6l-4 23-2 5-5 1-67 1-13 7-6 1-13-8h-74v2l16 36 3 9-10-1-6-2-18-11-15-10-11-7-9 11-7 12-4 12v12l1 4 6 8 10 6 17 4 28 3h38v2l4 9 18 40 1 7-16 36-18 41-18 40-18 41-18 40-1 5 14 6 2-1 14-31 3-1 1-3 4-4h6l2 2 2 5 122-1v3l14 31 16-6v-2l-12-26 16 1 1-6 3-1h6l2 1 3 6h6l1-1v-12l-1-2-4-2h-41v-3l-2-4-18-41-18-40-1-70h2l4-5v-56h7l50-4h28l12-1 8-2 9-5 17-13 10-12 4-8v-11l-3-6-8-8-15-8-21-7-15-3 1-21 5-1 16-7 15-9 11-9 12-11 16-15 8-7 8-8 16-15 14-15 15-16 3-5-16 1h-32l-21-2zm-202 307 3 3 16 36v101h-80l1-5 18-40 18-41 18-40 6-14zm42 93 2 3 19 42v2h-21v-47z"/><path fill="#54d4fe" d="M1177 1011h151l154 1 48 1 15 4 13 7 4 3 15 2 11 4 8 4 10 8 6 7 6 10 4 10 2 12-1 17-5 15-7 11-10 10-10 6-13-1-19-3v-10l-1-3-13-2-10-1-2-9-2-1-22-3 3-8v-8l-3-6-8-5-7-1-7 2-2 3-1 20-1 5-22-1-1 6h-3l1-7 3-3h15l-6-1h-12l-2 2-1 8h-27l-2 5-30-4h-15l-6 5-3 17-3 25-1 4h-68l-1 5-2 4-6 1-3-3 1-7h-60l-11-2-10-6-6-8-3-8v-62l4-11 7-8 12-6h114l51 1v-2l3-1-120-1-7-2-36-17-28-13-22-10Z"/><path fill="#d487f2" d="M1429 259h5l12 14 5 5h19l15 1 9-10 7-7 6 1 25 12v10l-1 17 15 15 6 8v2h27l5 12 6 17-1 4-13 11-5 4-1 35 17 17-3 9-10 21-4 1-23-2-15 15-9 7h-2l1 26-8 4-20 7h-5l-14-17-1-2h-21l-14-1-17 17-5-1-24-11-2-2 1-15 1-11-8-7-10-11-4-5v-2h-27l-7-18-4-11 1-4 11-9 6-5h2v-24l1-12-10-9-7-7 1-7 11-23 4-2 19 2h5l7-8 11-10 6-4 1-27Z"/><path fill="#873f80" d="M188 1102h8l5 3 4 9 15 37 15 36 10 23 18 244 2 15 4 9 4 5 10 6 8 2 58 1 16 1-4 4-27 14-26 12-23 11-2-3-14-45v-4h-4l4 16 9 38v2l-20 11-14 9-19 13-13 11-11 9-11 11-3 3-3-8-10-42-10-58-5-47-3-57 1-74 3-49 4-43 6-48 8-51 4-20 5-5Z"/><path fill="#202264" d="M1293 809h44l65 2 63 5 21 3 10 4 10 9 6 10 2 7v35l-3 10-6 9-9 8-9 4-12 2-63 4-32 1-64 1-69-2-51-3-38-3-13-2-12-6-7-6-6-10-3-13 1-31 4-11 7-9 5-4 10-5 11-2 39-3 31-2Z"/><path fill="#4074f9" d="M2138 1802h507l19 42 1 5-4 1-10-2-10-5-25-16-11-8-5 5-8 11-5 11-2 5h-323l-3 9-20 45-17 38 1 7 20 45 20 45 20 45 20 45 8 18v3l-15 6-6-12-18-41-18-40-18-41-18-40-6-14-1-1-19 43-20 45-20 45-20 45-5 11-16-6 5-13 19-42 18-41 18-40 18-41 12-27-1-5-18-40-18-41-18-40Z"/><path fill="#1b1955" d="M2884 1871Zm-1 1v3l-5 7-4 3 149 1 14 3 10 4 8 5 9 8 7 10 5 12 2 7v21l-5 15-6 10-8 9-8 6-13 6-7 2-8 1h-264v-56l5-5 1-56 22-2 35-3h28l16-2 10-4Z"/><path fill="#ef644d" d="M911 1034h8l12 3 8 6 5 6 4 9 1 6-1 294-1 117-3 8-4 6-5 5-6 4-6 2h-75l-499-7-58-1-10-3-9-6-6-8-3-10-10-133-18-246 2-11 4-8 7-7 10-5 5-1 91-3Zm-16 21-591 17-30 1-10 3-6 4-5 5-4 6-2 7 1 22 25 321 2 14 6 10 9 7 10 3 130 2 444 6h36l11-4 6-4 6-9 3-10 1-275v-101l-4-11-6-7-12-6-5-1Z"/><path fill="#6f236d" d="m2493 1567 9 1 10 3 15 8 11 7 14 10 14 12 12 11 10 9 7 8 10 10 7 8 12 14 11 14 12 16 2 1 7 24 8 18 10 17 1 2h-209v-10l-1-3-3-1-115-1 3-2 59-16 44-11 30-6 20-2 35-1 29 2-10-10-8-7-14-12-19-14-14-8-12-3h-11l-17 4-12 5-15 9-19 14-15 14-10 9-9 10-9 10-4 5-6-2-14-9-11-11-3-5 2-5 13-19 14-19 13-16 11-13 11-12 8-8 5-5 10-10 10-8 14-10 14-8 10-4 10-3Z"/><path fill="#4cb4fd" d="M988 481h18l115 6 9 2 5 5 3 5 1 4v9l-1 2 12-1 186-5h10l2 2v3l4 1 10 8 1 2-1 2-5-1-10-8-60 2-112 3h-37v25l-2 68-5 10-7 4-7 1-101 5h-25l-8-4-4-6-1-4-2-62v-32l-62 2-261 7-18 1-15 3-15 5-13 7-10 8-8 11-6 12-4 17-1 15 3 204 2 137v35l-3 2-5-1-1-2-3-193-2-136v-60l2-11 4-13 8-15 8-10 12-9 16-8 11-4 14-3 8-1 103-3 223-6h12v-24l3-6 7-6Z"/><path fill="#9bfef9" d="M2075 1760h749l5 4 1 2-1 12-3 17-3 5-5 2-67 1-15 8-5-1-12-7-632-1-5-2-4-4-9-21v-10Z"/><path fill="#cf409f" d="M951 527h25l1 32v20l-83 4-58 4 18 12 15 13 5 4 7 8 10 12 12 18 11 23 7 20 5 26 1 11v23l-3 24-6 22-7 18-10 19-9 13-8 10-11 12-13 12-17 12-16 9-13 6-21 7-19 4-18 2h-22l-18-2-28-7-25-10-20-12-12-9-12-11-12-12-12-16-12-20-9-21-6-21-3-16-1-10-2-151 3-19 4-11 7-13 9-10 14-9 11-5 18-5 7-1 18-1Zm-222 43-24 4-15 4-20 8-15 8-12 8-10 8-10 9-11 11-13 17-11 19-8 19-5 16-3 14-2 15v31l3 21 7 24 7 16 8 15 9 13 8 10 12 13 10 9 14 10 15 9 15 7 21 7 12 3 24 3h20l18-2 15-3 17-5 21-9 17-10 17-13 12-11 7-8 13-17 11-19 8-19 6-21 3-17 1-10v-23l-3-24-6-22-8-19-8-15-11-16-12-14-10-10-14-11-10-7-12-7-21-9-16-5-20-4-8-1Z"/><path fill="#e8d7fe" d="m186 1606 2 1 9 29 16 42 15 33 12 22 11 19 14 22 13 18 12 16 13 15 12 14 14 15 14 14 8 7 11 10 13 10-4 3-10 8-7 8-6 12-3 9-1 8v13l-10-3-23-10-16-8-16-9-20-14-13-11-13-12-10-11-13-17-10-15-14-25-13-28-12-32-7-29-2-19v-23l1-13 7-26 12-24 12-17Z"/><path fill="#f5d245" d="M729 570h33l24 4 14 4 16 6 16 8 13 8 13 10 13 12 12 13 11 16 9 16 7 16 5 15 3 12 3 24v23l-3 23-6 22-6 15-8 16-9 14-10 13-11 12-8 7-17 13-19 11-19 8-21 6-17 3-12 1h-20l-24-3-22-6-20-8-15-8-13-9-10-8-15-14-9-11-10-14-9-16-6-13-6-18-3-11-3-21v-31l4-25 4-15 10-24 8-14 9-13 11-13 14-14 17-13 19-11 16-7 15-5 18-4Zm15 30-19 2-14 3-16 5-21 10-12 8-10 8-11 10-7 8-10 14-8 14-7 16-6 21-2 13v34l3 17 4 14 6 15 9 17 12 16 12 13 12 10 15 10 16 8 16 6 18 4 17 2h16l18-2 20-5 16-6 15-8 13-9 11-9 12-12 10-13 9-15 7-15 5-15 4-20 1-10v-19l-3-23-7-23-8-17-9-14-8-10-9-10-12-11-13-9-14-8-20-8-21-5-19-2Z"/><path fill="#4591fa" d="M2591 957h181l10 4 5 4 6 10 1 4v26l-10 328-2 11-5 9-8 6-9 3h-15l-513-21-21-1-11-4-5-4-5-7-2-6-1-8-15-319v-8l3-10 4-6 7-6 8-3 113-1Zm24 12-276 1-124 1-9 4-6 5-5 10v28l13 278 1 14 3 7 4 6 7 5 6 2 36 2 464 19h20l9-4 5-4 5-8 1-3 1-11 9-296v-37l-4-8-4-5-9-5-3-1Z"/><path fill="#4cb4fd" d="M834 305h15l115 6 15 1 6 3 5 5 3 8v16l-3 103-3 8-5 5-6 3-32 2-104 5-9-3-5-4-4-8-1-20-3-113 3-8 4-5 5-3Z"/><path fill="#fdf5d5" d="M3076 1102h21l11 2 15 5 15 8 14 12 10 12 9 17 5 16 1 8v21l-3 14-4 12-9 16-11 13-14 11-16 8-18 5-8 1h-15l-16-3-12-4-15-8-14-11-8-10-7-11-5-10-5-18-1-8v-16l3-15 5-15 8-14 12-14 13-10 15-8 16-5Z"/><path fill="#e0c5fc" d="M816 342h3l2 57 1 45-17 1-274 7-14 3-12 5-11 7-10 9-8 11-6 12-3 8-1 6-1 17-3-4-19-38 1-4 11-12 9-11 13-13 7-8 8-8 11-9 15-11 11-7 23-11 20-7 25-6 32-5 82-9 36-6 27-6 24-7Z"/><path fill="#fdf5d5" d="M3016 902h17l15 3 16 6 10 6 11 9 11 12 10 18 5 16 1 8v21l-3 14-5 13-8 14-9 11-14 11-15 8-17 5-7 1h-19l-12-2-17-6-12-7-14-12-11-14-8-17-4-15-1-8v-14l3-16 4-12 8-15 12-14 13-10 15-8 17-5Z"/><path fill="#1c1b58" d="m1029 1121 4 4 7 8 9 7 10 5 10 3 7 1h10l15-3 16-8 3-2-1 9-27 129-7 34 67-20v-9l12-5 5-1-2-6v-5l9-4 8-3h6l3 5 1 5 3-1h13l11 4 7 6 5 8 2 7v12l-4 11-5 6-9 6h-2l2 9-4 3-14 5h-6l-3-7-11 3-7 1-3-4v-2l-35 14-38 15-18 7h-1v-20l-3-12-6-10-7-8-15-8-9-2h-14l-11 3-9 4 1-13 24-180Z"/><path fill="#e8d7fe" d="M245 912h4v20l-1 44v37l1 47-7 7-4 8-2 12 8 109v12l-2-2-19-45-20-50-3-6-4-2h-8l-5 5-4 20-9 58-1 8-3-4-12-23-9-20-9-25-6-23-3-16-2-17v-25l2-17 4-17 7-18 9-15 11-14 7-7 8-7 21-14 24-11Z"/><path fill="#f5d245" d="M2036 195h28l20 3 15 4 15 6 16 8 12 8 10 8 13 12 9 11 8 11 9 16 5 11 6 18 3 14 2 18v18l-3 23-6 21-7 16-8 15-12 16-12 13-11 10-13 9-16 9-14 6-20 6-18 3h-34l-22-4-24-8-19-10-14-10-14-12-7-7-11-14-10-16-8-17-6-18-3-15-2-18v-15l2-18 3-14 5-16 5-12 8-15 10-14 9-10 7-8 11-9 11-8 11-7 18-8 15-5 20-4Zm10 27-22 3-17 5-18 8-15 10-13 11-7 7-13 17-10 19-6 18-3 14-1 6v30l3 17 7 21 10 19 10 13 9 10 11 10 15 10 16 8 18 6 16 3 10 1h15l22-3 17-5 16-7 14-9 10-8 10-9 11-13 10-16 6-13 5-15 3-14 1-7v-28l-3-17-5-16-5-12-9-16-9-11-11-12-15-12-13-8-19-8-19-5-17-2ZM1934 1002h26l20 3 18 5 21 9 18 11 11 9 13 12 9 11 9 13 8 14 8 20 5 20 2 15v27l-4 24-5 16-7 16-10 18-13 16-16 16-17 12-16 9-15 6-13 4-15 3-19 2h-11l-19-2-18-4-18-6-21-11-14-10-14-12-11-12-10-14-9-16-5-11-5-15-4-18-2-20v-10l2-19 3-15 5-16 9-20 9-14 11-14 16-16 18-13 21-11 21-7 13-3Zm6 27-20 3-16 5-12 5-16 9-11 9-10 9-11 13-9 14-8 17-5 16-3 16v31l4 20 5 15 8 16 7 11 9 11 13 13 17 12 21 10 20 6 13 2h28l17-3 16-5 16-7 14-9 10-8 7-6 7-8 11-15 10-19 5-15 3-13 2-17v-13l-2-17-4-17-6-15-8-15-12-16-15-15-16-11-17-9-18-6-15-3-9-1ZM2533 608h14l18 2 15 3 21 7 21 11 14 10 10 9 5 5 9 9 10 14 9 16 5 11 6 18 3 14 2 18v16l-3 24-6 21-7 16-10 18-11 14-9 10-8 7-16 12-16 9-11 5-18 6-14 3-18 2h-16l-24-3-21-6-16-7-16-9-16-12-7-7-5-5-7-7-12-17-11-21-6-18-3-11-2-13-1-12v-14l2-18 3-14 5-16 5-12 7-13 9-13 7-9 7-8 8-7 11-9 18-11 15-7 18-6 15-3Zm5 27-18 2-17 4-15 6-15 8-16 12-14 14-11 15-10 19-5 15-4 20-1 11v11l2 18 5 19 7 17 9 15 8 10 9 10 10 9 15 10 16 8 15 5 20 4h31l20-4 17-6 19-10 13-10 11-10 9-11 7-10 10-19 5-15 4-20v-31l-4-20-6-17-7-14-8-12-11-13-7-7-16-12-16-9-19-7-20-4-11-1Z"/><path fill="#f3c561" d="M236 184h7l9 3 10 9 14 19 15 20 12 17 12 17 28 42 15 24 7 11-1 4-32 32-7 8-9 11-9 11-13 17-13 18-15 23-3 3-1-1-8-55-10-58-16-80-14-61-1-10 2-8 4-7 8-6Z"/><path fill="#3c58f4" d="m2919 1660 21 2h32l16-1-3 5-15 16-14 15-16 15-8 8-8 7-16 15-12 11-11 9-15 9-16 7-5 1-1 21 15 3 21 7 15 8 8 8 3 6v11l-4 8-10 12-17 13-9 5-8 2-12 1h-28l-50 4h-7v56l-4 5h-2v68l-2-3-19-42-11-25 3-9 20-45 20-45 20-45 1-1 27-1 5-1 2-5 4-23v-6l-5-5-9-1 4-4 13-10 16-13 11-10 8-7 17-16 15-16 9-10Z"/><path fill="#fff" d="M1107 1625h16l12 2 16 6 13 8 12 11 8 11 7 14 4 15 1 7v13l-3 15-4 12-8 14-12 13-11 8-14 7-13 4-8 1h-16l-14-3-10-3-14-8-12-10-10-13-7-14-4-13-1-7v-19l3-14 5-13 6-10 10-12 13-10 14-7 14-4ZM911 1622h11l16 3 12 4 12 7 11 9 9 10 9 16 5 16 1 7v17l-2 11-5 15-7 12-11 13-12 9-16 8-10 3-7 1h-21l-10-2-12-4-14-8-12-10-10-13-7-14-4-14-1-8v-15l3-14 4-12 7-12 11-13 13-10 12-6 12-4ZM713 1622h10l16 3 12 4 14 8 13 12 8 10 7 14 4 13 1 6v21l-3 14-5 12-5 9-9 11-10 9-10 6-11 5-16 4h-22l-16-4-9-4-11-6-11-9-8-10-9-16-5-18-1-8v-10l3-17 5-13 7-12 10-12 12-9 16-8 15-4Z"/><path fill="#f1c049" d="M2112 565h142l9 4 7 8 2 5v35l-8 262-2 9-6 8-6 4-4 1h-24l-415-17-18-1-9-4-5-5-4-7-1-3-12-257v-23l5-10 9-6 3-1 60-1Zm-160 14-163 1-10 5-6 8-1 4v19l11 230 1 13 4 8 5 5 9 4 417 17h15l7-3 6-5 4-7 1-4 8-263v-14l-3-8-4-5-6-4-3-1Z"/><path fill="#19164f" d="M1887 416h14l12 22 8 11 8 10 6 8-180 5-111 3h-17l-21 1-83 2 5-5 12-11 7-7 27 2 3-9 9-19-2-5 226-6Z"/><path fill="#f2be49" d="M1922 1065h16v29h16v-28l1-1h15l1 1v28l12 1 14 4 9 6 5 5 3 4 3 10v8l-3 8-6 9-10 8-5 3 13 4 10 7 7 10 2 6v16l-4 11-9 10-5 4-14 6-17 3h-5v30l-1 1h-15l-1-1-1-29h-14l-1 29-1 1h-15l-1-30-37-1-1-1v-17l1-1 21-1 1-105h-22l-1-1v-15l2-2h37Z"/><path fill="#ab37ce" d="M2284 1802h361l19 42 1 5-4 1-10-2-10-5-25-16-11-8-5 5-8 11-5 11-2 5h-322l3-9Z"/><path fill="#53c2fc" d="M1222 1057h54l38 18 8 1 2 2v3l5 1 11 5-2 4-1 6v2l7-2 5-5 6 2 40 19 6 3v1h-20l-6 5-3 17-3 25-1 4h-68l-1 5-2 4-6 1-3-3 1-7h-60l-11-2-10-6-6-8-3-8v-62l4-11 7-8Z"/><path fill="#ba3880" d="M265 1482h4l13 43 12 35 13 34 12 28 12 26 13 26 12 21 12 20 11 17 8 12 13 17 10 13 8 10 12 13 11 12 11 12 10 9 10 9 12 11 3 14 6 12 5 5 4 5h-16l-12-5-19-7-29-14-24-15-13-11-10-8-15-16-9-11-10-14-12-20-14-28-8-20-6-18-4-15-3-24v-17l2-16 3-11-15-42-11-38-12-52Z"/><path fill="#479bfb" d="M2233 1350h20l10 4 7 8 3 7v234l-2-2-5-10-6-6v-79l10-6 1-7-4-4h-7l-1-110-5-10-8-6-8-2-122 4-379 13-9 3-5 4-4 7-2 6 1 21 19 245 1 19 3 14 6 8 7 4 4 1 50 1 286 3 9 1 2 7-288-3-69-1-9-3-8-7-5-10v-11l5-5-1-7-6-4-7-88-14-181v-14l3-8 7-8 9-4 12-1Z"/><path fill="#f1cbf7" d="M2165 236h8l22 4 20 6 21 10 11 8 13 11 9 10 11 15 13 21 17 32 14 25 12 19 5 8-106 3h-33l7-26 2-17v-28l-4-24-5-17-7-16-7-13-9-13-8-10-6-7Z"/><path fill="#ea9651" d="M2565 682h16l12 5 8 7 4 5 5 12v16l-5 12-7 8-5 4-12 5h-17l-7 8-1 3v7l2 5 5-1h16l12 5 10 9 5 9 2 8v12l-3 10-6 9-8 7-12 5h-16l-9-3-11-8-7-11-2-6v-18l4-10 2-4-5-6-7-4-4-1-7 11-9 7-10 4-5 1h-8l-12-3-10-7-7-9-4-10v-17l5-12 8-9 11-6 9-2h8l11 3 10 6 8 10 4 11v6l8-4 5-4 6-10-1-4-5-8-3-8v-16l5-12 7-8 5-4Z"/><path fill="#fdf5d5" d="M3198 999h16l10 2 13 5 11 7 6 5 9 12 6 12 3 11 1 7v10l-2 12-3 10-7 12-11 12-8 6-12 6-10 3-7 1h-13l-11-2-13-5-10-6-10-9-7-10-5-10-3-9-1-6v-20l5-17 7-12 10-11 8-6 12-6Z"/><path fill="#4fc5fe" d="M1163 340h15l7 6 1 3v12l-5 83-1 9-4 6-6 3h-93l-7-3-3-4-1-3v-95l4-7 6-3Z"/><path fill="#efd9fb" d="M659 2005h1412v1l-131 4-122 3-161 3-162 2-166 1h-137l-152-1-78-1-95-2-92-3-83-4-33-2Z"/><path fill="#1e1e5e" d="M2907 1094h1v28l-7 294-25-10-18-7 1-51 6-239 1-6h20l12-4Z"/><path fill="#e8d7fe" d="M262 475h1l4 30 4 41 3 46 1 25v47l-1 27-3 35-5 35-4 26h-2l-14-26-9-20-10-26-6-21-4-20-2-14-1-14v-28l3-25 5-24 6-21 10-26 10-22 13-23Z"/><path fill="#f0b44b" d="M2047 265h12l16 3 15 5 15 9 14 13 8 11 8 15 4 13 2 13v13l-3 18-2 2h-27v-67l-5 1-48 48-4 1-8-7-44-44-1 64-6 4h-22l-4-5-2-14v-15l3-16 4-12 9-16 11-13 13-10 16-8 13-4Z"/><path fill="#489dfb" d="M1609 1193h1l12 84v9l-4 7-5 4-8 1-9-4-1 16 11-3h15l11 3 10 5 11 11 7 14 2 12-1 14-4 11-7 10-9 8-12 6-10 2h-10l-13-3-9-5-6-4-4-5 1-11-54-7-10-2 2-18 48 1 1-16 5-44-21-3-22-4v-16l27 3 41 5 13-76Z"/><path fill="#272f79" d="M2262 1851h323v14l3 7 4 5 12 6 9 2v1h-366l7-17Z"/><path fill="#e5896c" d="M407 931h2l-2 42-2 39-1 32-1 6-16 1-99 3h-15l3-21 6-18 7-14 11-15 13-13 12-9 14-8 17-8 27-9Z"/><path fill="#202162" d="m1029 1121 4 4 7 8 9 7 10 5 10 3 7 1h10l11-1-1 9-28 143-3 14-4 3-5-2-10-5-9-2h-14l-11 3-9 4 1-13 24-180Z"/><path fill="#4cb4fd" d="M1089 514h30l4 4 1 3 1 67-3 5-2 2H991l-5-3-2-4-2-46v-19l5-5 6-1Z"/><path fill="#ecc9f9" d="m1895 300 1 2-5 21-2 16v26l3 21 7 24 2 6-14 1-154 4h-26l4-3 22-12 26-16 25-17 16-11 20-14 25-17 17-11 21-13Z"/><path fill="#f7a56f" d="m2911 1415 4 1 5 6 10 7 5 4 4 8 1 4v12l-11 9-13 10 2 10 2 8 11-6 8-1 7 4 4 6v8l-3 5-8 5-7 2h-10l-5-2-3 9-18 39-5 10-4 4-3 1h-13l-11-4-9-7-7-10-4-11v-8l4-9 11-13 5-7-4-2-11-9-4-6-1-10 3-8 13-12 11-9 10-9 11-9 15-13Z"/><path fill="#e5f0fe" d="m1783 1671 6 1 4 4v7l-2 3 301 1 10 25v3l-294-3-50-1-8-3-6-5-4-6-3-14v-6l5-5h15l5 4v10h8l-2-2v-8l4-4Z"/><path fill="#f59369" d="M2780 1382h21l23 5 26 8 29 11 21 9 7 4-5 5-15 13-14 12-14 12-14 12-3 5-1 9 2 7 5 6 12 9-2 4-5 6-11-7-24-14-22-12-6-8-4-11 1-11 3-6-1-12-10-53Z"/><path fill="#d487f2" d="M1623 494h5l6 7 16 1 6-7 5 1 10 5v12l7 7 2 3 12 1 4 10v5l-7 6-2 16 4 2 4 4-1 5-5 10h-12l-10 9-1 12-11 4-5-1-5-6-16-1-6 7-5-1-10-5v-12l-9-10-12-1-4-11 1-5 6-5 1-16-7-7 3-9 3-5h12l7-7 3-2 1-12Z"/><path fill="#eda64e" d="m2006 337 4 1 41 41 4-2 35-35h5l1 46 2 4 32 1-1 7-8 10-8 9-13 10-16 8-14 4-4 1h-26l-16-4-17-8-14-11-11-12-6-10 1-4 24-1 2-5 1-49Z"/><path fill="#f3c647" d="M739 665h30l4 4-2 10-15 46 8-4 6 1 2 3v5l-5 4-15 5-10 30-5 16 2 6 1 1h69l1 4-6 21-2 2H691l-2-1v-7l20-62-4 1-7 5h-7l-3-4 1-5 10-7 16-8 16-50 5-14Z"/><path fill="#fdf5d5" d="M2869 1001h14l12 3 11 6 9 8 6 9 4 10 2 8v13l-3 12-5 10-9 10-8 6-12 5-11 2-14-1-13-5-11-8-7-8-6-12-2-6-1-7v-8l3-14 6-11 6-8 8-6 9-5Z"/><path fill="#683b80" d="M188 1102h8l5 3 4 9 15 37 15 36 10 23 6 84-7-6-8-7-16-16-9-11-8-9-12-16-18-27-3-5v-2l-2-1 9-60 4-23 3-6Z"/><path fill="#427af9" d="m2919 1660 21 2h32l16-1-3 5-15 16-14 15-16 15-8 8-8 7-16 15-12 11-11 9-15 9-16 7-14 5-13 2 2-13v-6l-5-5-9-1 4-4 13-10 16-13 11-10 8-7 17-16 15-16 9-10Z"/><path fill="#facef4" d="m3155 1112 7 6 10 7 15 6 11 3 8 7 28 28-2 9-18 52-19 51-20 51-8 19h-1l1-42v-69l7-15 4-15 1-5v-24l-3-14-4-12-8-15-7-10Z"/><path fill="#c253d2" d="M2479 1654h11l12 3 11 6 18 13 13 11 8 7 13 12 3 4-30-2-35 1-20 2-34 7-52 13-36 10-4-1 7-6h5l13-15 16-17 8-7 11-10 18-13 17-10 17-6Zm-123 87Z"/><path fill="#fff" d="M963 518h12l1 9-62 2-261 7-18 1-15 3-15 5-13 7-10 8-8 11-6 12-4 17-1 15 3 204 2 137v35l-3 2-5-1-1-2-3-193-2-136v-60l2-11 4-13 8-15 8-10 12-9 16-8 11-4 14-3 8-1 103-3Z"/><path fill="#f5d145" d="M3076 1102h21l11 2 15 5 15 8 14 12 10 12 9 17 5 16 1 8v21l-3 14-4 12-9 16-11 13-14 11-16 8-18 5-8 1h-15l-16-3-12-4-15-8-14-11-8-10-7-11-5-10-5-18-1-8v-16l3-15 5-15 8-14 12-14 13-10 15-8 16-5Zm1 16-12 3-12 5-10 6-13 12-6 8-7 13-4 13-1 7v18l3 14 4 10 6 11 11 13 12 9 15 7 10 3 8 1h16l14-3 11-4 13-8 11-10 8-11 7-14 4-16v-21l-2-10-5-13-6-11-9-11-13-10-11-6-13-4-6-1Z"/><path fill="#8dbcfc" d="M1023 1307h14l11 3 13 7 9 10 6 11 2 10v14l-2 9-5 10-6 8-11 8-9 4-10 2h-9l-13-3-10-5-11-10-6-11-3-9-1-12 2-12 4-10 7-9 9-8 10-5Z"/><path fill="#da517d" d="M387 1493h33l59 1 1 18 1 69v59l-4-4-10-15-15-22-13-20-15-24-12-19-13-21-12-21Z"/><path fill="#f5d145" d="M3016 902h17l15 3 16 6 10 6 11 9 11 12 10 18 5 16 1 8v21l-3 14-5 13-8 14-9 11-14 11-15 8-17 5-7 1h-19l-12-2-17-6-12-7-14-12-11-14-8-17-4-15-1-8v-14l3-16 4-12 8-15 12-14 13-10 15-8 17-5Zm5 15-15 3-12 4-13 8-11 10-8 11-6 12-4 16v22l4 16 7 14 11 13 11 9 14 7 15 4 7 1h10l16-3 13-5 10-6 13-12 6-8 7-14 4-14 1-7v-12l-3-15-5-13-6-10-12-13-8-6-14-7-14-4-8-1Z"/><path fill="#8cb7fb" d="M1076 1042h11l12 3 9 5 10 9 6 10 3 8 1 7v12l-4 13-7 11-8 7-11 6-7 2h-19l-10-3-11-7-7-7-6-10-3-11v-18l4-11 6-9 8-8 6-4 11-4Z"/><path fill="#dd565f" d="M728 564h33l15 2 22 5 17 6 23 11 16 11 15 13 5 4 7 8 10 12 12 18 11 23 7 20 5 26 1 11v23l-3 24-6 22-7 18-10 19-9 13-8 10-11 12-13 12-17 12-16 9-13 6-21 7-19 4-18 2h-22l-18-2-28-7-25-10-20-12-12-9-12-11-12-12-12-16-12-20-9-21-6-21-3-16-1-10v-31l4-25 5-17 6-16 11-21 9-13 8-10 14-15 8-7 16-12 18-10 15-7 18-6 18-4Zm1 6-24 4-15 4-20 8-15 8-12 8-10 8-10 9-11 11-13 17-11 19-8 19-5 16-3 14-2 15v31l3 21 7 24 7 16 8 15 9 13 8 10 12 13 10 9 14 10 15 9 15 7 21 7 12 3 24 3h20l18-2 15-3 17-5 21-9 17-10 17-13 12-11 7-8 13-17 11-19 8-19 6-21 3-17 1-10v-23l-3-24-6-22-8-19-8-15-11-16-12-14-10-10-14-11-10-7-12-7-21-9-16-5-20-4-8-1Z"/><path fill="#4488fa" d="m291 1109 4 1 8 7v9l-6-4 26 322 402 2-1-2v-7l5-1v10h168l-4-4v-2h9l9 9-2 4-7 7h-9l2-4 2-2-528-2-46-1 1 5v11l-4 1-2-1-1-4v-12h-21l-1-4 1-2h20l-2-19-24-296-1-7-5 4-1-2v-7Z"/><path fill="#3841f7" d="M2663 1802h56l13 8 6-1 13-7h21l-3 9-18 40-18 41-14 31-2 1-19-42-18-41-17-38Z"/><path fill="#8db8fc" d="M1557 1042h11l12 3 10 5 9 8 8 14 2 7v19l-4 12-7 10-9 8-10 5-6 2h-13l-2-9-13-2-10-1-2-9-2-1-9-1-5-12-1-6v-9l2-10 4-10 8-10 9-7 12-5Z"/><path fill="#fff" d="M829 341h10l20 3 4 10 2 7 101 1 1 1v5l-2 6-9 47-2 4h-78l-3-5-20-68-22-3-4-4Z"/><path fill="#58cefd" d="M1402 1054h14l11 3 9 6 6 8 3 8 1 5v27l-1 4-17 1-2 5-23-3-16-8-34-16-4-1-6 6h-6l-1-6 4-6-9-3-7-3-2-4-10-2-36-17v-1h60l50 1 1 4h6l8-4Z"/><path fill="#1f2061" d="M2934 1376h10l10 4 5 4 5 8 1 10-3 9-1 1 1 7 4 4 2 6 2 2 10 4 6 5 5 10v9l-3 8-6 5-10 4-1 1-1 15-3 5-4 5 9 12 6 11-6-2-15-7-12-5 2-1 2-5v-8l-4-6-6-3-8 1-11 6-3-9-2-10 12-10 12-9v-12l-4-10-5-5-11-8-8-10-3-7v-11l6-8 9-6Z"/><path fill="#161045" d="M1114 996h121l292 2 1 2v13h-46l-309-2h-60v-13Z"/><path fill="#ef9dc1" d="M3216 1458h3v9l-6 38-9 43-13 45-11 31-11 26-11 24-12 22-13 22-19 28-11 14-13 16-9 11-29 29-11 9-12 11-16 12-27 18-23 13-13 7h-23l2-2 19-9 27-16 19-13 14-10 14-11 14-13 8-7 5-5 22-22 9-11 13-16 12-16 14-22 9-14 10-18 12-23 9-19 13-31 13-36 11-35 11-41Z"/><path fill="#458dfa" d="m472 1154 4 1 9 11 11 13 8 10 11 13 11 14 13 15 11 14 13 15 11 14 13 15 11 14 13 15 7 9 5-2 13-10 17-12 19-14 18-13 18-13 14-10 5 1 14 12 10 8 11 9 11 9 11 9 11 9 11 9 11 9 11 9h3l11-9 12-11 11-9 11-10 5-4-17-2-1-1v-7l2-1h24l9 1 2 2-1 25-2 3h-6l-2-3v-14l-12 11-11 9-11 10-11 9-11 10-4 1-9-7-11-9-11-9-11-9-11-9-11-9-11-9-11-9-11-9-8-6-4 2-17 12-19 14-18 13-18 13-19 14-8 6h-5l-9-10-9-11-14-17-11-13-11-14-13-15-11-14-13-15-11-14-13-15-11-14-13-15-4-5-4 2-12 11-11 9-12 11-11 9-12 11-11 9-12 11-11 9-12 11-11 9-12 11-6 5-5-1v-5l10-9 11-9 12-11 11-9 12-11 11-9 12-11 11-9 12-11 11-9 12-11 11-9Z"/><path fill="#f1c7b0" d="M344 473h2l12 21 11 24 11 29 9 27 11 42 7 33 6 35 5 39 3 33 2 30 1 32v52l-3 72-3 62-1 30-1 16h-13l1-38 6-112 2-50v-35l-1-39-3-46-4-39-5-35-8-42-9-38-11-36-10-27-11-25-7-14Z"/><path fill="#dd565f" d="M2043 189h12l20 2 15 3 16 5 12 5 14 7 12 8 13 10 10 9 7 8 12 16 9 16 6 13 6 18 4 20 1 8v28l-2 17-6 23-9 21-9 15-8 11-12 14-11 10-13 10-15 9-15 7-14 5-16 4-12 2-12 1h-16l-18-2-15-3-21-7-17-8-14-9-13-10-12-11-9-11-9-12-9-16-7-15-7-24-3-21v-26l3-21 5-19 7-17 9-16 8-12 9-10 7-8 12-11 8-6 19-12 24-10 25-6Zm-7 6-20 3-15 4-15 6-16 8-13 9-10 8-11 10-7 8-11 15-9 16-5 11-5 15-3 11-2 13-1 12v15l2 18 3 15 7 21 11 21 9 13 12 14 7 7 14 11 15 10 17 8 21 7 22 4h34l22-4 24-8 19-10 17-12 15-14 9-10 11-16 11-21 7-21 3-14 2-17v-18l-3-24-6-21-7-16-10-18-11-14-13-14-11-9-13-9-10-6-16-7-15-5-20-4-8-1Z"/><path fill="#66b2fc" d="m1173 1172 7 4 23 16 23 16 3 2h5l2-1 17 12 18 13 18 13 8 6-5 9-11 16 2 3 1 14-3 4h-6l-3-3-1-3-10 16-2 3-6-2-18-9-2-16-4-8-3-4 3-9 7-18 17 4h4l-44-29-23-16-23-16-3-2 2-5Zm87 80Z"/><path fill="#dd565f" d="M1929 997h35l22 4 16 5 12 5 14 7 11 7 14 11 17 17 11 15 9 15 7 16 5 15 4 19 1 7v35l-3 18-7 23-10 21-7 11-10 13-12 13-10 9-16 11-14 8-20 8-18 5-23 3h-21l-23-3-18-5-15-6-17-9-13-9-10-8-17-17-12-17-9-16-5-11-5-15-3-11-3-24v-20l3-23 6-21 9-21 10-16 9-12 14-15 11-9 11-8 16-9 11-5 18-6 12-3Zm5 5-21 3-23 7-21 10-12 8-13 10-16 16-12 16-9 16-9 22-4 16-2 13-1 13v10l2 20 5 22 7 18 9 17 10 14 12 14 12 11 14 10 16 9 11 5 15 5 18 4 19 2h11l19-2 15-3 16-5 20-9 14-9 13-10 17-17 11-15 9-16 7-16 5-16 4-24v-27l-3-20-5-18-9-21-11-18-9-11-12-13-11-9-13-9-14-8-20-8-20-5-15-2ZM2528 603h24l22 3 18 5 19 8 16 9 16 12 13 12 9 10 12 17 11 21 7 21 3 14 2 16v24l-3 22-5 18-6 15-9 17-10 14-12 14-7 7-14 11-10 7-21 11-21 7-14 3-16 2h-24l-22-3-18-5-15-6-17-9-14-10-14-12-7-7-11-14-11-17-8-17-5-15-4-17-2-16v-24l3-22 5-17 6-16 8-15 8-12 8-10 11-12 10-9 16-11 14-8 14-6 16-5 13-3Zm5 5-18 2-15 3-21 7-19 10-12 8-10 8-8 7-7 8-8 10-11 17-8 17-5 15-3 11-2 13-1 12v14l2 18 3 14 5 16 5 12 8 15 10 14 9 10 5 5 9 9 17 12 21 11 21 7 14 3 18 2h16l24-3 21-6 16-7 18-10 14-11 10-9 7-8 12-16 9-16 5-11 6-18 3-14 2-18v-16l-3-24-6-21-7-16-10-18-11-14-7-7-5-5-7-7-17-12-21-11-21-7-15-3-18-2Z"/><path fill="#9b3980" d="M365 1493h22l12 20-1 3-15 9-19 13-14 12-8 7-9 9-7 8-9 13-7 12h-2l-13-34-10-28v-4l33-16 26-12 20-11Z"/><path fill="#d793bd" d="M265 1482h4l13 43 12 35 13 34 12 28 12 26 13 26 12 21 12 20 11 17 8 12 13 17 10 13 8 10 12 13 11 12 11 12 10 9 10 9 12 11 3 14 1 4-4-2-14-11-11-10-8-7-13-12-8-8-7-8-15-16-13-16-9-12-10-13-16-24-15-25-12-22-13-26-11-25-10-26-11-31-11-38-12-52Z"/><path fill="#4487fa" d="m2220 1008 4 2 6 5v8l-4-2-1-1 4 78 10 186v13h19l424 13v-8h4v8l31 1h14l-3-3v-2h8l7 8-1 4-6 5h-9l3-4-4-1-460-14-26-1v13l-4 1-2-2-1-12-16-1-1-5 2-1 15 1-14-258v-19l-4 4h-2v-9Z"/><path fill="#84236d" d="M1184 1255h6l3 5 1 5 3-1h13l11 4 7 6 5 8 2 7v12l-4 11-5 6-9 6h-2l2 9-4 3-14 5h-6l-3-7-11 3-7 1-3-4-17-50v-5l12-5 5-1-2-6v-5l9-4Z"/><path fill="#458efa" d="M2359 1073h5l14 15 7 8 11 12 9 10 9 10 9 10 11 12 7 8 11 12 9 10 9 10 9 10 3 4 64 12 21 4 7-1 39-26 44-29 15-10 19-12 25-15 28-17 13-8-13-3-2-2v-5l1-1h8l21 4 2 3-2 13-2 8-2 2-5-1-1-1 1-12-14 9-20 12-28 17-21 13-33 22-29 19-44 29-11-1-81-15-5-2-7-8-11-12-9-10-9-10-9-10-11-12-7-8-11-12-9-10-9-10-9-10-11-12-3-4h-2l2 1v8h-4l-1-6-11 9-14 12-13 11-11 9-14 12-13 11-11 9-14 12-7 6h-5l-1-5 11-10 11-9 14-12 11-9 14-12 13-11 11-9 14-12 13-11Z"/><path fill="#4fc6fd" d="m2944 1511 5 1 19 8 11 6 10 21 5 15-1 5-11 9-8 4-8 2h-15l-17-4-16-7-11-6-5-5-3-3 3-9 15-33 5 1h10l11-4Z"/><path fill="#f69c6c" d="m2935 1487 7 1 6 5 2 4v8l-3 5-8 5-7 2h-10l-5-2-3 9-18 39-5 10-4 4-3 1h-13l-11-4-9-7-7-10-4-11v-8l4-9 11-13 5-6 5 2 14 5h9l22-11h2l1-4 8-8 10-6Z"/><path fill="#3840f7" d="m2604 1818 11 7 15 10 18 11 6 2 12 1 18 40v1h-38l-28-3-17-4-10-6-6-8-1-4v-12l4-12 7-12Z"/><path fill="#4691fb" d="m1053 1150 7 1 7 6 2 5v10l-16 113-4 8-7 4-5 1-7-2-5-4-3-7 1-14 15-106 3-8 6-5Z"/><path fill="#aa37cf" d="M2157 1802h109l-9 21-12 27-1 1h-66l-18-40Z"/><path fill="#eda64e" d="M708 1641h13v14l-16 2-12 5-11 8-6 8-5 10-3 12v11l3 12 6 12 6 7 10 7 12 5 4 1h17l13-4 11-7 7-7 6-10 4-11 1-14-3-14v-3l11-5h2l4 13 1 7v11l-3 14-5 12-6 9-6 7-11 8-12 6-12 3h-20l-15-4-13-7-11-10-6-8-6-12-3-9-1-7v-15l2-10 5-13 6-9 9-10 10-7 11-5Z"/><path fill="#f2c049" d="M3083 1140h11l2 2v10l12 1 9 3 1 2-1 9-2 5-7 1-14-3-10 1-4 3 1 6 10 5 19 7 8 6 5 9 1 11-3 9-4 6-9 6-8 3h-4v12l-2 2h-11l-2-2v-11l-13-1-12-4-1-2v-7l3-8 6-1 15 4h12l6-3 1-1v-6l-5-4-20-7-10-6-6-7-2-5v-12l3-7 4-5 7-5 9-3h3v-11Z"/><path fill="#f59368" d="m2979 1472 12 6 27 18 13 10 10 9 7 7 5 8v2l-11 6-24 14-22 13h-2l-7-20-11-23-10-15-4-6 6-6 1-3 1-15 3-3Z"/><path fill="#f2c049" d="M3021 939h10l3 3v9l11 1 9 3 1 6-3 9-1 1h-7l-8-2h-13l-5 3v5l8 5 19 7 10 7 4 6 1 5v10l-3 7-4 6-9 6-10 3-1 11-2 2h-10l-3-3v-10h-8l-12-3-4-2-1-7 3-8 2-2 7 1 13 3h9l7-3 2-5-5-5-10-4-12-4-10-7-4-5-2-6v-9l3-8 5-6 8-5 6-2h4v-11Z"/><path fill="#b243c0" d="M2846 1435h19l19 3-5 6-11 9-10 9-11 9-4 5-2 6 1 10 6 8 12 9-2 4-5 6-11-7-24-14-22-12-6-8-4-11 1-11 5-8 24-8 20-4Z"/><path fill="#458cfa" d="m2016 686 5 1 14 19 14 19 14 19 14 19 14 19 4 5v2l11-9 15-14 8-7 10-9 11-9 15-14 8-7 12 1 43 7-5-5 1-5h5l14 14v5l-10 10-5 1-2-2 1-5 4-4-21-4-30-5-5 1-11 10-8 7-14 12-13 12-8 7-14 12-9 8-2 2 1 3-1 4-3-1v-8l-9-11-10-14-14-19-14-19-14-19-14-19-7 6-44 44-8 7-34 34-1 4h-4l-1-4-27-15-17-10-28-16-7-5 1-4 4-1 27 15 24 14 24 14 4-1Z"/><path fill="#f5d145" d="M3198 999h16l10 2 13 5 11 7 6 5 9 12 6 12 3 11 1 7v10l-2 12-3 10-7 12-11 12-8 6-12 6-10 3-7 1h-13l-11-2-13-5-10-6-10-9-7-10-5-10-3-9-1-6v-20l5-17 7-12 10-11 8-6 12-6Zm6 11-14 3-9 4-8 5-8 7-7 10-4 9-3 14v10l2 10 3 9 7 11 5 6 11 8 12 5 8 2h17l14-4 11-6 9-8 7-10 5-12 2-9v-14l-4-16-6-10-10-11-11-7-11-4-11-2Z"/><path fill="#8dbbfc" d="M1609 1318h10l10 3 10 6 8 11 3 8v17l-3 9-6 8-7 6-8 4-9 2-12-1-10-4-8-6-4-6 2-8 6-41 8-5Z"/><path fill="#eda74e" d="m1494 1081 9 2 6 4 3 4 1 3v8l-3 7 21 3 4 4v7h10l9 1 4 2 2 3v9l-5 4-20-1-100-8-7-1-2-2v-10l2-4 2-1h15l10 1v-8l3-3h12l9 1-3 2h-17l-2 9h3l1-6 2-1 13 1 7 1-1-5h2v-20l5-5Z"/><path fill="#4384fa" d="M2166 1464h18l9 1 1 1v15l-1 7-1 1h-5l-1-1-2 6-5-1v-9l4-2 2 1v-4l-25 16-25 14-36 18-31 13-29 11-38 13-30 9-41 11-42 10-50 10-30 5h-9l-1-1v-5l4-2 47-8 43-9 34-8 48-13 47-15 25-9 28-11 27-12 22-11 14-7 24-14 17-11-12-2-1-1v-5Z"/><path fill="#eca34f" d="M1105 1641h14v14l-16 2-12 5-6 4-6 5-6 8-5 11-2 8v15l4 13 5 9 6 7 8 6 11 5 7 2h16l8-2 10-4 10-8 6-7 4 1 8 6-2 5-7 8-15 10-14 5-6 1h-19l-12-3-16-8-12-11-7-10-5-11-3-13v-17l4-16 7-13 12-13 9-6 11-5Z"/><path fill="#eb9d69" d="M261 791h2l14 25 12 23 6 16 1 5v17l-5 10-6 7-10 7-15 7-11 4 3-44 5-50 3-24Z"/><path fill="#4487fa" d="m1822 619 4 2 4 4v7l-3-2v16l11 203 66 2h14l1-4h3v5h14l74 2h4l54 2 98 3 8 1v-7h3v7h51l-1-3h7l6 7-5 5-2 2h-6l2-4-56-2-328-10-7-1v11l-5-1v-10h-13l-1-5h14l-1-3-11-204-1-12-4 2v-7Z"/><path fill="#18134b" d="m1119 1136 1 4-28 134-7 33-1 2-16 5h-3l2-14 26-132 4-20 16-8Z"/><path fill="#fff" d="M1089 514h30l4 4 1 3 1 67-3 5-2 2H991l-5-3-2-4-2-46v-19l5-5 6-1Zm-5 8-93 3-1 1v20l2 41h125v-20l-1-45Z"/><path fill="#eca24f" d="M905 1641h14v14l-16 2-12 5-6 4-6 5-6 8-5 11-2 8v15l4 13 5 9 6 7 8 6 11 5 7 2h16l11-3 8-4h2l6 11-1 3-14 6-10 2h-19l-12-3-16-8-12-11-7-10-5-11-3-13v-17l4-16 7-13 11-12 8-6 13-6Z"/><path fill="#c58cb3" d="m3017 1256 7 6 7 6 2 26 2 37v66l-2 30-3 28-6 38-2 6-7-4-4-3 3-22 4-30 3-41v-72l-4-65Z"/><path fill="#4692fb" d="M1023 1307h14l11 3 13 7 9 10 6 11 2 10v14l-2 9-5 10-6 8-11 8-9 4-10 2h-9l-13-3-10-5-11-10-6-11-3-9-1-12 2-12 4-10 7-9 9-8 10-5Zm2 11-10 3-9 6-8 9-4 11v16l3 8 6 9 9 7 10 4 11 1 12-3 10-6 8-10 3-7 1-5v-13l-4-11-6-8-8-6-9-4-5-1Z"/><path fill="#1f1f5f" d="M1614 1121h2l25 188v6l-11-5-9-2h-15l-12 3 1-12 1-5 9 3 8-1 5-4 3-6v-9l-12-85 5-30-1-8-4-6-9-3-9-2 4-3 9-7 7-7Z"/><path fill="#fff" d="m1463 312 18 2 16 6 12 8 9 8 10 14 5 11 4 17v19l-4 16-8 16-9 11-9 8-14 8-11 4-11 2h-18l-16-4-10-4-13-9-5-5-7-7-8-14-4-10-2-8v-5h7l4 15 7 14 8 10 10 8 16 8 12 3h21l15-4 11-6 9-7 10-11 8-16 3-12 1-14-3-16-4-10-6-10-6-8-11-9-14-7-10-3-7-1h-14l-14 3-11 5-11 7-9 9-5-2v-4l9-9 14-9 12-5 9-2Z"/><path fill="#eda54e" d="m1173 1172 7 4 23 16 23 16 3 2h5l2-1 17 12 18 13 18 13 8 6-5 9-5 7-5-2v-15l-2-3h-6l-2 3-1 7-11-7-44-29-16-11-20-14-16-11 2-5Z"/><path fill="#3c5bf8" d="M2752 1888h13v56l-4 5h-2v68l-2-3-19-42-11-25 3-9 20-45Z"/><path fill="#fff" d="M1150 365h13l5 5 1 2v61l-4 6-8 2-50 3h-20l-5-5v-64l5-1 1 1 1 62 70-4 2-1v-59h-11l-48 5-1 4 14 19 7 10 3 1 9-11 14-19 3-3 5 1v5l-14 18-10 14-6 3-7-1-7-8-12-17-6-8-1-3v-7l5-5 2-1Z"/><path fill="#3a53f7" d="m1023 1070 4 2 8 7 1 18 4 13 7 10 8 7 10 5 7 2h19l11-4 11-7 8-10 5-13 2-11 4 2 9 9-2 10-8 15-10 11-13 8-10 4-12 2h-10l-14-3-9-4-8-5-10-9-8-11-5-14-2-13 1-14Z"/><path fill="#28307b" d="M2179 1851h65l-2 6-20 45-10 23-3-4-20-45-10-23Z"/><path fill="#3840f7" d="M2780 2105v2h-125l-1 3h6l8 3 5 10h114v-2l-7-16z"/><path fill="#f2c049" d="M3203 1027h9l1 1v8h7l9 3v7l-2 5h-7l-3-1h-12l-3 2v4l8 4 13 5 7 5 3 6v11l-4 8-7 5-9 2v9l-1 1h-9l-1-1v-8l-13-2-6-3v-7l2-5 10 1 4 1h11l4-2v-5l-8-4-13-5-6-4-4-7v-11l5-8 10-5 3-1 1-8Z"/><path fill="#f5d145" d="M2869 1001h14l12 3 11 6 9 8 6 9 4 10 2 8v13l-3 12-5 10-9 10-8 6-12 5-11 2-14-1-13-5-11-8-7-8-6-12-2-6-1-7v-8l3-14 6-11 6-8 8-6 9-5Zm0 9-11 4-8 5-5 5-6 8-4 10-1 6v10l3 12 7 11 9 8 10 5 9 2h11l13-4 8-5 5-4 7-10 4-11v-18l-4-11-6-9-9-8-12-5-4-1Z"/><path fill="#458afa" d="M1606 1307h15l11 3 10 5 11 11 7 14 2 12-1 14-4 11-7 10-9 8-12 6-10 2h-10l-13-3-9-5-6-4-4-5 1-10 5-1 6 7 10 6 12 3 11-1 10-4 6-4 6-7 4-8 1-4v-17l-4-10-6-8-10-6-10-3h-10l-10 3-7 3 1-12 2-3Z"/><path fill="#3f6cf8" d="m1757 1417 5 2 9 8 1 11-4-2-4-3 11 132 8 94v13h-7l-1-3-19-225v-11h-2l-2 4-4 3-1-11Z"/><path fill="#1f2161" d="m1531 710 9 1 2 1-2 6v7l4 4 6 1h2l2-11 6 2 4 5 1 3v35l-1 9h-8l-13-4-9-6-6-5-8-11-6-12 9-19 5-5Z"/><path fill="#1f2060" d="m1113 707 7 1 5 4 9 19-1 5-8 13-9 10-9 6-10 4-5 1h-9v-17l1-29 5-6 5-2 2 7 2 4 7-1 3-3 1-6-2-5v-3Z"/><path fill="#fcdef8" d="m3155 1112 7 6 10 7 15 6 11 3 8 7 28 28-2 9-7 20-5-5-8-10-11-12-9-10-8-7-9-9-11-9-7-6Z"/><path fill="#4dbdfd" d="M1081 1025Zm-1 1Zm-1 1 17 2 11 4 7 8 8 7 9 9 4 2 5 12 2 13-7-6-14-13-7-9-9-7-12-5-6-1h-11l-12 3-8 4-10 9-6 9-4 11-4-1-7-7-2-2 7-14 7-9 7-6 10-6 13-5Z"/><path fill="#479bfb" d="M1793 1680h5l4 5h15l5-3 1-2h7l3 2h10l8-2h238l2 4v3h-302l3-4Z"/><path fill="#4ebdfd" d="M1416 843h13l10 5 6 8 2 6v11l-5 10-7 6-9 3h-7l-11-4-7-8-3-8v-10l4-9 5-5 6-4Z"/><path fill="#fefcfe" d="M1336 508h10l2 2v3l4 1 10 8 1 2-1 2-5-1-10-8-60 2-112 3h-37v-8l12-1Z"/><path fill="#4cb7fd" d="M1206 841h7l8 3 7 5 5 10 1 9-3 10-7 8-5 3-4 1h-12l-7-3-7-6-4-8v-14l4-8 5-5 7-4Z"/><path fill="#6a236d" d="M2578 1802h67l19 42 1 5-4 1-10-2-10-5-25-16-13-9-19-12-6-3Z"/><path fill="#3b54f7" d="M1282 1242Zm1 1 9 2 17 6v11l-14 24-13 23-6 1-1 2v9l-9 15-9-3-30-15 2-5 4-8 1-4 5 1 20 10 2-5 10-15 2 4v2h8l2-3-1-14-2-3 16-24-4-4-9-6Z"/><path fill="#1d1e5d" d="M2341 1745h121l5 5v8l-1 2h-120l-6-14Z"/><path fill="#dd565f" d="M3075 1099h23l14 3 15 5 19 12 10 9 9 12 9 17 5 17 1 7v24l-4 17-7 16-7 11-11 12-11 9-14 8-18 6-12 2h-18l-16-3-14-5-10-5-10-7-12-11-10-14-8-17-4-15-1-8v-18l3-17 6-15 6-11 9-11 8-8 10-7 14-8 19-6Zm1 3-11 2-15 5-16 9-14 12-8 10-9 16-6 21-1 7v16l3 16 4 12 8 15 11 14 10 8 13 8 8 4 18 5 8 1h15l16-3 15-5 14-8 13-11 9-11 10-18 5-17 1-7v-21l-2-11-5-15-8-15-12-14-12-10-17-9-16-5-8-1Z"/><path fill="#52236d" d="M2663 1802h56l15 9-5 5-12 10-18 12-14 7h-3l-12-26Z"/><path fill="#eed9fc" d="M1185 257Zm1 1 6 1 22 9 27 13 21 12 17 11 19 13 18 13 21 16 7 8 2 3-6-2-22-11-24-14-24-15-33-22-43-29-8-5Z"/><path fill="#3f6cf9" d="M2736 2009v98h23v-49l-20-45-3-4z"/><path fill="#4694fa" d="m291 1109 4 1 8 7v9l-6-4 14 174v81h-1l-20-247-1-7-5 4-1-2v-7Z"/><path fill="#fdf4d6" d="M1939 1176h27l10 2 8 5 3 6 1 7-3 8-7 6-10 3h-29l-1-1v-35Z"/><path fill="#d487f2" d="M1458 364h8l9 4 7 8 2 5 1 9-4 10-7 7-8 3h-9l-10-5-6-7-2-6v-11l4-8 7-6Z"/><path fill="#242a71" d="M2891 1756h1v42l-1 16-21-8-20-5-2-1v-13l1-8 21-9 16-10Z"/><path fill="#4074fa" d="m1060 1152 5 3 3 4 1 3v10l-16 113-4 8-7 4h-3l1-12Z"/><path fill="#efbdb2" d="M420 924h1v18l-3 62-1 30-1 16h-13l1-38 4-75 1-7Z"/><path fill="#212467" d="M1197 1264h13l11 4 7 6 5 8 2 7v12l-4 11-5 6-9 6h-3l-15-44-5-15Z"/><path fill="#f1c049" d="M2874 1022h6l2 2v5l9 1 3 2-1 8-1 1-16-1-3 2 1 3 15 6 6 5 2 4v8l-4 7-7 4-3 1-2 7-1 1h-6l-1-1v-7h-7l-7-3-1-5 3-5 11 2 9-1 1-4-5-3-11-4-7-6-1-3v-7l4-7 7-4h4v-7Z"/><path fill="#9c397d" d="m1494 1081 9 2 6 4 3 4 1 3v8l-3 7 21 3 4 4v7l-65-5-10-1 1-6 2-1 13 1 7 1-1-5h2v-20l5-5Z"/><path fill="#3b54f7" d="M1617 1064h2l4 12 1 16-2 13-5 13-7 10-9 9-10 6-13-1-19-3 1-4 13-1 13-5 9-7 6-7 5-10 2-7v-19l-1-6Z"/><path fill="#458cfa" d="M1224 1053h46l122 1-2 2h-3v2h-165l-12 6-6 7-4 11v62l4 10 5 6 12 6 8 1 60 1-1 3h-66l-11-4-7-5-6-9-3-10v-46l1-19 4-10 6-7 10-6ZM2220 1008l4 2 6 5v8l-4-2-1-1 4 78 4 75v31l-1 33-1 5h-1l-11-203v-19l-4 4h-2v-9Z"/><path fill="#fdf5d6" d="M1939 1119h25l10 3 6 5 1 3v9l-4 6-3 3-9 3h-27v-31Z"/><path fill="#3a4df7" d="m1128 1089 4 2 9 9-2 10-8 15-10 11-13 8-10 4-16 2-9-9-7-6v-2l6 1h19l11-4 11-7 8-10 5-13Z"/><path fill="#fff" d="M1632 516h15l11 4 10 9 5 9 2 9-1 13-6 12-7 7-9 5-4 1h-16l-9-3-10-8-6-10-2-9 1-1h6l3 9 5 7 7 5 10 3 11-1 8-4 7-8 4-10v-10l-4-9-7-8-9-4-10-1-10 3-9 7-5-3 1-4 8-6Z"/><path fill="#51d2fe" d="m1563 648 7 1 6 4 2 4v11l-5 6-4 2h-7l-1 11-8 41-3 3-6-1-5-5v-7l18-41 1-3-4-2-3-5v-9l3-5 5-4Z"/><path fill="#4dbcfd" d="m1082 645 9 1 5 4 2 4v10l-4 6-3 1 15 36 4 10-1 6-6 5h-5l-3-5-8-45v-5l-9-1-5-4-2-4v-10l3-5Z"/><path fill="#3841f7" d="M2272 1494h1v109l-2-2-5-10-6-6v-79l10-6Z"/><path fill="#8bb2fb" d="m1053 1150 7 1-1 14-20 133-8-1 1-12 20-134Z"/><path fill="#fff" d="m1460 357 13 2 8 5 7 8 3 8v14l-5 11-7 7-9 4-11 1-8-2-6-3-8-7-4-9-1-5v-10l4-10 7-8 7-4Zm-2 7-10 4-7 8-2 5v11l4 9 7 6 7 3h9l9-4 7-8 3-8-2-12-4-6-7-6-6-2Z"/><path fill="#50ccfd" d="M1561 1028h10l13 3 12 6 10 8 6 7 6 10-2 4-8 7-3-3-7-12-8-7-12-6-10-2h-11l-14 3 4-5 8-7Zm-19 18Z"/><path fill="#363eeb" d="m2728 1942 2 3 4 4 25 1v67l-2-3-19-42-11-25Z"/><path fill="#df5d5d" d="m1308 1262 5 2 13 10 17 12 10 7-1 15-2 4-44-29-7-5 8-15Z"/><path fill="#262d76" d="m1093 716 2 1 2 9 1 1 7-1 2-1-1 35-1 6-13 4h-9v-17l1-29 5-6Z"/><path fill="#cb95bd" d="M265 1482h4l13 43 12 35 13 34 2 5-1 5-4 10-3-3-13-37-11-38-12-52Z"/><path fill="#d93f64" d="M3195 997h22l17 5 11 6 11 9 9 12 6 12 3 10 1 7v15l-2 10-4 11-6 11-9 11-11 8-12 6-16 4h-19l-15-4-12-6-10-8-7-7-7-11-5-13-2-7-1-8v-9l3-16 5-12 7-11 11-11 13-8 10-4Zm3 2-16 4-14 7-13 12-6 9-5 9-4 15v20l3 12 4 9 6 10 8 9 11 8 11 5 9 3 8 1h13l14-3 9-4 9-5 12-11 6-8 5-9 4-14 1-8v-10l-3-14-3-9-6-10-7-9-12-9-12-6-9-3-7-1Z"/><path fill="#fff" d="M1092 527h16l2 3-1 5-1 1-75 2h-34l-1-1v-6l1-1 13-1Z"/><path fill="#4798fb" d="M1609 1193h1l12 84v9l-4 7-5 3-10-65 2-16Z"/><path fill="#49a6fb" d="m1757 1417 5 2 9 8 1 11-4-2-4-3 2 25v93h-1l-9-107v-11h-2l-2 4-4 3-1-11Z"/><path fill="#fff" d="M731 582h29l16 2v4l-16-1h-30l-13 2-18 4-21 8-18 10-18 13-17 17-10 13-11 18-1 2h-4l1-5 11-18 14-17 15-15 17-12 22-12 23-8 19-4Z"/><path fill="#f1c3b1" d="M413 849h2l7 12v2h2l-2 58-2 4-9 5h-2l1-30 2-50Z"/><path fill="#f47b60" d="m2935 1487 7 1 6 5 2 4v8l-3 5-8 5-7 2h-10l-6-3-4-6v-5l9-9 10-6Z"/><path fill="#3840f7" d="m1224 1228 9 5 27 18-4 1-18-5-2-1-1 5-8 20h-3l-10-5-4-1 1-6 12-30Zm36 24Z"/><path fill="#4db9fc" d="m1058 1032 4 2 8 7v3l-13 5-12 11-6 10-3 9-4-1-7-7-2-2 7-14 7-9 7-6 10-6Z"/><path fill="#fff" d="M2044 205h13l18 2 3 1-1 4-19-2h-15l-17 2-17 4-17 6-18 10-15 11-14 13-13 17-9 15h-4l1-5 11-17 13-16 13-12 17-12 17-9 21-7 21-4ZM2527 619h26l14 2v4l-13-1h-29l-25 5-17 6-18 10-15 11-7 7-6 5-11 14-12 19h-3l1-6 10-16 14-17 8-7 8-7 13-9 15-8 19-7 19-4ZM1941 1012h13l18 2 2 1-1 4-18-2h-16l-21 3-15 4-14 5-18 10-15 11-10 10-5 5-11 14-9 15h-4l2-6 10-16 11-13 14-14 19-13 15-8 21-7 21-4Z"/><path fill="#db6c5a" d="M1458 1105h12l9 1-3 2h-17l-2 9 5 1v3h2l1 6h2l1 6h2v2h-10l-32-3-2-2v-10l2-4 2-1h15l10 1v-8Z"/><path fill="#4dbbfd" d="m1822 619 4 2 4 4v7l-3-2v16l4 74v22l-1 48h-1l-8-148-1-12-4 2v-7Z"/><path fill="#161046" d="m1554 719 6 2 4 5 1 3v35l-1 9h-8l-6-2v-41h2Z"/><path fill="#f2dafb" d="M1634 536h11l6 4 3 5v10l-4 7-5 3h-10l-7-4-3-6v-10l4-6Z"/><path fill="#1f2162" d="m1171 1165 10 2 17 12 23 16 14 10v5l-1 1h-5l-23-16-23-16-9-6-4 4-6 9-5-3 7-11Z"/><path fill="#1d1c59" d="M2194 1886h34l-1 5-15 34-3-4-15-34Z"/><path fill="#3f6cf8" d="M311 1308h1l11 137h-7l-2-19-3-37Z"/><path fill="#bc236d" d="M1206 1304h2l9 26-1 4-9 4-8 3h-6l-5-12-1-6Z"/><path fill="#a38db3" d="M3056 775h2l-1 6-7 16-7 19-8 28-5 21-7 34h-7l1-9 9-38 8-26 8-22 9-20Z"/><path fill="#1e1f5f" d="m2211 1967 3 4 14 32v2h-34l10-23 6-14Z"/><path fill="#1c1c59" d="m2717 1967 3 3 15 34v1h-34l3-9ZM1213 1265l8 3 7 6 5 8 2 7v12l-4 11-5 6-4 2-1-12-1-3-1-16-2-7-2 2-2-4Z"/><path fill="#93236d" d="M1198 1280h2l7 21-1 4-18 18h-2l-7-21 1-4Z"/><path fill="#b48cb3" d="m3002 1079 11 1 1 4 3 46-8 10-3 3-2-19Z"/><path fill="#3e66f9" d="m1060 1152 5 3 3 4 1 3v10l-12 84h-1v-31l2-60Z"/><path fill="#f8e142" d="m1143 1149 6 2 21 12 2 2-12 17h-3l-10-9-11-9-1-4Z"/><path fill="#4dbbfd" d="m2220 1008 4 2 6 5v8l-4-2-1-1 1 23v61l-1 27h-1l-5-92v-19l-4 4h-2v-9Z"/><path fill="#4ec0fd" d="m291 1109 4 1 8 7v9l-6-4 1 13v82h-1l-7-87-1-7-5 4-1-2v-7Z"/><path fill="#3e62f8" d="M2799 2107h40l4 2 1 2v12l-1 1h-6l-3-6-2-1h-6l-3 1-1 6-16-1-7-14Z"/><path fill="#52d4fe" d="m1082 645 9 1 5 4 2 4v10l-4 6-4 1-2-6-2 2v6l-8-1-5-4-2-4v-10l3-5Z"/><path fill="#f6996b" d="m2338 1714 4 2 8 8 13 8 2 2-9 8-9 3h-8l-9-20Z"/><path fill="#fff" d="M3075 1107h23l6 2-1 4h-28l-15 4-10 4-11 7-10 9-8 9-6 10-5 1 1-6 7-11 11-12 14-10 15-7Z"/><path fill="#dd555f" d="M2871 999h10l14 3 13 7 10 10 7 12 3 9 1 7v9l-2 10-4 11-8 11-9 8-13 6-7 2h-19l-13-4-10-6-10-10-6-10-4-12v-20l4-12 7-12 8-8 12-7 9-3Zm-2 2-14 4-10 6-6 5-7 10-4 8-3 14v8l2 10 5 12 8 10 10 8 12 5 11 2 14-1 13-5 9-6 8-8 6-10 3-9 1-6v-13l-4-14-5-9-8-9-9-6-9-4-9-2Z"/><path fill="#db5079" d="M387 1493h33l19 1-4 3-19 9-16 9-4-5-9-16Z"/><path fill="#fff" d="M3013 907h21l7 2v4h-27l-16 4-16 8-9 7-6 5-10 14-3 5h-4l1-7 7-10 9-10 8-7 14-8 14-5Z"/><path fill="#4590fa" d="M1766 1470h1l5 59v92h-1l-5-59Z"/><path fill="#f0b94a" d="m1523 1122 22 1 9 1 4 2 2 3v9l-5 4-20-1-3-1v-2h-2l-1-6h-2l-1-6h-2Z"/><path fill="#4381f9" d="M1617 1064h2l4 12 1 16-2 6-13 12-7 7-2-1 5-8 3-10v-19l-1-6Z"/><path fill="#4cb5fd" d="M901 369h26v21h-26Z"/><path fill="#1b1954" d="M2713 1889h16v12l-10 22-2 1-15-33v-1Z"/><path fill="#3846f7" d="M865 1283h24l9 1 2 2-1 25-2 3h-6l-2-3 1-18h-16l-10-1-1-1v-7Z"/><path fill="#f4d2ae" d="M344 473h2l12 21 11 24 11 29 7 21-1 5-3 4-3-8-11-35-11-28-9-20-6-12Z"/><path fill="#4cb2fd" d="M901 398h26v19h-26Z"/><path fill="#4cb3fd" d="M867 369h26v21h-20l-6-19Z"/><path fill="#fff" d="M1388 1120h15l18 2 1 5-3 1-19-2h-9l-5 3-3 6-4 33-1 5-4 1-1-1 1-17 3-24 5-8Z"/><path fill="#6f236d" d="M1184 1255h6l3 5 1 5-20 20-2-3-5-15v-5l9-4Z"/><path fill="#3d61f8" d="M2233 1191h1l5 93v13h-6l-2-36v-24l1-33Z"/><path fill="#e88b54" d="m1461 1117 21 1 5 1v3h2l1 6h2l1 6h2v3h-10l-12-1-3-1v-2h-2l-1-6h-2l-1-6h-2Z"/><path fill="#8cb8fb" d="M1603 1231h1l9 60v6l-8 1-6-40 1-13 2-12Z"/><path fill="#427df9" d="m1023 1070 4 2 8 7 1 18 4 13 2 5-4-2-13-13-4-2-1-12 2-13Z"/><path fill="#b7e1fe" d="M1071 548h7l2 4-2 2-53 2h-26l-1-4 1-1 9-1Z"/><path fill="#4fc5fd" d="m1757 1417 5 2v84h-1l-5-59v-11h-2l-2 4-4 3-1-11Z"/><path fill="#262d75" d="M1528 711h2v38l-1 9-5-5-8-13-2-6 11-21Z"/><path fill="#fff" d="M3198 1002h16l5 1 1 4-1 1h-21l-16 5-12 7-9 9-7 11-5-1 2-6 8-11 9-8 10-6 10-4Z"/><path fill="#3f69f8" d="M1831 738h1l5 93v18h-4l-1-3-2-37v-67Z"/><path fill="#4db6fd" d="M935 369h22l-1 9-2 11-1 1h-18Z"/><path fill="#427ef9" d="m1128 1089 4 2 9 9-2 10-8 15h-4l-6-6-3-2 5-8 4-13Zm-11 29Z"/><path fill="#3846f7" d="M2743 1091h8l21 4 2 3-2 13-2 8-2 2-5-1-1-1 1-11 1-5-20-4-2-2v-5Z"/><path fill="#4aa9fc" d="m1600 1042 4 1 8 9 6 10-2 4-8 7-3-3-7-12-7-6 1-3Z"/><path fill="#22276b" d="M1106 725h1l-1 35-1 6-10 3 1-30 1-12h6Z"/><path fill="#18144c" d="m1120 709 5 3 9 19-1 5-8 13-5 6h-1v-17Z"/><path fill="#212265" d="m2857 1435 17 1 10 2-5 6-11 9-10 9h-1Z"/><path fill="#fff" d="M1932 1647h7l5 5v6l-4 5-10 3h-6l-5-4-1-6 3-5 7-3ZM1904 1654l7 1 3 4v7l-5 5-8 2h-7l-5-4v-8l4-4Z"/><path fill="#50ccfd" d="M1081 1025Zm-1 1Zm-1 1 9 1-3 1 7 8 9 8-2 1-12-3h-16l-7-7-4-4 7-3Zm22 19Z"/><path fill="#fff" d="m1963 1638 6 1 4 4v7l-5 5-10 3-6-1-4-4v-7l5-5ZM1870 1661h10l4 4v8l-4 4-10 2-8-1-3-4v-7l5-5Z"/><path fill="#e57d56" d="M3138 1053h2l1 22 3 12 4 9 6 10 7 8 11 8 11 5 9 3 8 1h13l14-3 9-4 6-3h3v2l-14 7-16 4h-19l-15-4-12-6-10-8-7-7-7-11-5-13-2-7-1-8v-9Z"/><path fill="#fff" d="M1811 1669h7l5 4 1 6-3 5-4 2h-15l-4-5v-6l5-5ZM1990 1629h8l4 4v7l-5 5-8 3h-7l-5-5v-6l4-5ZM1838 1666h12l4 4v7l-5 5-6 1h-10l-4-4-1-5 2-5 3-2ZM2019 1618h7l4 3 1 7-3 5-10 4h-8l-4-4v-7l5-5ZM2047 1606h7l5 5-1 7-4 4-9 4-7-1-3-3-1-6 3-5ZM1783 1671l6 1 4 4v7l-4 4-2 1h-15l-4-4v-8l4-4ZM1742 1672h15l5 4v8l-4 4h-17l-4-5v-6ZM1711 1671h15l5 4 1 7-4 5-5 1-11-1-5-4-1-4 3-7ZM2075 1593h7l4 4v8l-6 5-7 3h-6l-5-5 1-8 8-5ZM1681 1668h8l9 2 3 3v8l-5 4h-8l-9-2-3-4v-6ZM1654 1663l12 2 5 5v6l-5 5h-7l-9-2-4-4v-7l4-4Z"/><path fill="#4cb4fc" d="M1549 697h2l4 15-1 11-2 7-6 1-6-4-1-2v-7l9-20Z"/><path fill="#fff" d="m1622 1657 9 1 7 3 3 4-1 7-4 3h-7l-10-3-3-4v-6l3-4ZM2103 1579l7 1 3 3 1 5-3 6-10 5h-7l-4-4v-7l5-5ZM1593 1649l10 2 5 2 3 4v6l-3 4-7 1-12-4-2-3v-8l3-3ZM2129 1565h7l4 3v8l-5 5-8 4-7-1-3-3v-8l6-5Z"/><path fill="#4fc4fd" d="m1091 1029 8 1 9 4 6 7 8 7 9 9 4 2 5 12-1 2-8-7-9-9-8-7-9-9-8-7-3-3Z"/><path fill="#222569" d="M1531 710h6v25l-1 29-7-5 1-48Z"/><path fill="#4383fa" d="M1049 1151h3l-1 14-9 60h-1l1-47 1-23Z"/><path fill="#fff" d="M1561 1640h9l9 4 3 4v6l-4 4h-8l-10-4-2-3v-8ZM1534 1628l9 1 9 5 1 2v8l-4 3h-7l-10-5-3-5 1-6Z"/><path fill="#4694fb" d="M1827 664h1l3 56v22l-1 48h-1l-3-55v-52Z"/><path fill="#406ff9" d="M1402 1054h14l11 3 9 6 6 8 3 8 1 5v27l-1 4h-3l-1-33-4-10-7-8-12-5-16-1Z"/><path fill="#fff" d="M1506 1615h8l9 5 2 2 1 6-3 5-2 1h-7l-10-6-2-3v-6Z"/><path fill="#1c1b57" d="m1114 707 6 1v30l-1 18-6 5h-1l1-45Z"/><path fill="#fff" d="M2155 1550h8l4 4v6l-4 5-10 5-6-1-3-3v-8l6-5Z"/><path fill="#19154f" d="m1554 719 3 1v53l-7-2v-41h2Z"/><path fill="#b7e0fe" d="M1033 558h19l1 5-3 2-50 1-2-4 2-2Z"/><path fill="#fff" d="m1456 1582 6 1 9 6 2 4-1 7-4 3-7-1-10-7-1-8 3-4ZM2184 1534l6 1 3 3v8l-8 6-3 2h-8l-4-4v-6l4-5ZM1481 1599l7 1 10 7 1 7-4 5h-8l-10-7-1-1v-8ZM2869 1003h15l3 1v4l-3 1h-14l-8 2-10 5-10 9-5 8-5-1 1-5 9-11 9-7 13-5Z"/><path fill="#252b72" d="M1197 1264h5l2 9 1 9 1-12h1l1 11 2 12 2-2 2 9v21l-2-3-18-52Z"/><path fill="#fff" d="M1430 1564h7l10 8 1 2v7l-3 3-6 1-7-4-6-7v-6ZM2208 1519h7l4 3 1 4-3 7-11 6-6-1-3-3v-8l8-6Z"/><path fill="#4280fa" d="M307 1259h1l3 37v81h-1l-3-37Z"/><path fill="#4aa8fc" d="M298 1148h1l3 37v81h-1l-3-37Z"/><path fill="#eb9a50" d="m1487 1119 17 1 2 1 1 6h2l1 6h2l1 6-15-1-3-1v-3h-2l-1-6h-2l-1-6h-2Z"/><path fill="#3b56f7" d="m1622 1097 1 4-7 7-8 7-9 9-8 7-9 9-4 2-19-3 1-4 13-1 13-5 9-7 16-15Z"/><path fill="#18144c" d="m1223 1270 5 4 5 8 2 7v12l-4 11-3 2-1-12-2-12-1 7h-1l-1-16-1-8Z"/><path fill="#191651" d="M1115 1139Zm-2 1 2 1-10 19-13 25-2 1 2-13 5-25Z"/><path fill="#fff" d="m2236 1503 6 1 3 2 1 5-2 5-9 6-7 1-5-4v-7l4-4ZM1407 1544h6l10 8 2 6-2 5-3 2h-6l-8-7-3-4v-6Z"/><path fill="#a4236d" d="m2960 1501 4 2 10 14 4 8-6-2-15-7-12-5 2-1 2-5 1-2Z"/><path fill="#4382fa" d="M1048 1234h1v35l-1 25-6 3h-3l1-12 7-47Z"/><path fill="#489ffc" d="M1030 1222h1v21l-1 37-1 15-5-5-2-5 1-14Z"/><path fill="#3f6ef9" d="m1060 1152 2 1-1 50-1 32-3 21h-1v-31l2-60Z"/><path fill="#3d61f8" d="m1118 1118 4 1 7 7-3 5-9 8-5 1-10-9 5-4 8-6Z"/><path fill="#ad236d" d="M1206 1304h2l3 8-1 4-18 18h-2l-3-8 1-4Z"/><path fill="#4797fb" d="M1034 1194h1v28l-2 63-2 11-2-1v-15l2-65Z"/><path fill="#fff" d="M2261 1488h6l5 5-1 7-11 7h-6l-4-3-1-5 2-5ZM1385 1523h7l8 7 2 3v7l-3 3-5 1-5-3-7-7-1-5 2-5Z"/><path fill="#29327e" d="M1089 718h1v40l-1 12h-6v-17l1-29Z"/><path fill="#4695fb" d="M1521 1066Zm-1 1 1 2-3 9-1 7v9l3 12 2 5h-8l-5-1 3-8v-8l-3-6-6-4 6-7Z"/><path fill="#fff" d="M1365 1500h7l9 10v8l-4 3-7-1-8-9-1-6 2-4Z"/><path fill="#c89bbd" d="M265 1482h4l13 43 2 9-6 3-3-9-10-44Z"/><path fill="#458bfb" d="M1042 1156h1v22l-1 36-1 18-3 20h-1v-16l2-75Z"/><path fill="#417afa" d="M1053 1198h1l-1 49-1 37-2 7-2 2v-61Z"/><path fill="#fff" d="M2288 1473h6l4 4v6l-6 5-5 3h-8l-3-4 1-7 9-6ZM1346 1476h7l5 5 4 6v6l-4 4h-6l-7-8-2-3v-7Z"/><path fill="#a0236d" d="m1203 1293 2 2 2 9-19 19h-2l-3-10Z"/><path fill="#4cb3fd" d="M935 398h17l-3 17-1 2h-13Z"/><path fill="#fff" d="m1331 1450 6 1 7 10 1 4-2 5-3 2-6-1-3-3-5-8v-6Z"/><path fill="#4cb1fd" d="M876 398h17v19h-12l-5-15Z"/><path fill="#489dfb" d="m1032 1053 4 2 7 7-5 10-2 7-4-1-7-7-2-2 7-14Z"/><path fill="#4ec0fd" d="m1584 1032 9 3 8 6-6 7-5 3-12-6-5-2 5-6Z"/><path fill="#3847f7" d="M2224 718h5l14 14v5l-10 10-5 1-2-2 1-5 7-7-11-11Z"/><path fill="#fff" d="m2315 1458 7 1 2 2v8l-9 6-2 1h-6l-4-3v-7l8-6Z"/><path fill="#1c1b58" d="m1543 730 7 1v40l-7-2Z"/><path fill="#fff" d="M1314 1424h7l4 4 4 8-1 7-2 2h-7l-4-4-4-8 1-7Z"/><path fill="#4175f9" d="M1300 1168h68v4h-69Z"/><path fill="#fff" d="m941 433 6 1 5 5v7l-5 5-6 1-5-3-2-2v-9l4-4ZM888 433l7 1 4 5v7l-4 5-7 1-6-4-1-2v-7l4-5Z"/><path fill="#3b57f7" d="M316 1370h1l6 75h-7Z"/><path fill="#489cfb" d="M1122 1066Zm1 1 8 6 11 11v14l-2 2-10-10-2-1-3-15Z"/><path fill="#fff" d="M2342 1444h6l3 3v7l-5 4-6 3h-7l-3-3v-6l4-4ZM1302 1396l7 1 4 6 2 5v6l-4 4-6-1-3-3-4-10 2-6Z"/></svg>