<svg xmlns="http://www.w3.org/2000/svg" display="block" viewBox="0 0 3438 2292"><path fill="#c883f7" d="m1501 1059.5 998.9-229-44.2 1152.5-1655.5-71.8Z"/><path fill="#8a236d" d="m1454 253 11 1 1 4 1 23v19l11 3 57 21 52 19 36 13 18 6 34 9 50 10 58 11 40 10 43 13 15 4 8-12 14-19 13-15 5-6 1-7 1-2-4-33v-4h-7l-6-4-2-6v-9l3-9 7-6 6-2 8 1 2 1 1-5 4-5 7-5 3-1h12l16 8 12 9 10 10 5 10v2l2-1h47l24 3 25 7 19 8 10 5 10 7 10 9 7 11 2 7 1 14-4 14-8 14-9 11-11 12-5 4-4 5-14 11-12 7v13l3 31 5 30 7 30 6 19v5h2l8 18 5 15 3 13 1 9v10l-2 11-4 8-2 3 11 2 20 6 21 8 22 10 19 11 15 10 11 8 14 11 12 11 8 7 14 15 11 14 10 13 11 17 10 17 12 26 8 21 8 28 4 20 3 23 1 15v32l-3 31-5 26-7 25-9 24 1 6 10 17 30 1 6 4 4 5 1 3v26l-3 7-6 5-3 1h-14l-2 23-3 20-7 31-13 37-16 33-13 21-7 10-10 13-10 13-20 20-5 5-14 13-13 10-27 18-22 12-22 10-18 7-24 7-22 5-27 4-10 1h-51l-26-3-29-6-27-8-21-8-24-11-26-15-16-12-11-8-14-12-12-11-10-10-7-8-7-8-10-13-10-14-11-18-10-19-9-19-8-21v-2l39-1 12-5 8-7 6-11 1-4 1-110h528l2-5 12-27 12-36 7-36 2-21v-44l-2-18-4-24-7-27-11-30-12-25-16-26-16-21-7-8-9-10-5-6-8-7-13-12-19-14-14-9-16-10-23-11-32-12-27-7-5 1-20 12-19 12-13 10-12 11-9 12-5 11-13 40-11 30-11 25-7 13-10 15-6 7h-7l-12-3-5-2-3 10v7l1 2 3 1h10l6-5-1 9-5 9-6 7-11 8-14 7-19 6-11 2h-13l-3-3 1-8 6-8 4-4 4-13 7-10 9-10 11-11 5-4 4 1 2 1h8l6-35 8-46 8-37 7-21 11-25 9-16-26 11-24 13-10 9-6 12-2 9v20l4 22 8 25 11 26-5 5-12 7-10 3-5-1-8-13-10-18-8-16-9-19-9-25-5-19-2-14v-14l3-14 4-8 6-7-299-1v10l-3 21-6 18-8 16-12 16-13 13-16 11-16 8-13 4h-2l3 65v20l-44 1h-21l2-54 1-25 1-7-12-3-19-9-13-9-12-11-8-9-10-15-7-15-5-16-2-12-1-18-371 1 24 11 23 13 19 13 17 14 8 7 16 15 9 10 9 11 12 16 12 19 14 26 10 24 9 30 5 24 3 22 1 15v29l-2 23-4 25-7 28-3 11 12 22 6 10v2h2v-2l9-1 5 6 2 3 1 6 19 1 6 4 4 5 1 3v27l-3 6-6 5-3 1h-14l-1 18-4 26-1 3h-29l-1 5-3 1-12-2-13-5-10-6-13-3h-9l-9 4-6 7-15 40-16 41-12 30-9 20-5 11v7l4 4 25 10 40 13 7 1 3 16 4 34 5 62 5 83 2 40v12l-1 1-11 1-7-1-3-8-13-54-18-82-9-42-1 1-4 39-6 82-4 65-7 3h-15l-1-1-2-39-4-108-1-32v-19l-23 11-31 11-27 7-32 5-26 2h-23l-32-3-25-4-31-8-34-13-28-14-24-15-16-12-9-7-10-9-12-11-10-10-7-8-10-12-14-19-14-23-10-19-9-20-9-25-8-31-5-32-1-19h-23l-8-5-3-6v-29l4-7 7-4 44-1 16-21 7-10-10-30-7-29-4-27-1-16v-29l2-23 5-29 7-27 11-29 11-23 16-26 15-20 9-11 8-8 7-8 13-12 12-10 19-14 25-15 26-13 31-11 27-7 26-4 25-2h18l1-10 5-12 9-10 10-6 11-3h10l12 3 9 6 5 4 6 9 3 8 405 1 2-9 8-16 7-11 12-14 10-9 15-10 15-7 21-6h2l1-32 11-269Z"/><path fill="#e3c9fd" d="M1187 245h44l38 3 39 6 33 7 32 8 40 12 36 12 3 1v23l-10 245-1 8-23 7-16 8-11 7-14 12-11 13-9 15-6 14-2 6H944l-7-14-4-5-10-7-9-3-5-1h-10l-13 4-9 6-7 8-5 12-2 10-43 3-30 5-29 8-27 10-28 14-24 15-18 14-11 9-7 7-8 7-11 12-10 12-14 19-17 28-13 28-9 25-7 28-5 33-1 15v29l2 23 4 25 8 31 7 20 1 3-14 19-10 13-44 1-7 4-3 6v29l3 6 7 4 23 1 3 26 5 29 8 30 10 27 16 33 10 16 7 11 14 18 8 10 16 17 8 8 8 7 13 11 14 10 10 7 22 13 26 13 32 12 36 9 27 4 25 2h23l26-2 36-6 29-8 27-10 19-9h2l2 51 3 83v21l-17 75-2 9-15 67h-1l-1-176-4-2-8-3-6-1H778l-12 3-4 5v448l4 6-44 1h-47l-5 4-8 2H474l-10-3-5-5v-39l-10-3-29-13-23-12-21-13-20-14-16-13-10-9-12-11-15-16-9-11-13-18-10-16-10-18-10-22-9-25-7-28-4-25-2-21v-43l2-22 4-26 7-30 9-29 10-26 16-35 10-19 10-18 15-24 8-12 12-17 1-3-11-27-12-34-12-41-6-27-3-18-1-10v-31l3-15 8-16 8-7 8-4 13-3h22l25 5 14 4-11-12-8-10-11-13-14-19-14-18-12-18-10-15-17-28-14-27-8-16-10-24-10-28-8-31-5-30-2-25v-31l2-23 3-21 6-27 9-30 14-34 11-23 13-23 11-18 10-15 13-18 9-11 12-14 22-22 16-12 10-7 19-11 20-8 21-5 23-4 27-3 53-3-27-9-16-8-11-7-8-7-12-17-4-8-2-12 3-7 3-3 9-3 6-1h14l22 3 3 1-1-5 1-16 4-13 5-10 6-8 8-8 13-8 16-5 7-1h19l20 4 19 7 7 3 6-9 7-7 14-9 11-5 13-4 10-2h22l16 4 12 5 11 7 13 11 10 11 12 18 8 13 4-6 6-5 13-4 17-1 15-10 23-16 25-16 14-9 25-15 27-15 21-10 19-8 24-9 28-9 24-6 26-5 23-3Z"/><path fill="#4eb8fd" d="M2303 196h66l42 3 34 4 32 5 34 7 29 8 27 8 24 5 29 8 32 10 17 7 8 3 16 7 28 13 24 14 13 8 19 13 11 8 13 11 14 11 12 12 8 7 5 6 1 5 6 2 13 15 9 12 12 17 10 16 12 21 14 28 11 27 11 33 7 25 3 13v5l6-1 15 13-1 8-3 8 1 4 8 15 1 3 16 4 2 6 1 18-15 7-5 16-2 7 8 13-1 4-11 13-1 2-7-1-1 14-4 28-10 41-15 40-15 32-12 21-13 21-13 19-12 16-11 13-7 8-14 15-13 12-16 15-11 9-13 11-14 11-13 11-14 11-13 11-11 9-11 10-8 7-14 14-8 7-9 10-12 13-12 14-12 15-12 17-12 17-16 27-12 20-23 47-17 43-11 34-11 41-12 61-7 60-2 29-2 45-3 6-5 3h-63l-90-1-24-5-38-10-24-8-4-5-1-2-4-159v-24l14-11 12-11 5-5 21-21 9-12 10-13 9-14 12-20 15-31 12-35 8-36 4-34 1-4 14-1 7-4 3-4 1-4v-26l-3-6-5-4-2-1-30-1-6-9-6-11 1-6 10-28 6-23 4-22 3-31v-32l-2-23-4-26-6-24-8-24-9-21-8-16-12-21-14-20-13-16-9-10-11-12-10-9-14-11-14-11-16-10-10-6-12-7-27-12-30-10-15-4 2-5 4-10 1-7v-10l-2-14-5-18-9-21v-2h-2l-5-17-7-27-5-26-4-32-1-13v-13l16-10 13-11 5-6 5-4 7-8 9-11 9-16 3-12-1-14-3-9-8-11-9-8-11-7-23-10-24-7-17-3-11-1h-49l-5-11 11-9 22-14 11-7 27-15 25-12 28-11 27-9 37-10 42-8 29-4 33-3Z"/><path fill="#c983f6" d="M2621 209h87l45 3 35 4 41 7 34 8 35 11 33 14 22 11 19 12 16 12 14 12 10 8 7 8 14 14 12 16 9 12 13 21 8 16 8 17 10 29 6 28 3 29v38l-3 30-5 29-7 28-11 35-13 36-15 36-24 56-16 38-15 40-12 38-7 28-5 29 1 5 12 19 15 26 12 23 8 16 10 21v3l12-2h23l15 3 17 7 11 7 11 9 11 12 10 15 8 16 5 14 5 19 2 13 1 13v23l-3 24-4 17-6 19-9 21-7 16-7 21-4 17-3 26v23l2 18 4 21 6 22 22 1 10 2 15 6 13 10 9 11 10 19 4 15 2 24-2 21-6 23-9 21-11 17-11 14-9 11-8 13-8 16-4 10-5 17-3 19-1 31-2 19-5 25-8 25-9 20-8 15-8 12-11 15-9 10-7 8-13 12-16 12-16 10-19 9-19 7-16 7-20 13-14 10-16 7-12 3h-20l-12-3-12-6-4-3-2 13-4 7-8 6-6 2h-180l-8-3-6-5-3-5-1-4v-833l10-11 7-8 12-13 11-12 8-7 14-14 8-7 14-12 14-11 13-11 10-8 16-13 11-9 14-12 8-7 12-11 17-16 11-12 11-13 10-13 12-17 11-17 16-27 9-17 12-27 13-35 10-41 6-42 7 1 2-4 10-12-1-4-7-12 3-9 4-14 15-7-1-18-1-5-16-4-10-19-1-4 4-11v-5l-14-12h-6l-7-29-9-30-10-27-10-23-14-28-13-22-13-19-12-16-11-13-4-5-5-2-4-8-8-8-8-7-8-8-14-11-13-11-24-16-10-7-28-16-16-8-28-13-10-3-8-4-16-6-36-11-28-7-22-5-41-12 4-2 46-4Z"/><path fill="#e9cbfb" d="M969 683h374l3 25 4 15 5 13 7 13 12 16 10 10 14 10 17 9 17 6-2 56-1 24-1 6-32 1-105 2-26 1-11 4-8 6-6 8-3 9-1 11 18 191 1 7 4 1 2 44v22l4 42 3 10 5 8 9 8 4 2 17 2h27l8-1h10l1 1 64 1-2 55-20 489-1 16h-177l3 13 35 185 13 69v9l-4 3h-6l-4-4-14-73-8-42-287-1v51h-12l-2 12-12 53-4 4h-6l-4-3v-9l13-57H774l-8-4-5-6v-448l5-6 12-3h181l12 3 6 4 1 2 1 169 14-62 2-9 17-75 2 4 2 39h15l6-2 7-109 5-60 3-23h1l18 84 15 66 10 40 9 1 9-1v-12l-5-93-5-70-5-49-3-19v-4h-7l-43-14-24-10-3-4v-7l12-26 14-35 19-49 12-32 7-8 9-4h9l13 3 14 8 13 4 11 1 1-5h29l3-23 2-21 1-3 14-1 6-3 4-5 1-3v-27l-3-6-5-4-2-1-19-1-3-8-4-6-5-1-2 1-3-1v2h-2l-14-25-5-9 3-11 7-28 4-25 2-23v-29l-2-22-4-25-6-25-7-21-11-26-13-24-14-21-13-17-12-13-7-8-13-12-13-11-13-10-17-11-25-14-23-10Z"/><path fill="#ce85f4" d="M2640 1176h1v819l-19 3-36 10-33 8-18 4h-3l-2 5-6 5-5 2-6 1-40 1-19 4-11 1-44 1-66 5-50 2-43 1h-68l-54-1-116-4-19-1v-62h-65v-77h-29v-446l23 10 28 10 31 8 23 4 19 2h51l26-3 25-5 22-6 18-6 19-8 23-11 17-10 16-11 7-4 2 61 3 121 4 6 27 9 48 12 11 2 90 1h63l5-2 2-6 2-45 2-29 7-60 13-65 12-44 12-35 12-30 12-25 15-31 16-26 12-20 13-18 13-18Z"/><path fill="#86236d" d="M1945 271h12l16 8 12 9 10 10 5 10v2l2-1h47l24 3 25 7 19 8 10 5 10 7 10 9 7 11 2 7 1 14-4 14-8 14-9 11-11 12-5 4-4 5-14 11-12 7v13l3 31 5 30 7 30 6 19v5h2l8 18 5 15 3 13 1 9v10l-2 11-4 8-2 3 11 2 20 6 21 8 22 10 19 11 15 10 11 8 14 11 12 11 8 7 14 15 11 14 10 13 11 17 10 17 12 26 8 21 8 28 4 20 3 23 1 15v32l-3 31-5 26-7 25-9 24 1 6 10 17 30 1 6 4 4 5 1 3v26l-3 7-6 5-3 1h-14l-2 23-3 20-7 31-13 37-16 33-13 21-7 10-10 13-10 13-20 20-5 5-14 13-13 10-27 18-22 12-22 10-18 7-24 7-22 5-27 4-10 1h-51l-26-3-29-6-27-8-21-8-24-11-26-15-16-12-11-8-14-12-12-11-10-10-7-8-7-8-10-13-10-14-11-18-10-19-9-19-8-21v-2l39-1 12-5 8-7 6-11 1-4 1-110h528l2-5 12-27 12-36 7-36 2-21v-44l-2-18-4-24-7-27-11-30-12-25-16-26-16-21-7-8-9-10-5-6-8-7-13-12-19-14-14-9-16-10-23-11-32-12-27-7-5 1-20 12-19 12-13 10-12 11-9 12-5 11-13 40-11 30-11 25-7 13-10 15-6 7h-7l-12-3-5-2-3 10v7l1 2 3 1h10l6-5-1 9-5 9-6 7-11 8-14 7-19 6-11 2h-13l-3-3 1-8 6-8 4-4 4-13 7-10 9-10 11-11 5-4 4 1 2 1h8l6-35 8-46 8-37 7-21 11-25 9-16-26 11-24 13-10 9-6 12-2 9v20l4 22 8 25 11 26-5 5-12 7-10 3-5-1-8-13-10-18-8-16-9-19-9-25-5-19-2-14v-14l3-14 4-8 9-10 13-9 13-8 22-10 24-9 30-9 24-6 6-4 5-12-1-7-6-16-9-19-11-18-13-19-16-21-11-13-3-3-15 16-13 10-17 9-19 6-11 2-11 1h-21l-3-2-4-17v-16l17-5 19-10 13-10 8-8 11-14 10-15 13-21 9-11 11-9 17-9h2l-3-8-18 6-8 2-7-1-3-7-4-22 2-7-4-33v-4h-7l-6-4-2-6v-9l3-9 7-6 6-2 8 1 2 1 1-5 4-5 7-5Z"/><path fill="#fdf3d5" d="m2110 681 7 1 27 7 29 11 23 11 21 13 13 9 17 13 17 16 5 4 7 8 11 12 14 19 7 10 14 24 12 26 10 28 7 28 4 26 1 12v44l-2 21-7 36-14 41-10 22-3 5h-528l-1-220-4-11-9-10-10-5-4-1h-52l-211 4h-8l-3-65v-20l17-6 16-8 16-12 12-12 11-16 8-16 6-21 3-26h300l-6 8-4 8-3 14v14l3 19 8 26 10 24 8 17 12 22 10 16 8-1 12-5 10-7-7-17-6-15-7-25-3-17v-20l3-11 5-10 8-8 16-9 15-8 19-8h3l-2 5-9 17-11 27-6 21-9 45-10 61-2 5h-8l-3-2-4 1-12 11-9 9-9 13-4 13-7 7-4 8v7h15l18-4 19-7 10-6 6-5h2l2-4 5-6 3-6 1-8-5 5h-10l-4-2-1-2v-7l3-10 2-1 11 4 5 1h7l8-10 11-18 9-19 11-28 12-36 8-23 5-9 9-11 7-7 17-13 24-15Z"/><path fill="#bf3cb5" d="M3039 1073h23l15 3 17 7 11 7 11 9 11 12 10 15 8 16 5 14 5 19 2 13 1 13v23l-3 24-4 17-6 19-9 21-7 16-7 21-4 17-3 26v23l2 18 4 21 6 22 22 1 10 2 15 6 13 10 9 11 10 19 4 15 2 24-2 21-6 23-9 21-11 17-11 14-9 11-8 13-8 16-4 10-5 17-3 19-1 31-2 19-5 25-8 25-9 20-8 15-8 12-11 15-9 10-7 8-13 12-16 12-16 10-19 9-19 7-16 7-20 13-14 10-16 7-12 3h-20l-12-3-12-6-5-4v-658l12-13 10-13 12-19 8-16 6-15 5-16 4-17 5-29 6-20 6-16 8-16 10-16 10-13 14-15 10-8 14-9 16-8 13-4Z"/><path fill="#70236d" d="M1413 1266h97l1 4 24 539v17h312v77h71v77h65v78h-726l-3-13-26-137-15-80v-2h177v-16l22-538Z"/><path fill="#fdf5d5" d="M847 672h19l25 2 30 5 29 8 24 9 25 12 21 13 19 14 10 8 16 15 5 5 7 7 7 8 13 17 7 10 15 25 12 26 9 24 7 28 5 34 1 15v23l-2 24-5 30-7 26-9 24-14 29-3 4H600l-6-10-12-25-9-25-7-27-5-35-1-14v-24l2-24 4-25 7-28 11-29 12-25 16-26 14-18 7-8 11-12 5-5 9-9 8-7 13-10 14-10 25-15 26-12 25-9 27-7 26-4Z"/><path fill="#e5eefd" d="M1722 916h28l7 3 6 5 4 7 1 4v290l-3 8-4 6-9 5-4 1h-23l-382-4-40-1-7-3-7-6-4-9-7-88-13-168v-18l5-9 7-6 7-2Z"/><path fill="#c93fa8" d="M328 1167h22l25 5 21 7 20 9 21 12 16 11 16 13 13 12 9 9 9 11 11 16 10 18 6 14 5 19 2 15v19l-3 26-4 27-1 9v28l3 19 4 15 7 19 11 21 9 12 9 10 4 5 8 7 8 8 8 7 8 8 11 14 8 13 8 16 8 24 5 23 2 15 1 13v24h-87l-3-9-13-50-14-47-20-62-15-43-18-49-19-49-17-42-18-43-5-11-3 1 1 5 17 40 28 70 16 42 16 44 17 49 13 40 15 50 13 48 3 13v3l-81 1-10 3-3 1-1 3-1 161-3-4-15-32-16-38-15-39-14-40-13-41-5-18v-2h-5l4 17 14 45 15 43 18 46 13 30 16 35 6 12v83l-8-1-21-7-20-9-17-10-14-10-11-9-10-9-9-10-10-14-7-15-4-16v-11l3-14 6-16 8-18 4-14v-15l-3-12-6-10-7-8-14-10-14-8-12-9-12-11-9-12-9-17-7-20-4-21-1-10v-25l3-21 5-17 7-13 9-10 7-5 6-2 12-1 12 2 15 5 14 7 11 7 16 12 15 14 14 14 11 14 11 16 12 23 7 17 2-21v-32l-2-19-5-24-8-23-10-20-12-19-13-18-22-33-12-20-14-27-13-30-13-35-11-33-9-33-6-31-2-16v-31l3-15 8-16 8-7 8-4Z"/><path fill="#fbe4f8" d="M2621 209h87l45 3 35 4 41 7 34 8 35 11 33 14 22 11 19 12 16 12 14 12 10 8 7 8 14 14 12 16 9 12 13 21 8 16 8 17 10 29 6 28 3 29v38l-3 30-5 29-7 28-11 35-13 36-15 36-24 56-16 38-15 40-12 38-7 28-5 29 1 5 12 19 15 26 12 23 8 16 10 21v4l-15 5-16 8-16 11-14 13-9 11-10 14-8 14-6 12-7 19-5 17-7 39-5 17-7 19-8 16-9 15-8 11-9 11-9 10h-1V973l13-17 11-15 13-20 16-27 9-17 12-27 13-35 10-41 6-42 7 1 2-4 10-12-1-4-7-12 3-9 4-14 15-7-1-18-1-5-16-4-10-19-1-4 4-11v-5l-14-12h-6l-7-29-9-30-10-27-10-23-14-28-13-22-13-19-12-16-11-13-4-5-5-2-4-8-8-8-8-7-8-8-14-11-13-11-24-16-10-7-28-16-16-8-28-13-10-3-8-4-16-6-36-11-28-7-22-5-41-12 4-2 46-4Z"/><path fill="#edccfa" d="m1467 300 11 3 57 21 52 19 36 13 18 6 34 9 50 10 58 11 40 10 43 13 15 4 8-12 14-19 13-15 5-6h1l5 24 3 3 9-1 17-5 6-2 2 9-19 10-13 11-8 11-16 26-9 12-11 13-7 7-16 11-17 8-9 3h-5l1 16 4 17 2 1h21l16-2 16-4 13-5 16-9 14-12 11-12 5 5 12 14 14 19 11 16 11 18 9 17 6 15 3 9-1 6-4 10-5 4-18 5-29 8-23 8-2 1h-363l-5-12-10-19-11-14-10-10-17-12-17-8-16-5-9-2-9-199Z"/><path fill="#f4cff7" d="M2309 416h3v3l10-2h5l1 3 9 1 3 3 6 12-3 8 1 4 8 6 6-1 5-3 11 3 4 1 5 10 14-1 3-11 12-6 3-1 7 3 4-1 5-6 4 2 16 15 7 8 12 15 11 17 11 20 10 22 10 27 4 13v3l10-1 1 1v5l-8 3 2 9h-3l-1 12-11 7-3 2-10-2-4-1-2 5-5 7 1 4 5 7-3 17-9 5h-2l3 17 12 2 6 11 3 4-3 12 11 8 4-1 7-5 11 2 4 1-2 39-4 29-5 24-6 22-6 18-9 22-13 27-14 24-10 16-11 15-10 14-11 14-13 16-11 13-11 13-9 11-12 14-9 11-9 11-1-4 5-23 3-20 2-22v-32l-2-23-4-26-6-24-8-24-9-21-8-16-12-21-14-20-13-16-9-10-8-9-1-19-4-21-7-20-8-17-15-25-12-19-14-24-8-15-8-21-4-14-3-16v-27l4-17 5-12 9-14 9-10 9-9 10-7 13-8 22-10 24-8 12-3h3l-1-3Zm46 651Z"/><path fill="#e8cbfb" d="M969 683h374l3 25 4 15 5 13 7 13 12 16 10 10 14 10 17 9 17 6-2 56-1 24-1 6-32 1-105 2-26 1-11 4-8 6-6 8-3 9-1 11 18 191 1 7 4 1 2 44v22l4 42 3 10 5 8 9 8 4 3-4 1-2 9-14 8-11 4-11 2h-9l-3-1 8 37-14 3h-14l-15-4-16-8-13-10-11-10-2-1-3 9-9 16-12 19-14 19-6 8-10 17-2 9-2 2h-8l-43-14-24-10-3-4v-7l12-26 14-35 19-49 12-32 7-8 9-4h9l13 3 14 8 13 4 11 1 1-5h29l3-23 2-21 1-3 14-1 6-3 4-5 1-3v-27l-3-6-5-4-2-1-19-1-3-8-4-6-5-1-2 1-3-1v2h-2l-14-25-5-9 3-11 7-28 4-25 2-23v-29l-2-22-4-25-6-25-7-21-11-26-13-24-14-21-13-17-12-13-7-8-13-12-13-11-13-10-17-11-25-14-23-10Z"/><path fill="#82236d" d="M1229 1903h689v77h65v78h-726l-3-13-26-137Z"/><path fill="#dd8bef" d="m418 1314 3 3 13 30 20 49 18 46 15 40 13 36 17 49 16 50 14 48 13 50 1 4 100 1 10 3 5 5v304l-6 5-8 2H474l-10-3-5-5v-39l-10-3-29-13-23-12-21-13-20-14-16-13-10-9-12-11-15-16-9-11-13-18-10-16-10-18-10-22-9-25-7-28-4-25-2-21v-43l2-22 4-26 7-30 9-29 10-26 16-35 10-19 10-18 15-24 8-12 12-17h3l13 28 11 21 13 21 15 22 14 20 10 15 9 16 8 17 7 22 4 20 2 19v32l-2 21-2 1-8-20-12-23-11-15-13-16-19-19-11-9-14-10-15-9-18-7-7-2-14-1-10 2-8 4-8 8-6 10-5 12-4 16-2 16v25l3 22 4 15 6 16 8 15 10 13 12 11 15 10 15 9 11 9 7 9 5 10 2 9v15l-5 17-11 25-4 14-1 6v11l4 16 8 16 7 10 11 13 12 11 16 12 18 11 16 8 20 8 18 5-1-83-15-31-15-34-16-40-10-27-14-40-12-39-3-11v-6h5l8 26 11 35 15 43 18 46 18 41 10 21 1-159 5-5 10-3h81l-12-46-16-55-16-50-16-47-19-52-20-52-19-47-18-43-4-9 1-4Z"/><path fill="#4cb3fc" d="M2334 1699h34l19 3 4 1 22 2 22 4 21 6 21 9 21 11 17 12 13 11 16 16 11 15 9 16 7 16 4 14 2 10 1 10v24l-3 26-4 18-6 20-9 20-8 14-8 11-10 12-8 7-11 9-15 9-17 7-14 4-11 2-11 1h-49l-28-1-23-2-15-3-26-6-18-7-16-8-14-9-13-10-7-7-5-5-7-7-12-17-9-16-6-13-5-15-4-17-2-15v-30l4-24 4-14 7-18 8-15 8-12 8-10 11-12 12-11 17-12 21-11 20-7 17-4Z"/><path fill="#3840f7" d="M2897 578h12l7 15 14 4 5 2h5l11-7 5 1 14 12-1 8-3 8 1 4 8 15 1 3 16 4 2 6 1 18-15 7-5 16-2 7 8 13-1 4-11 13-1 2-7-1-1 14-4 28-10 41-15 40-15 32-12 21-13 21-13 19-12 16-11 13-7 8-14 15-13 12-16 15-11 9-13 11-14 11-13 11-14 11-13 11-11 9-11 10-8 7-14 14-8 7-9 10-12 13-12 14-12 15-12 17-12 17-16 27-12 20-23 47-17 43-11 34-11 41-12 61-7 60-2 29-2 45-3 6-5 3h-63l-90-1-24-5-38-10-15-5v-1h150l5-2 2-6 3-60 4-43 6-42 9-45 9-35 11-36 13-35 15-34 16-32 14-24 12-19 10-15 15-20 10-13 13-15 9-11 19-19 7-8 8-7 8-8 11-9 10-9 11-9 16-13 16-13 14-11 15-13 11-9 16-15 16-15 11-12 9-10 11-14 13-18 10-16 8-13 14-25 8-16 13-29 13-38 11 1 1-5-10-3 2-13 4-21v-4l-6-1-12 7-5-1-13-11-1-1 1-7 3-8-1-5-8-16-1-2-16-4-2-7-1-17 15-7 7-21-2-5-6-10 2-5 11-13 4-1 13 5 5-2 10-6 6-2 5-17 2-1Z"/><path fill="#83236d" d="m1454 253 11 1 1 4 13 293v19l9 1 21 7 15 8 16 12 11 11 10 14 9 17 4 11 360 1-2 2-16 7-14 7-14 9-8 6h-301v10l-3 21-6 18-8 16-12 16-13 13-16 11-16 8-13 4h-2l3 65v20l-44 1h-21l2-54 1-25 1-7-12-3-19-9-13-9-12-11-8-9-10-15-7-15-5-16-2-12-1-18-371 1 24 11 23 13 19 13 17 14 8 7 16 15 9 10 9 11 12 16 12 19 14 26 10 24 9 30 5 24 3 22 1 15v29l-2 23-4 25-7 28-6 18 1 6 13 23 1 3-8 3-15 4-3 1h-20l8-16 9-19 9-25 7-27 5-35 1-15v-23l-2-24-5-29-6-24-11-29-12-25-13-21-13-18-8-10-15-16v-2l-4-2-7-7-8-7-18-14-10-7-25-15-26-12-25-9-27-7-26-4-25-2h-19l-25 2-30 5-29 8-24 9-25 12-21 13-19 14-9 7-16 15-5 5-7 7-7 8-14 18-11 17-11 19-12 26-9 26-7 29-4 29-1 15v24l2 23 5 30 7 26 9 24 14 29 2 4h-41l6-9 10-13-1-6-6-15-6-19-7-29-4-27-1-16v-29l2-23 5-29 7-27 11-29 11-23 16-26 15-20 9-11 8-8 7-8 13-12 12-10 19-14 25-15 26-13 31-11 27-7 26-4 25-2h18l1-10 5-12 9-10 10-6 11-3h10l12 3 9 6 5 4 6 9 3 8 405 1 2-9 8-16 7-11 12-14 10-9 15-10 15-7 21-6h2l1-32 11-269Z"/><path fill="#fdf6d5" d="m2110 681 7 1 27 7 29 11 23 11 21 13 13 9 17 13 17 16 5 4 7 8 11 12 14 19 7 10 14 24 12 26 10 28 7 28 4 26 1 12v44l-2 21-7 36-14 41-10 22-3 5h-182l5-5 8-7 10-13 7-14 4-14 1-8v-18l-3-16-4-11-6-11-12-13-9-7-13-8-21-9-36-12-16-6-16-8-8-6-5-6-2-4v-8l3-7 6-7 8-4 11-3 9-1h13l19 2 23 5 12 4h11l7-4 4-8 6-22v-11l-4-7-8-4-18-5-23-4-19-2-1-28-3-7-5-4-5-2h-22l-7 3-5 5-2 6-1 30-20 5-20 8-5 2 2-5 10-19 11-27 12-34 11-33 5-9 9-11 7-7 17-13 24-15Zm-125 183Z"/><path fill="#dc8aef" d="M778 1569h181l12 3 6 4 1 2v178l-25 111-28 124-10 44-1 1H774l-8-4-5-6v-448l5-6Z"/><path fill="#9bfefa" d="M1150 1544h7l4 4 32 169 34 180 34 180 3 16v9l-4 3h-6l-4-4-14-73-8-42-287-1v51h-12l-2 12-12 53-4 4h-6l-4-3v-9l30-133 28-124 30-133 5-25 4-15 14-62 2 4 2 39 2 1v7l-3 11-1 7v9l1 1h37v-6h44l2 4 3 1h55l1-5 12-1-23-122 2-6Z"/><path fill="#f2e1fc" d="M1187 245h44l38 3 39 6 33 7 32 8 40 12 36 12 3 1v23l-6 147-1 9-10-1-55-11-31-8-40-12-56-18-35-10-30-7-32-5-26-2h-22l-25 2-34 6-24 7-20 7-27 12-5 2-16-8-7-2h-14l-4 1-7-13-7-9-10-9-14-8-18-6-8-2 5-4 20-14 27-18 20-13 28-17 29-16 21-10 19-8 24-9 28-9 24-6 26-5 23-3Z"/><path fill="#ecccfa" d="M1510 1266h162v560h-137l-4-84-21-472Z"/><path fill="#f6d0f6" d="M2640 1176h1v819l-19 3-36 10-33 8-18 4h-3l-2 5-6 5-5 2-6 1h-37l3-2 17-7 15-9 11-9 9-8 9-11 10-15 9-17 6-15 7-24 4-26 1-11v-24l-2-15-4-16-6-15-9-17-8-11-8-10-7-7v-391l7-20 12-30 12-25 15-31 16-26 12-20 13-18 13-18Z"/><path fill="#eee0fe" d="M541 500h27l27 5 34 4 31 2 28 1h38l33-1 49-3 52-5 27-3-3 5-11 12-11 14-14 18-8 10-12 14-12 11-14 9-12 6-20 6-24 4-12 1h-34l-33-3-41-6-56-9-33-4-30-2h-16l-24 2-27 5-30 11-22 12-12 9-10 9-8 7-14 15-9 11-17 26-13 26-12 34-7 31-4 33v42l4 33 6 30 9 31 12 33 13 29 15 30 14 24 14 23 29 43 11 17 14 24 10 20-1 2-18-10-23-10-7-7-9-11-11-13-13-17-14-18-12-17-16-24-17-28-14-27-8-16-10-24-10-28-8-31-5-30-2-25v-31l2-23 3-21 6-27 9-30 14-34 11-23 13-23 11-18 10-15 13-18 9-11 12-14 22-22 16-12 10-7 19-11 20-8 21-5 23-4 27-3Z"/><path fill="#deb4f9" d="M724 325h22l16 4 12 5 11 7 13 11 10 11 12 18 8 13 4-6 6-5 13-4h19l16 4 14 6 10 7 10 9 8 11 5 9 3-1h14l12 4 11 6 10 10 4 7 1 3v12l-5 8-8 6-15 7-15 4-33 6-43 6-49 5-43 3-18 1-33 1h-38l-45-2-32-3-28-4-24-5-27-9-16-8-11-7-8-7-12-17-4-8-2-12 3-7 3-3 9-3 6-1h14l22 3 3 1-1-5 1-16 4-13 5-10 6-8 8-8 13-8 16-5 7-1h19l20 4 19 7 7 3 6-9 7-7 14-9 11-5 13-4Z"/><path fill="#f2c248" d="M811 792h27l2 3 1 53h29l1-54 2-2h27l2 3v53l21 2 19 5 12 5 11 6 10 8 8 11 5 11 2 11v9l-3 14-6 12-11 12-10 9-14 8-6 2 6 2 18 5 15 8 11 9 7 9 6 12 3 11v20l-2 11-6 15-10 14-7 7-14 9-16 7-9 3-9 2H736v-31l1-1 40-1 2-1V884l-1-1-41-1-1-1v-30l2-2 70-1 1-54Z"/><path fill="#8b236d" d="M1945 271h12l16 8 12 9 10 10 5 10v2l2-1h47l24 3 25 7 19 8 10 5 10 7 10 9 7 11 2 7 1 14-4 14-8 14-9 11-11 12-5 4-4 5-14 11-12 7v13l3 31 5 30 7 30 6 19v7l-7 6-15 8-24 9-30 8-5 1h-7l-3-3-8-24-10-21-11-18-13-19-16-21-11-13-3-3-15 16-13 10-17 9-19 6-11 2-11 1h-21l-3-2-4-17v-16l17-5 19-10 13-10 8-8 11-14 10-15 13-21 9-11 11-9 17-9h2l-3-8-18 6-8 2-7-1-3-7-4-22 2-7-4-33v-4h-7l-6-4-2-6v-9l3-9 7-6 6-2 8 1 2 1 1-5 4-5 7-5Z"/><path fill="#f0cef9" d="m1889 1457 23 10 28 10 31 8 21 4 1 536 3 5 10 5h188l10-5 4-5 1-3 1-65 4 5 11 14 7 7v2l4 2 7 7 18 13 18 10 15 6 16 5 18 4 15 3 23 2 28 1 5 1v1l-66 5-50 2-43 1h-68l-54-1-116-4-19-1v-62h-65v-77h-29Z"/><path fill="#f7d944" d="M847 672h19l25 2 30 5 29 8 24 9 25 12 21 13 19 14 10 8 16 15 5 5 7 7 7 8 13 17 7 10 15 25 12 26 9 24 7 28 5 34 1 15v23l-2 24-5 30-7 26-9 24-14 29-3 4h-43l8-14 8-14 9-20 7-19 6-23 4-27 1-14v-21l-2-22-4-23-6-23-8-21-10-21-13-21-16-21-16-17-15-14-19-14-25-15-22-10-23-8-26-6-20-3-15-1h-20l-22 2-23 4-23 6-21 8-21 10-21 13-16 12-8 7-10 9-11 11-7 8-15 20-13 22-10 21-8 22-6 23-4 25-1 15v25l2 20 4 23 6 22 9 24 11 22 11 17v1h-56l-6-10-12-25-9-25-7-27-5-35-1-14v-24l2-24 4-25 7-28 11-29 12-25 16-26 14-18 7-8 11-12 5-5 9-9 8-7 13-10 14-10 25-15 26-12 25-9 27-7 26-4Z"/><path fill="#edccfa" d="M1579 683h300l-6 8-4 8-3 14-1 11-17 13-11 10-8 7-14 14-9 11-12 15-10 15-8 13-11 20-10 23-6 15-90 2-166 3-3-65v-20l17-6 16-8 16-12 12-12 11-16 8-16 6-21Z"/><path fill="#c883f6" d="M1102 1436h147l9 4 6 7v379h-51l-5-24-31-164-17-90-3-3h-7l-2 1-1 5 23 122v1l-12 1-1 4-1 1h-55l-5-3v-3h-44l1 6-1 1h-37l-2-2v-9l3-15 2-10 13-1 6-2 7-109 5-60 3-23h1l18 84 15 66 10 40 9 1 9-1v-12l-5-93-5-70-2-22Z"/><path fill="#f4e2fb" d="m1467 300 11 3 57 21 52 19 36 13 18 6 34 9 50 10 58 11 40 10 43 13 15 4 8-12 14-19 13-15 5-6h1l5 24 3 3 9-1 17-5 6-2 2 9-19 10-13 11-8 11-16 26-9 12-11 13-7 7-16 11-17 8-9 2 3-10 8-20 10-21-9 3-28 10-25 8-32 8-22 4-36 4-29 2h-71l-53-4-48-6-32-5-5-108Z"/><path fill="#448afa" d="M1712 880h52l10 4 6 4 8 9 4 11v330l-3 8-6 9-7 6-12 5h-415l-1-1h-10l-8 1h-27l-17-2-9-6-7-7-5-11-2-15-3-32v-22l-2-44h-4l-8-82-11-117 2-15 4-8 8-9 12-6 4-1 26-1Zm10 36-438 15-8 3-7 6-4 8v18l19 246 2 13 4 7 7 6 6 2 40 1 382 4h23l8-3 6-4 5-9 1-4V935l-3-8-6-7-5-3-4-1Z"/><path fill="#72236d" d="M1213 1826h634v77l-619 1-3-12-12-64Z"/><path fill="#b3236d" d="M2674 298h13l7 14 4 9 20 5 12 5 5-2 17-10 5 1 13 11 10 8-1 6-7 18 1 4 9 15 5 12v2l11 2 15 4 1 3 2 22v9l-5 3-17 8h-2l-1 8-5 17-3 7 1 5 11 18-1 4-9 11-10 12-8-1-15-6-6 1-13 8-15 7-6 24-1 1-28 3h-5l-3-4-9-20-18-4-13-5-6 1-16 10h-5l-13-11-10-8 1-9 6-16-2-5-8-14-5-12v-2l-8-1-18-5-2-15-1-19 16-8 7-3 6-21 4-11-1-4-11-19 1-4 12-14 7-9 7 1 18 7 5-2 13-8 14-6 6-24 2-2Z"/><path fill="#f2c248" d="M2046 804h22l8 4 5 6 1 4v28l19 1 23 4 21 6 6 4 4 7v11l-7 25-4 6-7 4h-11l-20-6-22-4-12-1h-13l-14 2-10 4-6 4-5 7-1 4v8l5 8 7 6 16 8 15 6 36 12 17 7 12 6 11 7 13 12 8 10 7 15 3 12 1 8v18l-2 11-4 13-8 15-12 14-10 8h-195l-1-3v-10l8-28 6-7 5-2h11l19 7 20 5 21 3h25l15-3 12-6 7-8 2-5v-11l-5-10-9-7-14-7-21-7-26-8-20-8-17-9-12-9-13-13-7-11-5-14-2-13v-14l1-7 9-7h2l2-4 5-6 3-6 1-8-5 5h-10l-4-2-1-2v-7l3-10 2-1 11 4 5 1h7l8-10 3-5 14-7 17-6 13-3h3v-30l3-7 5-5Z"/><path fill="#1e1e5d" d="M2111 586h2l8 18 5 15 3 13 1 9v10l-2 11-4 8-5 6-15 10-28 17-14 10-13 11-9 10-6 10-6 16-12 36-9 25-11 25-7 13-10 15-6 7h-7l-12-3-5-2-3 10v7l1 2 3 1h10l6-5-1 9-5 9-6 7-11 8-14 7-19 6-11 2h-13l-3-3 1-8 6-8 4-4 4-13 7-10 9-10 11-11 5-4 4 1 2 1h8l6-35 8-46 8-37 7-21 11-25 9-16-26 11-24 13-10 9-6 12-2 9v20l4 22 8 25 11 26-5 5-12 7-10 3-5-1-8-13-10-18-8-16-9-19-9-25-5-19-2-14v-14l3-14 4-8 9-10 13-9 13-8 22-10 24-9 30-9 24-6 6-4 5-12h2l1 5h9l28-7 24-8 17-8 10-7Z"/><path fill="#83236d" d="m1146 1070 3 4 14 25 2 5h2v-2l9-1 5 6 2 3 1 6 19 1 6 4 4 5 1 3v27l-3 6-6 5-3 1h-14l-1 18-4 26-1 3h-29l4-20 1-2h9l10-3 4-5v-16l-3-16-6-17-9 3-22 7h-2v8l2 5v6h-2l-4-8-3-2-5 1-1 1v6l6 9 5 3v4l-5 1-12-3-6-4-1-5H505l-8-5-3-6v-29l4-7 7-4 44-1 16-21 7-10 3 4 1 6-14 18-2 3h573l14-4 10-3v-3l-14-25 1-7Z"/><path fill="#fad1f5" d="m2912 892 5 5 9 10 13 17 13 17 12 17 13 20 12 20 13 23 14 27 11 24v4l-15 5-16 8-16 11-14 13-9 11-10 14-8 14-6 12-7 19-5 17-7 39-5 17-7 19-8 16-9 15-8 11-9 11-9 10h-1V973l13-17 11-15 13-20 16-27Z"/><path fill="#8c236d" d="m2121 673 8 1 21 6 24 9 22 10 19 11 15 10 11 8 14 11 12 11 8 7 14 15 11 14 10 13 11 17 10 17 12 26 8 21 8 28 4 20 3 23 1 15v32l-3 31-5 26-7 25-9 24 1 6 10 17 30 1 6 4 4 5 1 3v26l-3 7-6 5-3 1h-591v-51h528l2-5 12-27 12-36 7-36 2-21v-44l-2-18-4-24-7-27-11-30-12-25-16-26-16-21-7-8-9-10-5-6-8-7-13-12-19-14-14-9-16-10-23-11-32-12-27-7-2-2Z"/><path fill="#4071f9" d="M2379 348h8l4 8v2l12 3 7-1 4-3 4 1 9 7-1 7-1 6 6 12 11 3 1 7v9l-10 5-4 14 5 8-1 4-8 9-5-1-7-2-8 5-5 1-1 8-2 4-14 1-3-5-2-6-8-1-7-2-7 4-6-1-8-7 1-6 2-6-6-11v-2l-11-2-1-2-15 1v-3l-3 2v2l-25 7-19 7-19 9-14 9-10 8-12 12-10 15-5 11-4 15-1 5v27l4 21 8 23 8 16 8 15 9 15 15 24 14 24 8 18 6 18 3 18v18l-8-6-12-11-16-12-10-7-17-11-16-9-5-2-7-20-10-21-12-20-12-19-13-22-12-23-7-18-5-18-2-13v-24l3-16 6-15 7-11 8-10 10-10 15-11 18-10 25-10 25-7 22-4 29-3h29l3 2-1 7h3l1-8 14 1 11 1 3-11-4-6v-5l8-9 7 1 6 1 9-5h3l2-11 1-1Z"/><path fill="#ede0fe" d="m333 1402 3 3 12 26 11 21 13 21 15 22 14 20 10 15 9 16 8 17 7 22 4 20 2 19v32l-2 21-2 1-8-20-12-23-11-15-13-16-19-19-11-9-14-10-15-9-18-7-7-2-14-1-10 2-8 4-8 8-6 10-5 12-4 16-2 16v25l3 22 4 15 6 16 8 15 10 13 12 11 15 10 15 9 11 9 7 9 5 10 2 9v15l-5 17-11 25-4 14-1 6v11l4 16 8 16 7 10 11 13 12 11 16 12 18 11 16 8 20 8 18 5v6l-10-3-29-13-23-12-21-13-20-14-16-13-10-9-12-11-15-16-9-11-13-18-10-16-10-18-10-22-9-25-7-28-4-25-2-21v-43l2-22 4-26 7-30 9-29 10-26 16-35 10-19 10-18 15-24 8-12 12-17Z"/><path fill="#ce85f4" d="M1356 1321h54v25l-19 464-1 16h-51v-492l4-7 8-5Z"/><path fill="#f8e342" d="m2110 681 7 1 27 7 29 11 23 11 21 13 13 9 17 13 17 16 5 4 7 8 11 12 14 19 7 10 14 24 12 26 10 28 7 28 4 26 1 12v44l-2 21-7 36-14 41-10 22-3 5h-44l6-12 10-19 8-20 8-26 5-26 2-20v-32l-2-20-4-23-7-25-8-21-12-24-10-16-14-19-9-10-11-12-15-14-19-14-16-10-12-7-22-10-23-8-24-6-30-4-33-1 6-7 13-11 18-12 28-17Z"/><path fill="#e7aef5" d="m867 379 13 2 16 6 13 8 12 11 9 14 3 5 3-1h14l12 4 11 6 10 10 4 7 1 3v12l-5 8-8 6-15 7-15 4-33 6-43 6-49 5-43 3-18 1-33 1h-38l-45-2-32-3-28-4-15-3 1-2 35-2 36-4 37-8 32-11 33-16 17-9 15-9 22-13 21-14 21-14 16-11Z"/><path fill="#ca84f5" d="M2532 1376h1v387l-7-6-12-10-13-9-16-9-19-9-17-6-19-5-25-4-14-1-16-3-7-1h-34l-13 2h-5v-66l10 1 6 1 90 1h63l5-2 2-6 2-45 2-29 7-60 13-65 12-44Z"/><path fill="#4895f9" d="M1092 1204h9l13 3 14 8 13 4 11 1 1-5 30-1 15-4h4l8 14 7 9v2l2 1-10 7-18 10 9 13 11 11 10 6 11 4 8 37-14 3h-14l-15-4-16-8-13-10-11-10-2-1-3 9-9 16-12 19-14 19-6 8-10 17-2 9-2 2h-8l-43-14-24-10-3-4v-7l12-26 14-35 19-49 12-32 7-8Z"/><path fill="#70246d" d="M941 1985h287l2 6 12 63v4H941Z"/><path fill="#52d6fe" d="m1948 497 5 5 12 14 14 19 11 16 11 18 9 17 6 15 3 9-1 6-4 10-5 4-18 5-29 8-23 8-2 1h-113l-1-1-2-16v-41l2-24 5-28 1-2 12 1h21l16-2 16-4 13-5 16-9 14-12Z"/><path fill="#c1236d" d="M2897 578h12l7 15 14 4 5 2h5l11-7 5 1 14 12-1 8-3 8 1 4 8 15 1 3 16 4 2 6 1 18-15 7-5 16-2 7 8 13-1 4-11 13-1 2-7-1-8-3h-5l-12 7-7 2-2 11-3 7-10 1h-13l-7-15-17-5-6-1-12 7-5-1-13-11-1-1 1-7 3-8-1-5-8-16-1-2-16-4-2-7-1-17 15-7 7-21-2-5-6-10 2-5 11-13 4-1 13 5 5-2 10-6 6-2 5-17 2-1Z"/><path fill="#3c45f6" d="m2569 232 3 1Zm3 1 10 1 35 9 35 11 17 7 8 3 16 7 28 13 24 14 13 8 19 13 11 8 13 11 14 11 12 12 8 7 5 6 1 5 6 2 13 15 9 12 12 17 10 16 12 21 14 28 11 27 11 33 7 25 3 13v6l-9 6-7-1-9-3-9-3-6-13v-2l-24 2-3 15-2 3-5 1-3-13-6-27-7-27-12-36-9-22-14-30-8-14-1-3-2-25-11-2-15-4-8-18-8-12 1-5 7-19-1-4-11-9-11-9-6 1-13 8-4-2-17-14-17-13-24-16-25-15-27-14-30-13-21-8Z"/><path fill="#3840f7" d="M2395 1704h10l25 4 19 5 17 6 25 12 13 8 16 12 12 11 12 12 11 15 9 16 7 16 4 14 2 10 1 10v24l-3 26-4 18-6 20-9 20-8 14-8 11-10 12-8 7-11 9-15 9-17 7-14 4-11 2-11 1h-49l-28-1-23-2-15-3 4-1 12 1h15l18-2 15-3 17-5 16-7 15-8 14-10 14-12 7-7 11-14 7-10 12-23 8-24 3-15 2-18v-18l-3-24-6-22-6-15-9-17-9-13-8-10-9-10-8-7-16-12-15-9-21-9-13-4Z"/><path fill="#dca3f6" d="M1167 475h11l12 3 11 6 6 5 9 11 7 11v2h2l2-4 5-3 4-1h12l13 4 11 7 6 7 4 7h10l8 3 6 4 6 7 1 9-4 6-8 5-13 4-38 6-41 4-15 1h-69l-23-2-22-4-15-4-9-4-9-5-8-7-7-12-1-8 2-4 8-3h11l12 2v-12l4-10 4-6 8-7 9-4 9-2h8l14 3 11 4h2l7-8 10-6 11-4Z"/><path fill="#202364" d="m1018 1363 4 5 19 8 35 12 13 4 7 1 3 16 4 34 5 62 5 83 2 40v12l-1 1-11 1-7-1-3-8-13-54-18-82-9-42-1 1-4 39-6 82-4 65-7 3h-15l-1-1-2-39-4-108-2-69v-44l4-11Z"/><path fill="#cb84f5" d="M1513 1321h23l10 3 6 4 4 4 2 5v489h-23l-4-84-18-405Z"/><path fill="#55236d" d="M1077 1885h133l16 85v2h-214v-69h65Z"/><path fill="#f3cff8" d="M2236 1427h1l2 61 3 121 4 6 27 9 43 11v67l-8 3-16 5-16 7-16 9-16 12-12 11-11 12-10 14h-1v-330l11-8Z"/><path fill="#d487f2" d="M1008 1687h164l3 13 13 69v4H989l1-9 17-75Z"/><path fill="#222669" d="M2018 614h2l1 5h9l9-1-1 8-5 18-5 9-9 10-12 11-8 9-5 7-16 6-19 9-19 11-7 7-6 12-2 9v20l4 22 8 25 11 26-5 5-12 7-10 3-5-1-8-13-10-18-8-16-9-19-9-25-5-19-2-14v-14l3-14 4-8 9-10 13-9 13-8 22-10 24-9 30-9 24-6 6-4Z"/><path fill="#f4ce46" d="m1864 724 2 3 3 19 8 26 8 20-2 4-8 7-10 10-7 8-14 18-16 26-12 26-8 23-6 25-3 19-1 11v40l3 23 4 19 6 21 6 16 12 25 8 14v1h-45l-1-220-4-11-9-10-10-5-4-1-15-1 3-10 9-21 8-16 10-18 12-18 10-13 12-14 7-8 15-15 8-7 15-12Z"/><path fill="#db4862" d="M845 662h24l25 2 30 5 25 7 25 9 22 10 23 13 19 13 17 14 8 7 16 15 9 10 9 11 12 16 12 19 14 26 10 24 9 30 5 24 3 22 1 15v29l-2 23-4 25-7 28-6 18 1 6 13 23 1 3-8 3-15 4-3 1h-20l8-16 9-19 9-25 7-27 5-35 1-15v-23l-2-24-5-29-6-24-11-29-12-25-13-21-13-18-8-10-15-16v-2l-4-2-7-7-8-7-18-14-10-7-25-15-26-12-25-9-27-7-26-4-25-2h-19l-25 2-30 5-29 8-24 9-25 12-21 13-19 14-9 7-16 15-5 5-7 7-7 8-14 18-11 17-11 19-12 26-9 26-7 29-4 29-1 15v24l2 23 5 30 7 26 9 24 14 29 2 4h-41l6-9 10-13-1-6-6-15-6-19-7-29-4-27-1-16v-29l2-23 5-29 7-27 11-29 11-23 16-26 15-20 9-11 8-8 7-8 13-12 12-10 19-14 25-15 26-13 31-11 27-7 26-4Z"/><path fill="#db8af0" d="M1046 1786h145l10 51 6 32v4h-161Z"/><path fill="#e0c8ff" d="M353 1444h2l10 18 22 33 14 20 10 15 9 16 8 17 7 22 4 20 2 19v32l-2 21-2 1-8-20-12-23-11-15-13-16-19-19-11-9-14-10-15-9-18-7-13-3 2-9 11-31 9-19 13-22 8-12Z"/><path fill="#8f236d" d="m2532 597 4 1 5 9 16 4 9-6 5 1 10 8-2 9 1 6 6 9v2l13 2 3 16-9 6h-2l-3 17 6 9-1 4-7 10-15-1-9 6-3 2-2 11-5 2-12 1-6-10-14-3-4 1-7 5-4-1-11-8 3-13-6-8-2-6-12-1-2-4-1-6v-8l9-5h2l1-10 1-7-6-8 1-5 7-10 7 1 7 1 11-7 2-1 2-12Z"/><path fill="#a3236d" d="M1574 652h360l-2 2-16 7-14 7-14 9-8 6h-301l-4-24Z"/><path fill="#cc84f2" d="M1052 1450h1l18 84 15 66 10 40 9 1h7l1 8 6 2 17 9 21 14 1 4-2 2h-55l-5-3v-3h-44l1 6-1 1h-37l-2-2v-9l3-15 2-10 13-1 6-2 7-109 5-60Z"/><path fill="#9a236d" d="M2379 348h8l4 8v2l12 3 7-1 4-3 4 1 9 7-1 7-1 6 6 12 11 3 1 7v9l-10 5-4 14 5 8-1 4-8 9-5-1-7-2-8 5-5 1-1 8-2 4-14 1-3-5-2-6-8-1-7-2-7 4-6-1-8-7 1-6 2-6-6-11v-2l-11-2-1-2-1-14 10-5 4-13-2-5-2-3v-5l8-9 7 1 6 1 9-5h3l2-11 1-1Z"/><path fill="#1f2160" d="m1920 285 8 1 1 4-2 6 13-6 10-1 6 3 6 8 7 20 7 8 5 3h7l13-3 23 4 19 6 25 12 16 8 3 3 3 10v3l-35-1-20 2-31 6-8-15-10-14-3-4v-10l-3-5-6-1-5 2-3 7v13l1 8-1 20-5 5-18 6-8 2-7-1-3-7-4-22 2-7-4-33v-4h-7l-6-4-2-6v-9l3-9 7-6Z"/><path fill="#bd236d" d="m1454 253 11 1 1 4 13 293v19l-22-1-16 1 1-32 11-269Z"/><path fill="#f7e4fa" d="m2210 1957 4 5 11 14 7 7v2l4 2 7 7 18 13 18 10 15 6 16 5 18 4 15 3 23 2 28 1 5 1v1l-66 5-50 2-43 1h-68l-54-1-116-4-19-1v-10l15-1 8 4h188l10-5 4-5 1-3Z"/><path fill="#b37cff" d="M2362 924h107l-2 5-12 17-10 14-14 18-13 16-11 13-11 13-9 11-12 14-9 11-9 11-1-4 5-23 3-20 2-22v-32l-2-23Zm-7 143Z"/><path fill="#52d7fe" d="M1894 535h3l-2 10-5 21-4 30-1 26 1 30h-62l-1-1-2-16v-41l2-24 5-28 1-2 12 1h21l16-2Z"/><path fill="#e6cafc" d="M963 1885h114v18h-65v69h-68l1-8 17-76Z"/><path fill="#fdf3d5" d="M842 1004h46l18 2 13 5 8 6 5 7 3 10v11l-4 11-9 10-9 5-13 4-7 1h-52l-1-1v-70Z"/><path fill="#d93c65" d="m2121 673 8 1 21 6 24 9 22 10 19 11 15 10 11 8 14 11 12 11 8 7 14 15 11 14 10 13 11 17 10 17 12 26 8 21 8 28 4 20 3 23 1 15v32l-3 31-5 26-7 25-11 29-9 19h-12l2-5 12-27 12-36 7-36 2-21v-44l-2-18-4-24-7-27-11-30-12-25-16-26-16-21-7-8-9-10-5-6-8-7-13-12-19-14-14-9-16-10-23-11-32-12-27-7-2-2Z"/><path fill="#e6cafc" d="M985 1786h61v87h-80l5-25Z"/><path fill="#4c236d" d="M1077 1826h121l2 6 7 37v4h-130Z"/><path fill="#24296f" d="m1146 1070 3 4 14 25 2 5h2v-2l9-1 5 6 2 3 1 6 19 1 6 4 4 5 1 3v27l-3 6-6 5-3 1h-14l-1 18-4 26-1 3h-29l4-20 1-2h9l10-3 4-5v-16l-3-16-6-17-9 3-22 7h-2v8l2 5v6h-2l-4-8-3-2-5 1-1 1v6l6 9 5 3v4l-5 1-12-3-6-4-1-5 2-3-7-7-3-6v-11l4-4h5l4-10 7-7 11-5 21-6v-3l-14-25 1-7Z"/><path fill="#f8e4fa" d="M2309 416h3v3l10-2h5l1 3 9 1 3 3 6 12-3 8 1 4 8 6 6-1 5-3 11 3 4 1 5 10 14-1 3-11 12-6 3-1 7 3 4-1 5-6 4 2 16 15 7 8 12 15 5 7v2l-11-3-29-8-20-5-2 4h-5v-3l2-2-38-7-28-4h-6l-1 4-4-2-3-3-15-2-38-3-41-2-5-1 4-4 13-8 22-10 24-8 12-3h3l-1-3Z"/><path fill="#53d8ff" d="M1921 367h1l5 24 3 3 9-1 17-5 6-2 2 9-19 10-13 11-8 11-16 26-9 12-11 13-7 7-16 11-17 8-9 2 3-10 8-20 14-29 13-22 12-18 14-19 13-15Z"/><path fill="#a1236d" d="m1432 800 22 3h14l22-3 3 65v20l-44 1h-21l2-54 1-25Z"/><path fill="#fef5d5" d="M841 895h45l16 3 12 6 6 7 3 7v12l-3 9-7 9-8 5-13 4-8 1h-43l-1-1v-61Z"/><path fill="#e8ccfc" d="M1259 1182h1l5 53 3 10 5 8 9 8 4 3-4 1-2 9-14 8-11 4-11 2h-9l-14-4-11-7-12-12-8-12 4-3 17-9 13-10 12-12 7-10 8-14 4-9Z"/><path fill="#e6cafc" d="M1008 1687h38v86h-57l1-9 17-75Z"/><path fill="#c867dd" d="m3027 1160 3 1-1 7-28 85-18 57-20 64-18 60-21 72-21 77-19 74-10 40-8 11-1-3 13-58 16-64 13-49 14-51 18-61 17-55 17-53 21-63 19-53 11-31Z"/><path fill="#fce5f9" d="m2968 965 4 5 13 21 16 28 10 20 8 16 8 17v4l-15 5-16 8-16 11-2-3-9-45-2-15-1-17v-32l1-18Z"/><path fill="#efe1fe" d="m676 1984 10 1 57 9 17 2 1 1 1 29 4 6-44 1h-27l-19-1Z"/><path fill="#4487fa" d="m1304 970 5 2 4 5v5l-4-2 2 29 16 189v9l283-1v-6h4v6h117l-2-4h7l6 6-2 4-4 4h-7l2-3-403-1v11h-4l-1-2v-9h-14l-1-5h14l-9-104-10-118-1-4-3 2-1-7Z"/><path fill="#f6a46e" d="M1945 271h12l16 8 12 9 10 10 5 10v2l2-1h47l15 2-8 15-4 15-2 1-16-6-15-4-18-3-13 3h-7l-6-4-7-8-7-20-6-8-5-2-10 1-11 5h-2l3-12 5-7 7-5Z"/><path fill="#f7a76f" d="m1170 1135 3 1 7 21 2 12v16l-5 6-10 3-9-1-4 20-2 7-3 1-12-2-13-5-10-6 1-6 10-24 12 1-1-4-6-4-5-8v-6l4-3 5 1 4 5 1 5h2l-2-8-1-9 3-3 27-9Z"/><path fill="#53d8ff" d="m1999 328 15 2 17 4 17 6 22 11 16 8 3 8 1 7-35-1-20 2-31 6-8-15-10-14-3-4v-10l-2-5 7-2Z"/><path fill="#f6a16d" d="m1728 494 16 1 21 3 11 6 2 2 12 2 12 1h16l16-1 2 21 3 12-13-1-21-5-27-8-4-1-15 9-17 8-21 7-6 1v-12l3-6 8-7 10-9 8-7 3-1-3-3-10-2-5-5Z"/><path fill="#458bfa" d="M1498 973h249l3 2v8l-2 2h-252l-2-2v-7Z"/><path fill="#4487fa" d="m1742 945 7 1 1 1v11l-2 1-12 1-217 3h-22l-3-3v-5l2-2 12-1Z"/><path fill="#a3236d" d="M899 621h10l12 3 9 6 5 4 6 9 4 12v15l-1 4-9-1-21-5-30-4-21-2 1-10 5-12 9-10 10-6Z"/><path fill="#eda9f0" d="m972 435 4 2 7 7 4 7 1 3v12l-5 8-8 6-15 7-15 4-33 6-23 3 2-4 11-11 8-7 17-14 20-14Z"/><path fill="#458cfa" d="M1430 1002h5l9 11 11 13 9 11 11 13 9 11 11 13 9 11 11 13 9 11 11 13h2l18-13 19-14 18-13 15-11 3-1 9 7 16 13 16 13 16 13 16 13h3l13-12 11-9 12-11 5-1 1 4-12 11-11 9-13 12-5 4h-5l-13-11-14-11-13-11-10-8-16-13-7-5-19 14-18 13-19 14-16 12-4-1-9-10-9-11-11-13-9-11-11-13-9-11-11-13-9-11-11-13-9-11-2-3-4 2-11 10-11 9-13 12-11 9-14 13-11 9-13 12-8 7-5-1 1-4 10-9 8-7 14-12 11-10 11-9 13-12 11-9 14-13Z"/><path fill="#e9acd7" d="M3123 1530h4l-2 5-26 39-15 23-11 17-11 17-14 22-14 22-15 24-16 26-16 26-15 26-16 27-16 28-11 19-12 22-13 24-15 29-8 16-13 26h-3l1-5 14-30 17-35 21-41 13-23 9-17 14-24 15-26 15-25 17-28 15-24 14-22 16-25 26-39 21-31 14-20 14-20Z"/><path fill="#c0236d" d="M1184 1117h19l6 4 4 5 1 3v27l-3 6-6 5-3 1h-14l-1 18-4 26-1 3h-29l4-20 1-2h9l10-3 4-5v-16l-3-16-6-17v-2l8-5 3-8Z"/><path fill="#4c246d" d="M1077 1885h133l3 18h-136Z"/><path fill="#f5956a" d="M1282 1264h12l9 1h27l8-1h10v3l-27 15-2 1h-31l-9 12-11 12-12 9-13 7h-4l-7-31v-5h12l14-3 16-7 5-3 2-9Z"/><path fill="#cb67d4" d="m418 1314 3 3 13 30 20 49 18 46 15 40 13 36 17 49 16 50 14 48 13 50 1 5h-6l-12-46-16-55-16-50-16-47-19-52-20-52-19-47-18-43-4-9 1-4Z"/><path fill="#f7de43" d="M1990 690h3l-2 5-9 17-11 27-2 5-19 8-19 9-5 3h-2v-20l3-11 5-10 8-8 16-9 15-8Z"/><path fill="#e58eec" d="M963 1885h15v87h-34l1-8 17-76Z"/><path fill="#4488fa" d="M1704 993h44l2 2v9l-2 2h-177l-2-2v-6l2-2 8-1Z"/><path fill="#fef6d5" d="m1967 744 2 1-6 24-8 42-6 36-2-1-1-7 1-2-11-26-8-25-3-15v-7l14-8 20-9Z"/><path fill="#f7a770" d="m1255 1126 4 1 2 44v9l-6 7-7 16-8 12-11 12-7 7-5 1-10-14-6-12 12-6 14-10 12-11 7-9 1-3v-8l-2-7v-8l4-10 5-10Z"/><path fill="#f7a56f" d="m1974 331 7 2 3 5v10l11 15 9 16 3 8-10 10-10 6-10 2-9-1-3-1-3-14 1-4 2-3 1-25-1-3v-13l3-7 2-2Z"/><path fill="#da4363" d="m1864 724 2 3 1 9-16 12-7 7-8 7-13 13-9 11-12 15-12 18-12 21-11 23-6 16-1 1h-11l3-10 9-21 8-16 10-18 12-18 10-13 12-14 7-8 15-15 8-7 15-12Z"/><path fill="#fff" d="M2287 248h55l48 4 52 8 55 12 40 11 12 4v3l-8-1-48-13-50-11-43-7-40-4-15-1h-59l-21 1-46 6-37 8-41 13-35 15-23 12-10 5-5-1 4-3 25-14 26-12 15-6 22-8 30-8 24-5 42-6Z"/><path fill="#f3cff8" d="m2210 1957 4 5 11 14 7 7v2l4 2 7 7 18 13 18 10v1l-32 2-21 1h-16Z"/><path fill="#b3236d" d="M2677 408h9l7 2 9 8 4 10v7l-4 10-4 5-9 5h-12l-7-3-8-7-3-6-1-9 3-10 7-8Z"/><path fill="#262d76" d="M1965 891h1l-1 9-5 9-6 7-11 8-14 7-19 6-11 2h-13l-3-3 1-8 6-8 4-3 1 7 23-11 17-10 11-8 4 1h10Zm-71 25Z"/><path fill="#e79ebf" d="m2902 645 10 1 6 3 5 5 4 8v11l-3 7-4 5-7 4-11 1-9-3-5-4-5-10v-11l4-8 8-7Z"/><path fill="#150e43" d="m1930 868 4 1 2 1h9v3l4 2-3 11v10l-14 10-18 10-16 8h-3l-1-7 3-12 7-11 11-12 10-10Z"/><path fill="#51d1fe" d="M1829 683h50l-6 8-4 8-3 14-1 11-17 13h-2l-9-24-7-23Z"/><path fill="#fff" d="m2677 357 18 1 12 3 12 5 13 9 8 8 9 13 6 16 2 8v22l-4 16-4 9-7 11-9 10-11 8-15 7-11 3-7 1h-11l-17-3-13-5-12-8-9-8-8-11-7-14-4-16v-20h4l1 22 5 16 4 8 8 11 9 9 14 8 11 4 10 2h18l16-4 15-8 13-12 7-10 5-10 3-9 2-11v-12l-3-15-6-14-8-11-5-5v-2l-4-2-11-7-11-5-14-3h-17l-10 2-13 5-10 6h-3v-4l14-8 17-5Z"/><path fill="#eaacd5" d="M373 1675h5l8 26 11 35 15 43 18 46 18 41 11 23v14l-3-4-13-27-15-34-16-40-10-27-14-40-12-39-3-11Z"/><path fill="#394cf7" d="M1198 1210h4l8 14 7 9v2l2 1-10 7-17 9-3-1-6-11-11-9-14-8-6-3 1-5 30-1Z"/><path fill="#f48162" d="M1935 317h8l8 4 2 4 1 18v14l-2 4-3 2-7-1-12-3h-6l-1-1-4-33v-4l11-2Z"/><path fill="#fff" d="M840 694h34l28 3 6 2-1 3-19-2-25-2h-11l-27 2-25 4-26 7-25 9-19 9-17 10-16 11-13 10-11 10-8 7-7 7-9 11-9 11-14 21-12 21-3-1 1-5 10-18 8-12 12-16 13-15 17-17 11-9 14-11 15-10 23-12 12-6 33-12 38-8Z"/><path fill="#6edeff" d="m1999 328 15 2 17 4 7 2-1 3-10 8-17 14-10 10-3-3-7-11-7-9v-10l-2-5 7-2Z"/><path fill="#222669" d="m1113 1649 6 2 17 9 21 14 1 4-2 2h-55l-5-3v-13l3-10 2-2 3 3 6-1Z"/><path fill="#4175f9" d="m1304 970 5 2 4 5v5l-4-2 2 29 16 189v9h-5l-9-104-10-118-1-4-3 2-1-7Z"/><path fill="#f69a6b" d="m1125 1178 11 1 3 3v2l4 2 6 4 9 3-4 20-2 7-3 1-12-2-13-5-10-6 1-6Z"/><path fill="#91236d" d="m879 629 5 1 4 5 5 5 5 4 5 5 5 5 5 4 5 5 5 6-9-1-30-4-21-2 1-10 5-12 9-10Z"/><path fill="#fff" d="M2677 402h10l10 3 9 8 5 9 1 5v9l-3 10-6 8-10 6-3 1h-16l-10-5-7-7-4-9-1-4v-9l4-11 7-8 9-5Zm0 6-10 5-6 7-3 10 2 12 7 8 6 4 4 1h12l9-5 6-9 2-6v-7l-4-10-9-8-7-2Z"/><path fill="#e49ebf" d="M2900 617h10l14 3 11 6 8 7 7 10 5 13 1 4v14l-3 12-5 10-9 10-8 6-12 5-4 1h-19l-10-3-11-6-8-7-7-11-4-10-1-5v-15h4v11l3 12 5 10 8 9 9 6 11 4 5 1h11l12-3 10-6 7-6 7-11 3-7 1-5v-17l-5-14-7-9-8-7-10-5-8-2h-16l-12 4-7 4h-3l1-4 12-6Z"/><path fill="#f48162" d="m1255 1126 4 1 2 44v9l-6 7-7 16-6 9h-1v-33l5-6 1-3v-8l-2-7v-8l4-10 5-10Z"/><path fill="#fff" d="M2292 1755h2v4l-14 9-14 12-11 12-10 16-7 15-5 17-2 10-1 11v11l3 21 6 19 8 16 9 13 9 10 9 9 10 7v3l-6-1-13-11-8-8-10-13-9-16-6-15-3-9-3-19v-24l3-17 4-14 7-16 10-16 11-12 4-5 11-9Z"/><path fill="#e9bfdd" d="M1045 1520h1v143l-5-5-1-3-4-2-1-1-3 5-3 1h-7l-3-2-1-4v-7l13-1 6-2 7-109Z"/><path fill="#b7236d" d="M899 621h10l12 3 9 6 5 4 6 9 4 12v14l-4-2-5-5-5-5-4-5-5-5-8-6-5-5-5-5-4-5-4-4Z"/><path fill="#1c1b59" d="m1034 1651 6 4 8 11 5 11-1 4h-37l-2-2v-9l3-15 1-3h2l1 4 2 1h7l3-1Z"/><path fill="#e08cee" d="M2532 1996h1v23l-4 7-5 4-5 2-6 1h-37l3-2 17-7 15-9 11-9 9-8Z"/><path fill="#c9236d" d="M1181 1168h7l-1 18-4 26-1 3h-29l4-20 1-2h9l10-3 4-5Z"/><path fill="#f0f0f0" d="M282 1567h4l-1 5-6 9-6 16-2 9-1 16 2 16 4 16 7 16 8 15 9 13 8 10 12 14 7 7-1 3-4-1-8-8-9-11-7-8-9-13-9-15-7-16-4-11-3-16-1-16 2-16 5-16 6-12Z"/><path fill="#fae4fa" d="M2611 1998h8l-3 2-42 11-39 9-3-1 1-14Z"/><path fill="#4a5ef8" d="m2569 232 3 1Zm3 1 10 1 35 9 35 11 8 4v5l-3 2-13 1-21-11-30-13-21-8Z"/><path fill="#cc9ebf" d="M2531 625h13l11 4 8 6 6 7 4 9 1 5v9l-3 12-8 11-9 6-7 3-13 1-11-3-10-6-7-9-4-9-1-12 3-1 3 15 6 10 7 6 11 4h14l9-4 8-6 5-8 3-12-1-10-6-12-9-8-12-4h-9l-10 3-7 5-3-1 2-4 12-6Z"/><path fill="#d19ebf" d="M2380 373h10l11 4 6 4 7 8 4 10v13l-3 9-3 6-10 9-12 4h-10l-11-4-6-4-7-8-4-9v-14h3l2 14 5 10 7 6 10 4h13l10-5 6-5 5-10 1-13-4-10-7-9-8-4-4-1h-13l-11 5h-2l1-5 9-4Z"/><path fill="#faeb81" d="M1990 690h3l-2 5-8 14-29 9-22 9-2-1 9-10 13-8 19-10Z"/><path fill="#e8cbfc" d="m1142 1079 3 4 13 23 1 3-8 3-15 4-3 1h-8l9-19Z"/><path fill="#cb236d" d="M2901 654h7l6 3 4 5 1 8-3 6-5 4-2 1h-8l-6-4-3-4-1-7 3-7 5-4Z"/><path fill="#e28ded" d="M1046 1885h31v18h-31Z"/><path fill="#4cb5fc" d="m1304 970 5 2 4 5v5l-4-2 2 29 2 23v59h-1l-9-106-1-4-3 2-1-7Z"/><path fill="#f59569" d="M1240 1180h1v34l-12 13-4 3v-35l14-13Z"/><path fill="#4380f9" d="m1963 899 2 1-5 9-6 7-11 8-14 7-19 6-11 2h-13l-3-3 1-8 2-3 5 2 8 3 11 1 14-3 15-8 11-8 7-6Z"/><path fill="#f6996b" d="M1944 840h2l2 6-1 14-2 10-1 1h-8l-6-5-7-15 14-6Z"/><path fill="#fff" d="M1871 760h2v4l-8 7-10 9-14 14-9 11-13 17-11 18-9 16-4-1 2-6 10-17 10-15 10-13 11-13 16-17 8-7Z"/><path fill="#dfc8ff" d="M319 1748Zm1 1 5 2 11 9 7 9 5 10 2 9v12l-4-4-11-18-6-10-9-17Z"/><path fill="#fff" d="M1894 535h3l-2 10-5 21-4 30-1 26 1 30h-3l-2-16v-33l3-29 6-29 3-9Z"/><path fill="#1a1853" d="m1129 1657 5 2 16 10 8 6-1 4-1 1h-27Z"/><path fill="#f47b60" d="m1974 331 7 2 3 5-1 10-4 6-5 3h-8l-1-3v-13l3-7 2-2Z"/><path fill="#8e236d" d="m2535 650 8 1 5 5 1 7-4 7-7 3-8-3-3-4-1-5 3-7 3-3Z"/><path fill="#f59067" d="m1949 875 12 4 10 2-5 10-4 5-2 1h-10l-4-2-1-2v-7l3-10Z"/><path fill="#82236d" d="m869 641 3 1 5 5 5 5 4 5 5 5 1 2-23-1-6-1 1-10 4-10Z"/><path fill="#9a236d" d="m879 629 5 1 4 5 5 5 5 4 5 5 5 5 5 4 5 5 5 6-9-1-7-5-5-5-5-5-5-4-5-5-5-5-4-5-2-2Z"/><path fill="#e2c9fe" d="m576 1094 3 4 9 19h-29l6-9 10-13Z"/><path fill="#df8cee" d="M977 1822h1v51h-12l5-25Z"/><path fill="#262d76" d="M1017 1652h2l1 4 7 2v23h-12l-2-2v-9l3-15Z"/><path fill="#ec90ea" d="M940 1986h1v50h-12l8-37Z"/><path fill="#28307a" d="m1100 1652 4 3h5v25h-8l-5-3v-13l3-10Z"/><path fill="#a9236d" d="m894 622 4 2 5 5 5 4 5 5 5 5 5 4 5 5 5 5 4 5 5 5 3 3-2 4-5-5-5-4-5-5-5-5-4-5-7-5-5-5-5-5-4-5-7-6Z"/><path fill="#99236d" d="m2384 396 6 2 4 4 1 5-3 6-4 3h-6l-5-3-2-4 1-8 5-4Z"/><path fill="#52236d" d="m1146 1070 3 4 14 25 3 6-7 4-14-24-2-4 1-7Z"/><path fill="#c3236d" d="m572 1085 3 4 1 6-14 18-3 4h-10l6-9 16-21Z"/><path fill="#d29ebf" d="M2380 393h9l6 4 3 5v8l-4 7-7 3-8-1-6-5-2-5 1-8 3-5Zm4 3-6 3-3 5 1 7 4 4 2 1h6l5-4 2-7-3-6-6-3Z"/><path fill="#cd9ebf" d="M2534 647h8l6 4 3 4 1 9-4 8-8 4-8-1-6-4-3-6v-7l3-6 5-4Zm1 3-5 3-3 4-1 5 3 7 8 4 6-2 5-5 1-7-3-5-3-3Z"/><path fill="#9f236d" d="m884 626 4 2 5 5 5 5 4 5 5 5 8 6 5 5 5 5 4 5 2 2-7-1-5-4-5-5-5-5-5-4-5-5-5-5-4-5-5-5-4-4Z"/></svg>